<svg version="1" xmlns="http://www.w3.org/2000/svg" viewBox="0 0 113 41"><path fill="#FFF" d="M82.3 10h10.8v29.7l.1.4h8.3V10h10.8V1.6h-30V10"/><g fill="#FFF"><path d="M66.3 19.6c.3-.4.5-.9.7-1.3l.3-.6c.5-1.3.8-2.7.8-4.2 0-3-1.2-6-3.4-8.2-2.3-2.2-5.2-3.4-8.3-3.4h-16v38.4h18.3c3 0 5.9-1.2 8.2-3.4 2.2-2.3 3.4-5.2 3.4-8.2 0-3-1.1-5.8-3-7.9-.3-.6-.7-.9-1-1.2m-4.2 8.6c-.1 1.1-.5 2.1-1.2 2.8-.6.6-1.4 1-2.3 1.2h-9.9v-7.9h9.4c1.1 0 2 .4 2.8 1.1.8.7 1.2 1.7 1.2 2.8zM48.7 17.1V9.3h7.1c1 0 2 .4 2.7 1.1.7.7 1.1 1.6 1.2 2.7l-.1.4c0 .2-.1.5-.1.7l-.1.2c-.1.2-.1.4-.2.5-.7 1.3-1.8 2-3.1 2.1h-7.4zM20.1 9.2c4.1 0 8 2.2 10.1 5.8l6.4-5.4C32.8 4.2 26.7.9 20.1.9 9 .9 0 9.9 0 20.9 0 32 9 41 20.1 41c6.6 0 12.8-3.2 16.5-8.7l-6.4-5.4c-2.1 3.6-5.9 5.8-10.1 5.8-6.5 0-11.8-5.3-11.8-11.8 0-6.5 5.3-11.7 11.8-11.7"/></g></svg>