<svg version="1" xmlns="http://www.w3.org/2000/svg" viewBox="0 12.9 40 14.2"><path d="M29 16.1h3.9v10.6h2.9V16.1h3.9v-3H29v3M23.4 19.5c.1-.1.2-.3.2-.5l.1-.2c.2-.5.3-1 .3-1.5 0-1.1-.4-2.1-1.2-2.9-.8-.8-1.8-1.2-2.9-1.2h-5.7v13.6h6.5c1.1 0 2.1-.4 2.9-1.2.8-.8 1.2-1.8 1.2-2.9s-.4-2.1-1.1-2.8c-.1-.2-.2-.3-.3-.4m-1.5 3c0 .4-.2.7-.4 1-.2.2-.5.4-.8.4h-3.5v-2.8h3.3c.4 0 .7.1 1 .4.2.3.4.6.4 1zm-4.8-3.9v-2.8h2.5c.4 0 .7.1 1 .4.2.2.4.6.4 1v.4c0 .1 0 .1-.1.2-.2.5-.6.7-1.1.7l-2.7.1zM7 15.8c1.5 0 2.8.8 3.6 2.1l2.3-1.9c-1.3-1.9-3.5-3.1-5.8-3.1C3.2 12.9 0 16.1 0 20s3.2 7.1 7.1 7.1c2.3 0 4.5-1.1 5.8-3.1l-2.3-1.9c-.7 1.3-2.1 2.1-3.6 2.1-2.3 0-4.2-1.9-4.2-4.2 0-2.4 1.9-4.2 4.2-4.2"/></svg>