<svg version="1" xmlns="http://www.w3.org/2000/svg" viewBox="0 0 1296 500"><path fill="#FFF" d="M176.9.9l-3.3 6.6c-1.4 2.8-2.4 5.7-3.6 8.1-.7 1.2-1.4 3.3-1.9 4 0 .2-.7 0-.7 0 0 1.2-9.5 25.9-8.1 19.7-1.7 3.3-4.3 9.7-5.5 11.4-2.6 4.3-4 10.4-6.2 14.7-.7 1.2-.2 4.3-1.2 5.5-.9 1.2-.9 3.3-2.8 4 .7 3.6-2.4 6.6-3.6 10-.9 3.6-2.4 6.9-3.3 10.4-2.1 7.1-4 14.7-6.9 22.3-1.4 3.8-4.3 9.3-5.5 11.4-.7.9-.7 2.4-.7 3.3-3.6 8.8-7.4 16.4-10.4 24-2.6 7.4-6.2 15.2-9.5 22.8-1.2 3.1-3.6 8.8-5 9.7-.5 0-.5 1.4-.7 1.7-1.4 2.6-2.4 5.5-3.6 7.8-.7 1.7-1.9 2.6-2.6 4.3-1.2 1.4-2.1 4.5-2.4 5.5 0 .9-.9.7-.9.9-1.9 2.6-9.5 16.1-11.9 16.9-.2 0-.5 1.7-.7 1.9-1.7 2.1-3.6 4.5-5.2 5.9-2.1 3.1-5.5 7.1-7.8 7.8v1.4c-.9.5-.7-.7-1.4-.5l-1.2 1.2c.7-10.9 1.9-22.1 2.6-31.6v-.5l.7-.7v-8.1c-.2.2 0 1.4-.2 1.7-.5.2-.5.5-.5.9 0-3.8.7-7.4.7-10.9.2-5.5 1.2-14.5.7-17.6-.2-.9.5-1.7.5-2.6-.2-4.3.2-7.8.5-12.3.2-5.9-.5-12.6-.2-17.8l.7-4.3c.2-6.6 0-26.8-.2-31.6 0-.9.2-1.9.5-2.8 0-.5-.7-.9-.7-.9-.2-5 .5-8.3.7-12.1 0-1.4-.7-2.8-.5-3.6.2-5.5 1.2-11.2 1.2-16.9 0-.9-.5-1.7-.2-3.3-.2-.9.2-1.7.2-2.8 0-.5-.7-.7-.7-.7v-.7h.7c-.2-.5-.5-1.2-.2-2.6.2-1.7.7-3.6.7-5.5 0 .2-.7-.5-.7-.9-.5-1.9.5-4 .7-5.2 0-.7-.9-.9-.9-.9 0-7.8.5-4.3-.2-6.2v-14c-2.4-14-3.8-25.4-18.3-21.6-.5 0-1.2 1.9-1.4 1.9-1.7.9-5-4.3-5.2 1.9-1.3.7-2.5.7-3.9 1.5-2.1 1.7-6.6 4.3-7.6 4.7L26 19.4c-.7.9-1.7 1.2-3.1 1.7-.7.7-1.2.7-2.1.9-1.2.7-2.4 2.6-3.3 3.1-.7.5-1.7-.5-2.1-.2-.2 0-.7 2.1-1.4 2.1-.2.2-1.4-.5-1.9-.5-.5.2-.9 2.1-1.4 2.1-.5.5-1.4-.5-2.1 0-.2 0-.7 1.7-1.4 1.9 0 .5-1.2-.2-1.9-.2-.5 0-.9 2.1-1.2 2.4-1.9 1.4-4.5 1.7-2.8 5.2 2.4.5 4-1.2 5.7-2.6 2.8-2.1 5.5-3.6 7.8-4.7.9-.2 1.4-1.7 2.1-1.9 1.2-.5 2.1-.2 3.3-.9l2.4-1.9c1.4-.7 3.6-1.2 5.5-2.6.9-.5 1.4-1.4 2.4-1.9.9-.9 2.1-.2 3.3-.7.7-.7 1.2-1.7 2.1-2.1 2.6-1.2 4-1.7 5.7-2.6 3.6-2.4 3.6-.9 5 2.1.2 0 1.4.5 1.7 1.4 1.4 3.6-.2 6.2 0 9.3 0 0 .9 0 .9.2.5.2-.5 2.1-.2 2.4.5 2.1.2 3.3.2 5.7-.2.9.7 1.2.7 1.7.2.9-.2 2.1-.2 3.3v13.3l-.5 5c0 1.4-.5 2.8-.5 4.3 0 1.4.9.9-.2 1.9-.7.2.7.9.7.9-.2 5.7-1.2 11.4-1.4 17.3L46.9 97c-.2 2.8.2 3.6.2 4.5 0 3.1-.7 5.7-.9 7.8-.2.7.5.9.7.9-.2 3.1-.9 5.7-.9 7.8-.2.5.7 13.1.7 13.1 0 2.6-.7 5.5-.9 6.9 0 .7.7 1.4.7 1.2 0 3.1-.7 5.7-1.2 7.8.2.7.9.9.9.9-.2 2.8-.7 5.2-.9 6.9-.2.7.7.9.7.9 0 4.7-.7 9.3-.9 13.3 0 4.5.2 7.8.2 12.1-.3 16.8-1.3 34.9-2.2 50.5 0 .7.7.9.7.9-.7 6.6 3.3 19.9 11.4 20.9.5-.5 1.7-.7 2.1-.9.9-.9 1.2-1.9 1.9-2.4 1.4-1.4 2.6-2.1 3.8-3.1l2.4-.9c.7-.7 1.2-1.7 1.7-2.1.2-.2.7-.2 1.2-.7 1.4-1.2 3.3-5 4.5-6.6.7-.9 1.7-.5 2.1-.9.5-.5.7-1.7.9-2.4 1.4-2.6 4.3-6.2 5.5-6.4.2 0 7.4-11.4 7.6-11.4 1.7-2.1 2.6-6.6 4.5-7.6.2 0 .5-2.8.7-3.1.2-.7.9-.5 1.2-.7 1.2-2.8 2.8-5.2 3.6-7.1 0-.9.7-.5.7-.7.7-1.2.5-2.8 1.2-4.5.2-.5.9-.5.9-.5 1.4-3.1 2.1-6.9 3.8-8.1 1.9-1.9 1.2-5.7 3.1-6.4.5-.2.7-1.4.7-1.7.2-1.2 1.2-1.9 1.2-2.4.5-.7-.2-1.2-.2-1.9 0 0 .7-.2.7-.5.7-1.2.7-1.2 1.4-1.9.2 0 .2-1.4.5-1.4l1.9-5.2c.5-.5.5-1.4.7-2.4 2.4-5 5.5-11.4 6.4-15.7.2-.7.9-.5 1.2-.5 1.7-2.8 1.4-5 2.6-8.5 1.9-5 4.5-10 5.9-13.8 2.4-5.2 5.2-13.8 6.9-17.6.5-.9.9-2.8 1.2-4 0-.7-.7-.9-.7-.9 0-.9 1.2-1.2 1.2-2.4.9-2.6 1.2-5.2 2.6-5.9.5 0-.5-2.6-.2-2.8 0-2.6 1.9-3.8 2.8-5.5 1.2-2.6.9-3.1 2.1-4 1.7-1.9 2.8-6.9 4-9.7.7-1.4.9-2.1 1.2-3.1.2-.5.5-1.2.5-1.4 1.7-4.5 3.8-8.8 5.2-12.8l4.3-11.4c.7-1.4 1.2-1.4 1.7-2.4 1.7-4.5 11.9-24.5 11.2-26.4.5-.5 1.2-.5 1.2-.7 1.2-2.4 2.1-4.5 1.9-7.4-.2-1-.9-1.2-1.8-1.7zm24.4 86.4c2.4-1.9-.2-5-1.2-7.6 1.9-1.9 1.7-5.7 2.1-8.5-2.4-2.4-2.1-1.7-6.4-1.2-5.6 5.4-2.5 17.1 5.5 17.3zM370 148.8c.9-.7 1.4-2.6 2.6-3.1.5-.2 1.4.5 2.1.5.2-.2.9-1.9 1.4-1.9.5-.5 1.7.2 2.4 0 .2 0 .7-1.7 1.2-1.9 2.1-.9 5-1.9 7.1-3.1 2.4-1.4 4.3-3.6 6.2-4.5 2.6-1.4 5-.9 7.1-2.1 5-2.6 9.3-5.2 14.5-6.6 3.6-.7 4-1.7 5.9-1.7l-.9-1.2c3.8-.7 10.4 0 10.4-4-10.2 0-10 1.4-18.5 3.8-1.4.5-2.6 1.4-4.5 1.9-.7.2-1.2 1.9-2.6 1.9-.9-.2-.5.5-.9.7-1.9.7-3.1-.2-4.7.5-.5.2-.9 1.7-1.2 2.1l-2.6.5-14.5 7.6c-1.9.9-3.8 1.4-5.9 2.4-.7.5-1.7 1.4-2.6 1.9-.2.2-1.9.7-2.4.7-1.2 0-.2.5-1.2.9-2.4 1.2-3.3 1.2-4.7 2.4-.2.2-1.9-.5-2.1-.2-.7.2-1.7 1.4-2.6 1.9-5.7 3.1-15.2 5.5-21.8 7.8 0-9.5.9-21.6 2.4-27.3.9-4.5.7-7.6 2.1-8.8.2-.2-.2-1.9 0-2.1 1.2-2.8 2.1-4.7 0-7.6-2.6-2.8-9.7-2.4-12.1.9-.9 1.4-1.9 1.9-3.3 3.3-.9.9-1.9 2.1-3.3 3.3-2.1 1.9-7.4 4.5-7.6 6.6 0 1.7-4.7 5.7-5.5 6.4-2.4 2.4-5 4.5-7.8 6.6-1.7 1.2-4.5 2.1-6.4 3.1-.7.7-1.2 1.9-2.1 2.1-1.4.7-2.1 1.7-4.5 1.4.9-10.2 3.8-18.3 10-23.3 3.1.5 5.9-.2 8.8 0 1.9.5 5.9 4.7 5.7 0-.7-1.7-1.9-1.7-3.6-2.1-.7 0-.9-.9-1.2-.9-3.8-1.4-7.4-.2-8.5 0-1.2 0-2.4-.2-3.6 0-2.7.5-4.2 1-5.3 1.7-1.6.3-3 .7-3.7 1.2-.9.7-2.1.9-3.6 1.7-3.3 2.1-5.5 3.3-7.8 5.2L273 131l-7.6 5.7c-.7.5-1.4.7-2.4.9-1.9 1.2-3.6 4.3-4.3 4.7-2.1 1.4-2.4.9-3.3 2.1-.2.5-3.3 2.6-4.3 3.6-3.6 2.8-5.9 4.7-9 7.6-1.7 1.4-3.1 3.8-5.5 5.2-1.9 1.7-4.3 2.8-6.4 4.5-3.6 2.6-7.6 6.2-11.9 8.8-1.4.7-2.1 1.4-3.6 2.1-3.8 2.8-7.1 3.1-13 1.2 1.2-2.1-.9-5.9-1.2-7.6-.2-4.3 1.2-5.2 1.2-7.6 0-.9-1.2-1.2-1.2-1.4-.2-1.4 1.2-2.4 1.2-3.1 0-1.2-1.2-1.4-1.2-2.1.2 0 1.2-.9 1.2-1.2v-2.1c.2-7.6.9-15.9 0-23-.7-4.3.2-10.2-6.6-9.7-.2.9-1.7.9-3.3.9-.7 4.3-2.1 8.5-3.1 13.3-1.2 4.7-1.7 10.2-2.4 15.2-1.2 10.4-2.6 19.9 0 28.5 3.1 3.8 7.8 3.8 13 4.3 2.4.5 3.8 1.2 5.7 1.2 1.2 0 2.1-.9 4.3-1.2 1.7-.2 3.8.5 5.5 0 .5 0 1.7-1.9 2.1-2.1 1.4-.7 2.4-.5 3.3-1.2 1.9-.9 2.8-3.1 4.5-4.3.7-.7 1.2-1.7 2.1-2.4.9-.5 2.4-.2 3.3-.9 1.9-1.7 2.6-3.8 4.3-5.5.9-.7 2.6-.5 3.3-1.2.7-.5 1.4-1.4 2.4-1.9 5-4.5 9.5-9.5 14.2-13.3 3.6-2.8 7.4-6.6 10.9-9.3.9-.7 4.3-3.8 5.5-4.3 2.4-1.7 3.1-1.9 4.5-3.3 0-.2 1.7-1.2 1.9-1.4.7-.5 1.4-.2 4.3-3.3.7-.2 1.4-1.7 2.4-2.1.2 0 .4 0 .5.1-1 1-1.9 2-2.9 3.2-.9 1.2-1.9 2.6-2.8 3.3l-5 11.4c-.5 3.1-1.9 6.9.2 9.3 7.4 1.4 10 3.1 17.6 1.2 2.1-1.7 3.1-5.7 4.3-6.6.7-.2 4.5-.9 4.5-.9 2.6-.2 2.1-3.3 3.3-4.5.7-1.2 4.5 0 5.2-1.2-.2-3.8 3.8-4.5 5.7-6.4.9-.9 1.2-2.4 1.9-3.3 1.2-.9 2.8-1.4 3.6-3.3 2.1-.7.2-5.5 4.3-4.3-2.6 10-4.7 24.9-2.1 37 4.3 2.6 9 5.2 14.2 4.5 2.1-.5 3.3-1.7 5.5-3.3.7-.5 1.2-1.9 2.1-2.1 1.2-.7 2.4-.7 3.3-1.2 1.4-.7 2.8-.7 4.3-.9 2.1-.5 2.8-1.4 4.5-2.4 2.4-.9 5.5-1.9 6.9-2.8 2.4-1.2 3.8-2.4 5.2-3.8 0-.2 1.2.5 1.9.5zm147.7 9.2c1.9 2.8 1.9 3.6 4.3 4.3 1.4.2.5.9 1.2 1.2.7.5 1.4 1.7 2.1 2.1 2.8.5 6.9-1.9 7.6-2.1 1.7-.2 2.6-.9 3.3-1.2 2.8-.7 3.3-.9 5.5-3.1 2.1-2.1 3.6-5.2 4.5-6.6.5-.7 1.7-1.7 2.1-2.4.7-.5.7-1.4.9-2.1l2.4-1.9c1.2-1.7 1.2-3.1 2.1-4.5.5-.5 1.9-.5 2.1-1.2.7-.9.5-2.4 1.2-3.1 1.4-1.7 4.3-2.8 4.3-4.5.2-2.4 4.5-4.7 5.7-5.5.2-.2-.5-1.9 0-2.1.9-1.7 2.1-3.1 3.1-4.5 2.6-3.1 5.5-4.7 7.8-7.6 2.1-3.1 3.3-6.9 5.2-9.7 1.4-1.9 3.8-3.8 4.7-4.5.7-.5.9-5.9 1.9-2.1-1.7 7.6-1.9 15.2-3.1 23-1.2 7.6-2.8 15-3.6 22.8-.5 11.2-.9 18.3-1.9 27.3-1.9 17.8-3.8 37.5-1.2 57 3.8 1.2 6.6 4.7 10.7 4.5 3.1-.5 3.1-2.6 6.9-5.5 2.4-1.9 4-2.8 5.5-4.5.2-.2 1.9.2 2.1 0 .2-.2-.2-1.7 0-2.1 0-.2 1.9-.7 2.4-.9 0-.5.9-1.9.9-2.4 0-1.4 2.6-3.3 3.1-4.3 1.2-1.4 2.8-2.4 3.6-3.3.2-.5-.5-1.7 0-2.4.2-.7 2.1-.7 2.1-1.9 0-1.9 3.1-4.3 3.1-5.7.2-1.9 2.4-2.6 2.4-4.3 0-1.4 2.1-2.4 2.1-3.8s.9-.5 1.2-1.2c.9-1.4.7-2.8 1.7-4 .2-.2 1.9-.7 2.1-.9.5-.2-.2-1.9.5-2.1.7-1.2 2.6-2.1 3.1-2.8 1.2-1.7.9-3.6 1.9-4.5h.9c.2 0 0-1.7 0-2.1.5-.5 1.9-.2 2.4-.9 2.1-2.4 4.3-7.1 7.1-8.1v-.2c1.2-.9 3.6-3.8 4-4.7 2.6-2.8 5-3.8 6.4-6.9 1.4-1.2 4.3-2.1 4.7-3.6.5-1.9 6.2-4.3 7.1-5 3.1-2.1 8.5-7.4 10.9-8.3.5-.2.2-1.9.7-1.9.2-.5 1.4.7 2.1.5.9-.5.2-.9 1.7-1.9.4-.3 1.1-.7 2-1.2v.3c-.2 1.4-1.9 4.3-2.4 5.5-1.2 5.2-1.7 10.7-1.9 15.4l-1.2 5.5c1.2 4.7 1.2 12.6 3.1 14.2.5.2 0 1.7 0 2.1.5.5 1.9 1.4 2.4 2.1.9 1.9.2 6.2 3.3 5.5.5 3.6 5 1.9 7.6 2.4 1.2.2 1.9.7 3.1.9 3.6.9 3.8.7 4.5 0 .9-.9 3.1.9 3.1.9.9.5.9-.9 1.2-.9 1.7 0 3.8.5 5.5 0 1.7-.5 4-.5 6.4-.9.7-.2 1.4-.9 1.2-.9 5-1.2 6.2-1.4 7.8-3.6.2-.2 1.7.5 2.1 0 .5-.5.5-2.6 1.2-3.3.2-.2 1.9.5 1.9 0 2.1-1.7 5.2-4.5 7.1-6.4.5-.5 1.7.2 2.1 0l1.2-2.1c.9-.9.7-2.4 1.9-3.6 2.4-2.1 5.7-3.3 7.6-5.5l2.1-2.8c.5-.2 1.7-.5 2.4-.9.7-.7.2-2.1.9-3.1 1.2-1.9 3.3-1.9 4.3-3.6 1.7-1.9.7-2.1 2.4-3.6 4.5.7 6.2-5.2 7.6-5.5 1.2 0 .5-.7 1.2-.9 1.9-1.4 6.9-6.4 7.8-6.4 2.1-.2 1.2-.5 1.9-1.2.2-.6 2.3-1.3 3.2-1.5-.4 4.4-1.3 8.3-1.3 12.9.2 3.1.9 5.9.9 8.8.2 4.5-.5 8.8-.5 13.3.2 1.4.9 2.1 1.4 3.1.7 5.5-.5 10.4.5 14.2h.9c.2 0-.5 10.4-.5 10.4 2.6 7.1 5.2 9.7 5.5 18.3 2.6.2 3.8 3.3 5.5 3.3.9 0 .9.9.9.9 3.1 1.2 7.6-.2 11.6.5 3.8-3.1 7.6-5.5 10.2-8.5.9-1.2 2.6-2.1 3.3-3.3 1.4-1.9 1.4-3.3 2.4-5.5.2-.2 1.9-.2 2.1-.9l.5-.5c3.1-2.1 4.7-4.5 6.4-6.6 0-.5.7-.7 1.2-1.2.2-.7 11.4-9 12.1-10 .5 0 2.4-.7 2.6-1.2 1.2-.9 1.2-2.8 2.6-3.6.5-.5 1.9-1.2 2.6-1.9.2 0 4-4.3 4-4.5.7-1.7 2.8-2.6 3.6-3.8.2-.2 1.4-1.2 1.7-1.7.5-1.4 2.4-.7 3.3-1.4 2.6-3.1 7.1-5 8.3-8.3 1.4-.9 4.3-1.7 5-3.1.7-2.1 6.2-4.3 7.1-5 3.3-1.9 11.9-10 14.5-11.2.2 0 .2-2.1.5-2.6.5-.2 1.7 1.2 2.1.7.9-.2.2-1.9 1.7-1.9 5.5 1.7 13-9.5 9.3-7.6-2.1 1.4-3.1-.5-5 .9-4.3 1.7-8.3 5.2-11.2 7.1 0 .2 0 .7-.5 1.2-.2 0-1.4-.5-1.7-.2-2.4.9-8.8 8.5-10.9 10-2.1 1.4-4.5 2.4-6.6 3.6-3.1 1.4-5.9 5-8.3 5.9-.5.2 0 1.9-.5 1.9-.9.9-2.8.2-4 1.2-1.9 1.7-5.5 5.2-6.4 6.2-1.9 1.9-5.7 5-7.1 6.4-.9.7-1.4 1.9-2.4 2.4 0 .5-.9.7-.9.9-1.7 1.2-3.1 1.9-3.6 2.8-.5 1.2-.7.5-1.2.7-1.9 1.4-3.8 4.3-5.2 5.2-2.4 1.4-12.8 13.1-17.6 16.1l-1.2.7c-.2 1.2-.7.5-1.2.9-1.9 3.6-3.1 4-5.7 6.6-3.1 2.6-5.2 6.6-10 5.9-1.4-4.5-1.4-10.4-1.9-16.4-.2-5.7-1.7-11.2-1.9-17.3 0-1.2 0-2.4.2-3.6.7-3.8.7-2.8.2-6.4-.9-7.8.5-14 .5-21.8 0-2.1-.9-3.3-.9-4.5-.2-4.3 1.7-4.3 0-5.2v-2.4c-1.2-14.2 1.2-31.8 2.4-42.5.5-4.5-.5-9.3.2-13.1 0 0 .9-.5 1.2-1.2 0-.7-.2-1.7 0-2.4.9-2.4 2.6-4 4.7-6.2 1.4-2.1 3.6-3.6 4.3-4.5.7-.9.9-2.8 1.2-4.3.7-2.8 4-6.9 4.5-8.5.2-.7-.2-1.4.2-2.4 1.7-5 4-10 3.3-14 0-1.4-1.4-5-3.1-6.6-1.4-1.9-4.7-4.3-6.2-4.5.2.2-1.2.9-1.4.9-3.8 1.2-2.8.2-4.5 2.4-.2 0-1.4-.5-2.1 0-3.6 2.4-3.8 5.9-5.7 9 0 0-.9 2.4-.9 2.6-.5.7-1.9 1.7-1.9 2.1-3.8 9.7-4.7 20.9-6.4 29.4-.9 6.2-2.1 6.9-2.4 13.8-3.3 10.2-3.1 12.8-2.6 14.5-2 10.1-1.3 20.4-1.8 30.1-1.9 1.1-3.7 2.3-5.3 3.4l-3.1 2.1c-2.1 1.2-2.1 2.1-3.3 3.3-.5.5-3.3 1.7-3.8 1.9-.9.7-1.2 2.6-2.1 3.3-.9.7-2.1.2-3.3 1.2-.9.5-1.4.7-2.1 1.4-2.1 1.9-3.3 3.3-5.5 5.5-1.7 1.7-4 3.6-5.5 5.5-1.7 2.1-2.4 3.1-4.5 5-.9.9-2.1 1.4-3.1 2.1-2.6 2.1-3.1 4.3-5.2 5.5-1.9 1.7-4 4.5-5.5 4.5-2.6 0-6.2 5.5-8.1 5.5-1.2.2-.5.7-1.2.9-3.1 2.1-5.9 2.8-8.5 3.3-4.5.9-11.9 1.7-15.4-2.1-2.6-6.6-2.8-11.4-3.8-18-.2-1.4-.7-1.9-.9-3.6-.9-4 .2-8.5.2-13.5 1.7-2.4 4.3-4.7 5.7-6.4 1.7-1.9 1.9-4 3.1-5.5.7-.9 1.7-.7 2.4-2.1.7-2.1.2-3.8 0-6.6-6.2-1.9-12.1-1.2-14.5 0l-2.8 2.1c-5.9 3.1-13.9 7.7-15.7 9.1-.2 0 0 .9-.2.9-.2.2-1.9.7-1.9.9-2.1 1.2-5.5 4.3-7.6 5.7-2.1 1.4-4.5 2.4-6.6 3.8-2.8 1.7-5.9 5-8.1 6.2-.5.2 0 1.7-.5 2.1-.9.5-3.8 3.6-5 4.5l-1.7 1.2-4.5 6.2c-1.2 1.9-3.1 3.6-4.7 4.7-.2 0 .2 1.7 0 2.1l-2.4 1.9-2.6 3.1c-1.2 1.7-3.3 3.8-3.8 5.2 0 1.2-.7.5-.9.7-1.4 2.4-1.7 3.6-2.6 5.5-.5.5-2.4 1.4-2.8 1.9-.7 1.4-.2 3.1-.9 4.3-.2.5-2.1.9-2.1 1.2-.5.2 0 1.7 0 2.4-.5.5-1.7 1.2-2.1 1.9-3.1 4.3-6.2 8.8-9 11.2-.2.2.7 1.7 0 2.1-.2.2-1.7-.2-2.1 0-.2 0-.7 1.9-.9 2.1-2.4 1.9-3.8 4.3-6.6 4.5.7-12.6.5-24.7 1.2-37.3 0-1.7.7-4 .9-5.5.7-5.2-.2-10.2 0-15.4.2-2.1.9-4.5 1.2-6.4.2-3.8-.5-7.4 0-11.2.5-5.9 2.6-12.3 3.3-18.3.2-4.3-.2-8.3 0-12.3.2-5.5 2.4-14.2 3.1-17.3.9-3.3.7-4.5 1.4-6.6.2-2.8.2-6.2.9-8.5 0-.2.9 0 1.2 0 0-.2.9-4.5.9-4.5 1.4-4.5 1.4-7.6 2.1-10.9.2-1.2 1.2-2.6 1.2-3.3 0-.9 1.2-.9 1.2-.9.7-3.8-.7-5.5.9-6.6.2-.2 0-2.8 0-3.3.2-.9 1.2-.7 1.2-1.2.9-3.3 1.9-7.1 2.1-10.7-5.9-.5-8.1 0-9.7 1.9-.7.9-.5 2.6-1.2 3.3-2.4 2.8-5 7.8-5.5 10-.9 3.8-.9 5.7-2.4 8.5-.5 1.9-1.7 3.6-2.1 4.5-.2 1.2-.9 2.1-.9 3.3l-1.2 3.3c-.2 1.4-.9 2.1-.9 3.1-.5 1.4-.9 2.4-1.2 3.6-.7 2.6-1.2 2.8-2.1 4-1.7 2.1-2.1 4-3.3 5.7-.7.7-1.7 1.2-2.1 2.1-.7.7-1.9 1.4-2.4 2.1-.5 1.4-.2 2.4-1.2 3.3-.2.7-1.4 1.2-1.9 2.1-.2.5-1.2 1.9-1.2 2.1 0 1.4-.7.5-1.2 1.4l-5.5 7.6c-2.4 2.8-4 5-6.4 7.6-1.9 1.7-3.6 3.3-5.7 4.3-4.7-3.3-8.3-9-14.2-7.6-.5.2-.9.9-.9.9-1.7.5-3.8-.5-5.5 0-.5.2-1.7 1.9-2.1 2.4-2.4 1.4-4 1.9-5.7 3.1-1.4 1.4-4.3 2.8-4.3 4.5 0 1.4-2.4 1.9-2.4 3.1 0 1.4-.7.7-.9 1.4-4.7 6.9-9 18.3-8.8 27.3 1.3-.4.8.6 1.3 1zM808.3 52.2c-.2-.9-.9-1.2-.9-2.1-.2-1.9.7-2.1.9-3.6.7-2.8.7-6.4 1.7-9.7l.9-5.5c.5-.5 1.9-.7 2.4-.9.5-.9-.5-2.6 0-3.1 1.2-1.7 3.6-1.7 3.3-3.6 1.7 1.2 4.7 1.7 5.5 3.6 2.1 7.6-1.7 16.6-5 24-.2.2.5 1.9-.2 1.9 0 .2-.9 0-.9 0-.2.7.2 2.1 0 2.4-.2 0-.9-.2-1.2 0 0 .5.5 1.9 0 2.1-.2.2-1.9.7-2.1.9-1.9 2.4-2.4 5.9-5.5 5.5.7-1.9.9-5 1.2-7.6-.1-1.5.2-3.4-.1-4.3zM701.8 122c2.1-.5 1.4 2.1 3.1 2.1v3.3c-3.6 2.4-3.8 7.8-8.5 8.5-1-6.8-.1-12.5 5.4-13.9zm-166.6 19.7c.7-3.3 1.9-5.9 3.3-8.8.7-1.9.2-3.8.9-5.5.2-.5.9 0 1.2-1.2 0-1.9 5.7-6.4 8.5-6.4 4.5 0 5.5 1.7 9 5.5.2 1.7-1.2 1.9-1.2 3.1-6.6 6.9-13.5 13.5-18.5 21.8-.9 1.2-3.1.7-3.3 2.4-2.3-2.4-.8-7.4.1-10.9zM322.2 408c-3.1 5.8-7.5 11.9-10.8 16.9-1.7 2.2-3.9 4.7-3.9 6.7 0 1.4-.8.3-1.7 1.1-1.7 3.1-3.1 5.3-5 6.7-.6.3-2.5 4.7-3.1 5.5-1.7 2.2-5.3 5.5-5.3 7.8-.3 1.7-.8.8-1.4 1.4-2.2 3.1-9.2 9.7-11.1 11.9-1.7 2.2-5.3 5.3-8 8-3.1 2.8-6.4 5.3-9.4 7.8-1.7 1.4-4.7 3.9-5.3 3.9-1.9 0-.8 1.1-1.7 1.1-3.1 1.7-3.6 2.5-5 3.9-1.7 1.4-6.9 2.2-8.3 2.8-.8.3-1.9 0-2.5 0-2.8-.3-8-2.8-11.1-6.7-1.4-1.9-1.4-5.3-2.5-6.4-.3-.3.3-2.2 0-2.5-3.9-12.5-1.9-34.4-1.1-49.7.8-22.8 1.4-44.4 2.5-64.9.8-12.8.6-22.8 0-32.7-.3-4.4 0-10 0-15.5 0-2.2 1.4-2.2 1.1-4.2 0-.8-1.1-1.4-1.1-1.4-.3-4.2 0-6.7 1.1-7.5.8-.6 0-5.8 0-6.7l1.7-14.7c.3-4.4-.6-6.1 1.4-7.8.3 0 0-1.9 0-2.2 1.1-8.9 2.2-26.6 6.7-30 .3-.3 0-2.2 0-2.8.8-3.6 2.5-2.5 2.5-6.7.3-1.1 1.1-.6 1.4-1.1.8-1.7.8-5.8 1.4-6.4.3-.6 2.5-1.1 2.8-1.4.8-1.1.3-2.8 1.1-3.9 1.4-1.9 3.9-3.3 5.5-5.3 3.1-3.6 6.1-7.2 9.4-10.3 14.4-14.4 35.8-25.3 52.4-5.3 2.5 5.8 3.9 8.3 8 15.3 4.2 2.2-1.1 15 6.7 13.3 4.4-1.4 1.1-5.8 0-7.8-.3-2.2-.3-2.2-1.1-3.9l-1.4-3.9c-.6-1.4.3-1.7 0-2.8 0 0-1.1-1.4-1.4-1.4-1.4-1.4-1.1-2.5-2.8-3.6-.3-.3 0-2.2 0-3.1-1.1-3.6-5.5-8-8-10.3-2.5-1.9-6.4-5.3-11.9-6.4-2.2-.3-4.7.3-6.9 0-.3-.3-1.7-1.4-1.4-1.4-6.7-.8-10.3 1.1-13.3 1.4-1.4 0-.8 1.1-1.4 1.4-3.3 1.1-5.8 1.4-6.9 2.5 0 .6-1.9-.6-2.2 0-2.2 1.4-3.3 3.6-5.5 3.9-1.7 0-.6.8-1.1 1.1-1.7 1.1-4.4 1.9-5.5 2.8-1.9 1.4-2.5 2.8-4.4 4.2-1.1.8-2.2 2.8-3.6 3.9-1.7 1.1-4.2 1.1-5.5 2.2-.6.8-.8 2.2-1.4 2.8-2.2 3.6-4.2 5.3-6.7 8-2.2 2.2-9.4 8.6-9.4 10.3-.3 2.8-2.5 3.9-4.2 5-.3.6.3 2.2 0 2.8-.3.6-1.9 1.7-2.8 2.5-.8 1.7-1.9 4.4-2.5 6.7-8.9 21.4-14.4 51.9-16.1 78.2-.8 10-1.1 17.2-1.4 25.8-.8 13.3.3 29.4-1.4 40.8 0 .8-1.4 1.1-1.4 1.1-.3 1.1 1.4 1.4 1.4 1.4-.6 8.9-1.7 17.8-1.4 27.5.8 21.4 1.4 41.3 5.5 56.1.6 1.9.8 5.3 1.1 6.4l2.8 1.4c.8.8.8 3.1 1.4 3.9 1.1 2.5 3.3 3.9 4.2 6.4 4.2.8 8.3 3.9 13.3 5.3 7.2 1.9 17.2 3.1 21.4 1.4 4.4-3.9 12.5-7.5 19.1-13l8-7.8c2.8-2.8 5.8-5.3 8-8 2.5-2.8 3.3-5 5.3-6.4.6-.3 3.6-3.6 3.9-3.6.6-.6 2.2-1.4 2.5-1.7.8-.6 3.3-5.3 3.6-5.5 1.7-1.9 2.8-5.5 3.9-6.7.6-1.1 3.3-4.4 3.9-5.5 1.4-1.1 3.3-2.5 4.4-3.6 0-.8-.6-2.2 0-2.5 0-1.4 2.5-1.4 2.5-2.8.3-1.7 1.1-.8 1.4-1.4 2.2-3.9 3.9-6.9 6.7-9.4.6 0-.3-1.7 0-2.5 0 0 2.2-.8 2.8-1.1.3-.3-.6-2.2 0-2.8.8-.8 2.8-.8 2.8-2.5 0-1.4.8-.6 1.1-1.1 1.4-2.5 1.9-4.7 2.8-5.5.6-.3-.6-1.9 0-2.5.6-.3 1.1-.3 1.4-1.1.6-1.9 1.1-4.4 1.4-6.7 0-1.1 1.1-1.4 1.1-2.5 1.1-3.6-.8-5-1.1-6.1-2.1 4.5-6.8 14.2-11 21.7zm125.9-59.1l.6.6c.3 0 0-.3-.6-.6zm481.5-8.3c-.3.3-1.9-.6-2.5-.6-.8.3-1.9 1.7-3.1 1.9-3.1.8-7.5 1.1-9.4 1.9-.8.3-1.9 1.7-3.1 1.9l-6.4 1.9c-.3 0-.3 1.1-.3 1.1 0 .3-1.9-.6-2.5-.6-.8 0-2.8.8-3.6 1.4-1.7.6-1.4-.8-2.8 0-.6.3-3.1.8-3.3 1.1l-1.7.3c-1.1.8-2.5 0-3.9.6-6.7 2.2-6.7 1.1-13 2.5-1.4.6-2.5-.3-3.9-.3-.8 0-1.9.6-2.8.6-.6.6-2.5-.8-3.1-.8-.6.3-5.3 0-5.3 0-1.1 0-.8-.8-1.1-.8-5.5 1.1-12.8 0-19.1-3.3-.8-.3-16.1-7.2-13-7.8-3.3-.6-7.8-8.9-9.7-8.9-1.4 0-.6-1.1-1.1-1.4-5-2.2-8-6.1-10.3-3.6-1.7 1.4-9.7-2.2-8.9 3.6.6 4.7 4.7 6.1 7.5 7.8 2.2 1.1 5 .3 6.4 1.4 1.4.6 3.6 4.2 3.9 5 .8 2.2.3 8-1.1 12.8 0-.3-1.4 1.1-1.7 1.4l-1.1 2.5c-1.9 5.3-1.7 6.4-3.6 8.9-2.2 2.5-2.8 4.4-4.2 6.4-.3.8-1.7 1.9-2.5 2.8-1.7 1.9-2.5 4.7-3.6 6.1-1.9 2.2-5 3.9-6.4 5.3-3.9 2.8-8.9 7.8-13 6.4-.6-10.8-2.5-21.9-1.4-31.9.3-1.9 1.9-5.5 2.8-6.4.3-.3-.3-2.2 0-2.5 1.9-5.8 5-11.1 6.4-15.5 1.7 0 1.9-1.4 3.9-1.1.3-1.7 1.9-2.8-1.4-2.8-1.9-3.1-5.8-.6-7.8 0-.7.2-1.5.5-2.2.8-1.6-1.9-5.1.8-7.8 3-.1 0-.2 0-.2.1s0 .1-.1.2c-1.2 1-2.1 1.8-2.7 2 0 0-2.5 1.7-2.5 2.2 0 0-.8-.3-1.4-.8-.3.6-4.7 5.3-5 5.5-1.1.8-2.5-.8-3.3.8-1.4 1.9-2.2 5.5-4.4 4.2l-.3-.8c-8.6 4.7-21.1 14.2-30.2 20.3-1.1.3-.6.8-1.7.6-1.4-.3-3.3 2.5-5.3 4.2-2.2 1.1-4.7 1.7-6.4 2.8-.6.8-1.9 1.9-2.5 2.2-.3.6-10.3 7.8-17.5 12.8l-1.4-8c-2.5-6.9-2.5-25.8-2.5-29.1-.8-3.1 0-6.7-.3-10-.3-5.3 1.7-10 .3-14.2 1.9.3.8-1.7 1.4-2.5.3-.3 2.2.3 2.5 0 .8-1.7 1.7-4.4 2.8-6.1l3.1-4.4c1.4-1.9 1.9-4.4 2.8-7.2.3 0 .3-1.9.6-2.2 0 0 .6-3.1.8-3.1.8-.6-.6-3.6-.3-4.4-4.7-1.7-8-2.2-12.5-.6-13.8 4-19.5 24-20.7 41-.2.1-.5.2-.7.3-2.5 1.4-3.1 2.5-4.4 3.9 0 .6-2.2 0-2.5.3-1.4.6-2.5 2.5-3.6 3.1-.8.8-1.4 2.8-2.8 3.3-1.7 1.1-4.4 1.1-5.8 1.7-.3.3-.6 2.2-.8 2.2-1.9 1.1-4.7 1.9-6.7 3.3l-7.2 5.5c-1.1.8-2.5 1.1-3.3 1.7-1.1.6-1.1 2.2-2.5 3.1-1.9 1.1-4.7 3.1-6.1 3.3-.6.3-.6 2.5-.8 2.5-2.2 1.4-4.7 1.7-6.7 2.8-1.4 1.1-1.4 2.2-2.8 3.3-.3.3-2.2 0-2.8 0-.6.3-2.2 4.2-2.8 4.4-1.9 1.1-10.3 7.2-11.6 8.6-4.7 3.9-8.3 7.8-12.8 10.3-1.7.8-2.8-2.5-5-5 .6-11.9-.6-23.9-1.1-31.9-.6-3.1 0-6.7 0-9.2-.6-1.9-2.8-4.4-2.8-5-.6-1.9-.8-4.2-1.4-5-1.1-4.4-1.1-6.4-2.5-7.8-.6-.3.3-1.9 0-2.8 0 0-1.1.3-1.4 0-.3 0 .3-1.9 0-2.2-.8-1.7-2.8-2.5-3.6-4.2-2.5-3.3-3.9-6.1-6.4-8.9-.6-3.9.8-9.2-1.7-11.4-2.5-.3-5-1.7-7.5-2.5-1.4 2.5-3.9 1.9-5 3.6-1.4 2.2-1.4 5-1.4 7.8.3 5 6.9 7.8 5 12.8l.4.4c-.6 0-1.2 0-1.6.1 0 0 0 1.1-.3 1.1-.3.3-1.9-.6-2.5-.6-.8.3-1.9 1.7-3.1 1.9-3.1.8-7.5 1.1-9.4 1.9-.8.3-1.9 1.7-3.1 1.9l-6.4 1.9c-.3 0-.3 1.1-.3 1.1 0 .3-1.9-.6-2.5-.6-.8 0-2.8.8-3.6 1.4-1.7.6-1.4-.8-2.8 0-.6.3-3.1.8-3.3 1.1l-1.7.3c-1.1.8-2.5 0-3.9.6-6.7 2.2-6.7 1.1-13 2.5-1.4.6-2.5-.3-3.9-.3-.8 0-1.9.6-2.8.6-.6.6-2.5-.8-3.1-.8-.6.3-5.3 0-5.3 0-1.1 0-.8-.8-1.1-.8-5.5 1.1-12.8 0-19.1-3.3-.8-.3-16.1-7.2-13-7.8-3.3-.6-7.8-8.9-9.7-8.9-1.4 0-.6-1.1-1.1-1.4-5-2.2-8-6.1-10.3-3.6-1.7 1.4-9.7-2.2-8.9 3.6.6 4.7 4.7 6.1 7.5 7.8 2.2 1.1 5 .3 6.4 1.4 1.4.6 3.6 4.2 3.9 5 .8 2.2.3 8-1.1 12.8 0-.3-1.4 1.1-1.7 1.4l-1.1 2.5c-1.9 5.3-1.7 6.4-3.6 8.9-2.2 2.5-2.8 4.4-4.2 6.4-.3.8-1.7 1.9-2.5 2.8-1.7 1.9-2.5 4.7-3.6 6.1-1.9 2.2-5 3.9-6.4 5.3-3.9 2.8-8.9 7.8-13 6.4-.6-10.8-2.5-21.9-1.4-31.9.3-1.9 1.9-5.5 2.8-6.4.3-.3-.3-2.2 0-2.5 1.9-5.8 5-11.1 6.4-15.5 1.7 0 1.9-1.4 3.9-1.1.3-1.7 1.9-2.8-1.4-2.8-1.9-3.1-5.8-.6-7.8 0-2.8.8-6.1 2.5-7.5 3.9-.6.3-2.2-.3-2.8 0-.6 1.1-.3 3.1-1.4 3.9l-6.1 10.3c-3.6 7.2-7.8 20.8-6.4 31.9.3 1.9 1.7 5.8 2.5 6.4 1.1 1.1.6 5.3 1.1 6.4.3.3 2.2-.3 2.8 0 .3.3-.6 2.2 0 2.5 1.7 1.4 5 2.5 7.5 3.9.6 0 .8.8 1.4 1.4.8.3 1.7 1.1 2.8 1.1 7.5 3.1 9.7-1.4 13.9-6.4 2.8-3.6 7.2-4.7 10.3-7.8 1.4-1.4 2.5-4.2 3.9-6.1 1.4-1.9 3.9-3.3 5.3-5.3 1.1-1.9 2.2-4.4 3.6-6.4.8-1.4.6-2.5 1.1-3.6.8-1.1 3.6-1.4 2.8-4.2 2.5-1.7-1.1-4.4 1.4-7.5 1.1-2.5 3.1-3.9 3.9-6.4 1.4-2.2 0-7.5 2.5-8.9 3.6-.6 7.2 4.4 11.4 4.4 3.1 0 8.9 5 10.3 3.3 3.1 0 7.5 1.9 10.3 2.5 1.1.6.8-.6 1.4-.8 1.9 0 2.5 1.1 4.7.8 3.1-.3 6.7 2.2 8.3 1.1.6-.3 2.2.8 2.8.6.8-.6 7.5-2.8 6.7-1.9.3-.6 2.2.6 2.2.3.3 0 .3-1.4.3-1.7.6-.3 1.9.6 2.5.6l6.1.6c3.9-2.8 4.4-.6 7.8-2.2 1.9-1.1 4.4-2.5 6.4-2.8 1.4-.8 2.8 0 3.9-.6.8-.3 1.9.3 3.1-.3l8-2.5c.8 0 2.2-1.7 3.1-1.9 1.7-.3 3.3 0 4.2-.3.8-.3 1.9-1.9 3.1-1.9 1.7-.3 3.9 1.4 5-.3l.7-2.8 3 2.8c1.9 3.1 3.1 6.7 3.6 10.5.8 1.9 0 4.7 0 7.5.8 4.2 2.2 5 0 6.4-.3.6.3 5.5 0 6.7 0 9.7-.3 21.9-1.1 27.7-1.1 8.9.8 15 1.1 21.9h15.5c4.2-3.6 3.3 0 7.5-3.1 3.6-2.2 6.1-5 8.3-7.2.6-.6 2.5-.6 2.8-.6.6-.3.3-2.2.6-2.5.8-.8 2.2-.8 3.1-1.9 2.2-2.5 8-7.8 9.7-8.9l3.9-4.4c.8-.3 2.5-.8 3.3-1.4.6-.6.6-1.9.8-2.5.3-.3 2.5.3 3.1-.3 1.1-.8 3.3-4.2 4.4-4.7 0-.3.8-.3 1.4-.8l1.9-1.7c2.2-1.4 5-3.6 6.7-5 1.4-.6 1.7-2.2 2.5-3.1 1.4-.6 3.6-1.9 4.7-2.8 1.4-.8 1.4-2.5 2.5-3.3 1.1-.6 3.6 0 4.7-1.1 1.1-.6 1.4-2.2 2.5-2.8.6-.6 2.5-.3 3.1-.3.3-.3.3-2.2.8-2.5 1.7-1.1 4.7-1.7 6.7-3.1 4.3-2.3 8.1-5.4 11.7-7.8l-.3 5.3c1.7 14.7 1.7 30.8 4.4 46.9.3 1.7-.6 4.2-.3 6.4-.6.6-1.1 1.1-1.1 1.4-.8.8-2.2 2.2-4.2 2.8-.8 0-4.2 1.7-4.4 2.2-.8.3-1.4 2.2-1.9 2.5-3.1 2.8-8.3 8.9-11.9 13.3-1.4 1.1-1.9 2.2-2.5 3.3l-.6.9c-.6 2.5-1.9 3.9-1.7 4.7 0 .3-.3.6-.3.8-.6 1.4-.8 3.3-1.1 5-.3 1.4-.6 2.8-.6 3.9 0 .3.3.6.3 1.1l1.4 6.7v1.1c.3 1.4 1.1 2.2 1.4 2.8l1.1 1.4c.6.8.6 1.7.8 1.9l.3-.3c0 .3-.3.6-.3.8.3.6 1.4 1.4 1.9 2.2 1.9 3.3 5 3.3 5.3 5.5 3.9.8 7.5 2.8 10.3 3.1 3.9.3 5 1.1 8.3.3 1.9-.3 6.4-2.2 8-3.9 2.8-1.7 3.6-2.8 4.7-3.9 1.1-1.9 1.9-4.2 3.6-6.7.3-.8 1.4-1.9 1.9-2.8 1.4-1.9.6-2.2.8-3.3 0-1.7.8-2.8.8-3.9.6-1.7 1.1-2.8 1.1-3.9 2.5-11.9.8-36.9-1.1-48v-.3c7.5-5.3 16.6-11.7 16.6-11.4l.6-.6c1.7-1.4 2.8-3.3 3.9-4.4 1.9-1.1 3.3-1.4 4.7-2.5 2.8-1.7 7.8-2.5 8.9-6.7 3.9-.3 6.4-2.5 9.4-4.7 1.1-.3 2.2-.8 3.1-1.7.8 0 6.1-5.8 6.7-6.4.8 0 2.8-.8 2.2-1.4 1.4-1.1 1.1 0 2.5-.6 4.7-2.5 13.3-8.3 18-11.1l2.6-1.9-4 6.7c-3.6 7.2-7.8 20.8-6.4 31.9.3 1.9 1.7 5.8 2.5 6.4 1.1 1.1.6 5.3 1.1 6.4.3.3 2.2-.3 2.8 0 .3.3-.6 2.2 0 2.5 1.7 1.4 5 2.5 7.5 3.9.6 0 .8.8 1.4 1.4.8.3 1.7 1.1 2.8 1.1 7.5 3.1 9.7-1.4 13.9-6.4 2.8-3.6 7.2-4.7 10.3-7.8 1.4-1.4 2.5-4.2 3.9-6.1 1.4-1.9 3.9-3.3 5.3-5.3 1.1-1.9 2.2-4.4 3.6-6.4.8-1.4.6-2.5 1.1-3.6.8-1.1 3.6-1.4 2.8-4.2 2.5-1.7-1.1-4.4 1.4-7.5 1.1-2.5 3.1-3.9 3.9-6.4 1.4-2.2 0-7.5 2.5-8.9 3.6-.6 7.2 4.4 11.4 4.4 3.1 0 8.9 5 10.3 3.3 3.1 0 7.5 1.9 10.3 2.5 1.1.6.8-.6 1.4-.8 1.9 0 2.5 1.1 4.7.8 3.1-.3 6.7 2.2 8.3 1.1.6-.3 2.2.8 2.8.6.8-.6 7.5-2.8 6.7-1.9.3-.6 2.2.6 2.2.3.3 0 .3-1.4.3-1.7.6-.3 1.9.6 2.5.6l6.1.6c3.9-2.8 4.4-.6 7.8-2.2 1.9-1.1 4.4-2.5 6.4-2.8 1.4-.8 2.8 0 3.9-.6.8-.3 1.9.3 3.1-.3l8-2.5c.8 0 2.2-1.7 3.1-1.9 1.7-.3 3.3 0 4.2-.3.8-.3 1.9-1.9 3.1-1.9 1.7-.3 3.9 1.4 5-.3l1.1-4.7c-1.1.3-3.1 0-3.9.3-.4.3-.4 1.4-.7 1.4zm-246.5-25.8c2.5 0 3.1-6.4 6.7-5.3 8 .6-5.3 14.7-5.8 19.4-3.2-1.1 1-10-.9-14.1zm-13.9 149.3c-.6 3.1-1.7 7.5-3.9 9.7-4.7-.6-10.3-.6-13.6-1.4-1.1-.3-1.7-3.3-3.9-2.5-.8-1.7-3.3-4.2-4.2-6.9 0-.3 0-.3-.3-.3l-1.1-3.3c-1.1-4.7-1.7-11.4-.6-17.8 0-.8 0-1.1.6-1.9 1.1-.8 2.8-1.9 3.9-3.3V435h.6c2.2-.6 2.2-2.2 2.8-3.3l.6-1.1h-.3c.3 0 .6-.3.6-.6 2.5-1.7 4.7-2.2 5.8-5.3l-1.1-.3c2.2-.8 4.4-2.2 4.4-2.5-.3.3-.6-.8-.3-.8.3-.3 2.2 0 2.5-.6.8-1.4 2.5-1.9 4.2-3.3 0 0 .3 0 .3-.3 1.9 16.6 4.4 35.8 3 47.2zm169.2-115.2l.6.6c.2 0-.1-.3-.6-.6zm233.9-174.2c3.6-6.9 8.9-34.1 7.7-39.7 0-4.9-2-10.5-4.9-13-5.3-2.8-8.1-8.5-13.8-8.9-4.1-.4-7.7 0-11.3 0-4.5-.4-6.5-2.4-9.3-2-1.6.4-2.4 2-3.6 2-2.4 0-1.2 1.6-2 1.6-1.6.8-4.1-.4-5.7 0-1.2.8-1.2 3.6-3.6 3.6-1.6 0-4.5 2.8-5.7 4.1-6.9 5.3-13.4 15.8-18.6 20.7-.8.4.4 2.4 0 3.6-.4.4-2.8.8-4.1 1.6-1.2 2-1.2 5.3-1.6 7.7-1.6 5.7-5.3 13.8-5.3 20.3-1.6 11.4-1.2 30.4 3.2 34.1.8 0 0 2.8 0 3.2 1.6 4.9 2.4 9.3 3.6 13.4 1.2 2.8 2.8 4.9 4.1 7.3 2 5.3 3.6 11.4 5.3 16.6 2.4 6.5 6.1 12.6 6.1 17 0 2.4-2 4.1-2 5.7-.4 1.6-1.6 1.2-2 1.6-.4 1.6-.4 13.8-3.6 24.3-4.9 12.6-9.3 32.4-14.6 41.4-1.6 2-1.6 2.8-2.4 5.7 0 1.6-1.2 1.2-1.6 1.6-3.2 8.1-6.1 19.5-9.3 24.3-1.2 1.6-1.2 3.2-2 5.7-.8 3.6-2.4 6.1-4.1 9.3-2 5.7-4.9 11.4-6.9 15-1.2 1.6-.8 3.2-2 5.7-.8.8-.8 10.1-1.2 11.4-2.8 4.9 1.2 6.1.4 10.1 0 1.2-1.6 3.6-1.6 4.9 0 2.4.4 6.5 1.2 11.8 0 5.7 1.2 10.1 1.2 12.2s1.2 3.6 2 6.1c.8 4.1 4.9 5.3 11.3 5.3 6.9 6.5 16.2 2.8 19.9 2.4s21.5-8.9 22.7-10.1c1.6-1.2 4.5-.4 5.7-2 3.2-2.4 7.7-6.9 11.3-10.9 2.8-3.2 6.1-6.9 7.3-9.3 2.8-4.1 4.9-5.3 7.7-7.3.4-.8-.8-3.2 0-4.1 3.6-4.1 6.9-4.9 7.3-10.9 0-2 1.6-1.2 2-2 1.6-4.5 2.4-10.1 4.1-11.4 0-.4-.4-2.8 0-3.6 1.2-4.1 2.4-7.3 3.2-10.9.8-3.6 3.2-7.3 4.1-11.4.8-4.1 1.6-8.1 1.6-11.4 1.6-17.4-2.8-33.2-4.1-44.6 0-1.6-1.6-1.6-1.6-2-2-9.3-3.2-17.4-5.3-25.9-.4-.8-1.6-.8-2-2-4.5-18.2-8.9-31.2-15-44.6 2-.8 1.6-1.6 2-4.1 0-2 1.2-.8 1.6-2 4.1-7.3 6.9-15.8 9.3-23.9.8-2.4 2-2.8 2-5.7 0-1.6 1.6-1.6 2-1.6.4-2.4-.4-5.3 0-7.7 0-2 1.6-1.2 2-2 1.2-4.9 1.2-7.3 3.2-9.3.4-.4 0-2.8 0-3.6.4-3.2 0-4.1 1.6-5.7 1.2-.4 0-2.8 0-4.1 1.3-1.2 3.3-2.4 4.1-3.6zm-35.2 229.5c0-.4-2 1.2-2 2.4-2.4 6.9 1.2 11.4-2 14.6-2 1.6.4 5.7-2 7.3 0 .8.4 3.2 0 4.1 0 0-1.6 2.8-1.6 3.6 0 0-1.6 2.8-1.6 3.6-.4.4-1.6 2.8-2 3.6-1.2 2-4.5 3.6-5.7 5.7-1.6 1.6-2 2.4-3.6 3.6l-10.5 8.9c-2.4 3.2-12.6-.8-16.6 2.4-1.2.8-8.9-4.5-13-5.7 0-1.6-.4-3.2-.4-3.2-7.3-6.1-4.9-19.5-2-30.8 1.2-7.7.8-17.8 5.3-25.9 0 0 1.2-2.8 1.6-3.6 0 0 1.6-2.8 2-3.6 1.2-4.1 4.1-6.1 5.3-7.3.8-.4 0-3.2 0-3.6 1.2-4.5 4.1-6.9 4.1-9.3 0-2 1.2-1.2 1.6-2 2.8-6.1 22.3-49.9 22.7-50.7 1.6-3.2 3.2-10.1 7.3-8.9 4.1 19.5 8.9 41.4 11.3 59.6.4 3.2-.4 7.7 0 11.4.8 7.3 4.5 14.2 0 18.2-1.9 1.5 1.8 5.2 1.8 5.6zm33.6-266.8c-.4 0-2 0-2.4 1.6 0 .4.4 1.6 0 1.6-.4 2.4 0 6.1-1.6 11.4 0 .4-1.6 0-1.6 2v2l-7.7 21.9-9.3 26.4c-.4 1.2-1.6 0-1.6 2-.4 4.1-.8 5.7-2 9.3l-5.7 15c-2.4-.8-1.6-3.6 0-3.6-1.2-2-2 .4-3.6-2-1.2-1.6-1.2-4.1-2-5.3-3.6-8.9-6.5-21.9-9.3-33.6-1.6-6.5-4.1-32.8-2-43 0-.8 2-.4 2-2.4.4-3.2 1.6-5.3 4.1-9.3 1.2-1.6 5.3-4.1 5.3-6.9.4-2 2.4-3.2 4.1-4.1.4-.4 1.6-2 1.6-2 3.6-1.2 11.8-.4 16.6 0 5.7.8 10.9 5.3 15.4 9.3.1 2.8.9 1.6-.3 9.7zm211.9 182.9c-2-9.3-3.2-17.4-5.3-25.9-.4-.8-1.6-.8-2-2-4.5-18.2-8.9-31.2-15-44.6 2-.8 1.6-1.6 2-4.1 0-2 1.2-.8 1.6-2 4.1-7.3 6.9-15.8 9.3-23.9.8-2.4 2-2.8 2-5.7 0-1.6 1.6-1.6 2-1.6.4-2.4-.4-5.3 0-7.7 0-2 1.6-1.2 2-2 1.2-4.9 1.2-7.3 3.2-9.3.4-.4 0-2.8 0-3.6.4-3.2 0-4.1 1.6-5.7 1.2-.4 0-2.8 0-4.1 1.2-.8 3.2-2 4.1-3.2 3.6-6.9 8.9-34.1 7.7-39.7 0-4.9-2-10.5-4.9-13-5.3-2.8-8.1-8.5-13.8-8.9-4.1-.4-7.7 0-11.3 0-4.5-.4-6.5-2.4-9.3-2-1.6.4-2.4 2-3.6 2-2.4 0-1.2 1.6-2 1.6-1.6.8-4.1-.4-5.7 0-1.2.8-1.2 3.6-3.6 3.6-1.6 0-4.5 2.8-5.7 4.1-6.9 5.3-13.4 15.8-18.6 20.7-.8.4.4 2.4 0 3.6-.4.4-2.8.8-4.1 1.6-1.2 2-1.2 5.3-1.6 7.7-1.6 5.7-5.3 13.8-5.3 20.3-1.6 11.4-1.2 30.4 3.2 34.1.8 0 0 2.8 0 3.2 1.6 4.9 2.4 9.3 3.6 13.4 1.2 2.8 2.8 4.9 4.1 7.3 2 5.3 3.6 11.4 5.3 16.6 2.4 6.5 6.1 12.6 6.1 17 0 2.4-2 4.1-2 5.7-.4 1.6-1.6 1.2-2 1.6-.4 1.6-.4 13.8-3.6 24.3-4.9 12.6-9.3 32.4-14.6 41.4-1.6 2-1.6 2.8-2.4 5.7 0 1.6-1.2 1.2-1.6 1.6-3.2 8.1-6.1 19.5-9.3 24.3-1.2 1.6-1.2 3.2-2 5.7-.8 3.6-2.4 6.1-4.1 9.3-2 5.7-4.9 11.4-6.9 15-1.2 1.6-.8 3.2-2 5.7-.8.8-.8 10.1-1.2 11.4-2.8 4.9 1.2 6.1.4 10.1 0 1.2-1.6 3.6-1.6 4.9 0 2.4.4 6.5 1.2 11.8 0 5.7 1.2 10.1 1.2 12.2s1.2 3.6 2 6.1c.8 4.1 4.9 5.3 11.3 5.3 6.9 6.5 16.2 2.8 19.9 2.4s21.5-8.9 22.7-10.1c1.6-1.2 4.5-.4 5.7-2 3.2-2.4 7.7-6.9 11.3-10.9 2.8-3.2 6.1-6.9 7.3-9.3 2.8-4.1 4.9-5.3 7.7-7.3.4-.8-.8-3.2 0-4.1 3.6-4.1 6.9-4.9 7.3-10.9 0-2 1.6-1.2 2-2 1.6-4.5 2.4-10.1 4.1-11.4 0-.4-.4-2.8 0-3.6 1.2-4.1 2.4-7.3 3.2-10.9.8-3.6 3.2-7.3 4.1-11.4.8-4.1 1.6-8.1 1.6-11.4 1.6-17.4-2.8-33.2-4.1-44.6 0-2-1.6-2-1.6-2.4zm-29.6 83.9c0-.4-2 1.2-2 2.4-2.4 6.9 1.2 11.4-2 14.6-2 1.6.4 5.7-2 7.3 0 .8.4 3.2 0 4.1 0 0-1.6 2.8-1.6 3.6 0 0-1.6 2.8-1.6 3.6-.4.4-1.6 2.8-2 3.6-1.2 2-4.5 3.6-5.7 5.7-1.6 1.6-2 2.4-3.6 3.6l-10.5 8.9c-2.4 3.2-12.6-.8-16.6 2.4-1.2.8-8.9-4.5-13-5.7 0-1.6-.4-3.2-.4-3.2-7.3-6.1-4.9-19.5-2-30.8 1.2-7.7.8-17.8 5.3-25.9 0 0 1.2-2.8 1.6-3.6 0 0 1.6-2.8 2-3.6 1.2-4.1 4.1-6.1 5.3-7.3.8-.4 0-3.2 0-3.6 1.2-4.5 4.1-6.9 4.1-9.3 0-2 1.2-1.2 1.6-2 2.8-6.1 4.9-14.2 7.7-17 .4-.4 1.6-6.5 2-7.3 0-.4 1.6-2.8 1.6-3.6 0-.4 1.6-3.2 1.6-4.1.4 0 1.6-3.2 2-3.2 0-.4 1.6-3.2 2-4.1 0-.4 1.6-2.8 2-3.6 0-.4 1.2-3.2 1.6-3.6 0 0 1.6-3.2 2-4.1 1.6-3.2 3.2-10.1 7.3-8.9 4.1 19.5 8.9 41.4 11.3 59.6.4 3.2-.4 7.7 0 11.4.8 7.3 4.5 14.2 0 18.2-1.6 1.4 2 5.1 2 5.5zm1.7-173.5c-2.4-.8-1.6-3.6 0-3.6-1.2-2-2 .4-3.6-2-1.2-1.6-1.2-4.1-2-5.3-3.6-8.9-6.5-21.9-9.3-33.6-1.6-6.5-4.1-32.8-2-43 0-.8 2-.4 2-2.4.4-3.2 1.6-5.3 4.1-9.3 1.2-1.6 5.3-4.1 5.3-6.9.4-2 2.4-3.2 4.1-4.1.4-.4 1.6-2 1.6-2 3.6-1.2 11.8-.4 16.6 0 5.7.8 10.9 5.3 15.4 9.3.4 2.8 1.2 1.6 0 9.7-.4 0-2 0-2.4 1.6 0 .4.4 1.6 0 1.6-.4 2.4 0 6.1-1.6 11.4 0 .4-1.6 0-1.6 2v2l-7.7 21.9-9.3 26.4c-.4 1.2-1.6 0-1.6 2-.4 4.1-.8 5.7-2 9.3l-6 15z"/></svg>