<?xml version="1.0" encoding="utf-8"?>
<!-- Generator: Adobe Illustrator 18.0.0, SVG Export Plug-In . SVG Version: 6.00 Build 0)  -->
<!DOCTYPE svg PUBLIC "-//W3C//DTD SVG 1.0//EN" "http://www.w3.org/TR/2001/REC-SVG-20010904/DTD/svg10.dtd">
<svg version="1.0" id="Layer_1" xmlns="http://www.w3.org/2000/svg" xmlns:xlink="http://www.w3.org/1999/xlink" x="0px" y="0px"
	 viewBox="0 0 34 30" enable-background="new 0 0 34 30" xml:space="preserve">
<g>
	<path fill="#FFFFFF" d="M19.5,9.1l-1.4,0c-1.6,0-2.6,1.1-2.6,2.7V13H14c-0.1,0-0.2,0.1-0.2,0.2V15c0,0.1,0.1,0.2,0.2,0.2h1.4v4.6
		c0,0.1,0.1,0.2,0.2,0.2h1.9c0.1,0,0.2-0.1,0.2-0.2v-4.6h1.7c0.1,0,0.2-0.1,0.2-0.2l0-1.8c0-0.1,0-0.1-0.1-0.2c0,0-0.1-0.1-0.2-0.1
		h-1.7v-1.1c0-0.5,0.1-0.8,0.8-0.8l1,0c0.1,0,0.2-0.1,0.2-0.2V9.3C19.8,9.2,19.7,9.1,19.5,9.1z"/>
</g>
</svg>
