<?xml version="1.0" encoding="utf-8"?>
<!-- Generator: Adobe Illustrator 18.0.0, SVG Export Plug-In . SVG Version: 6.00 Build 0)  -->
<!DOCTYPE svg PUBLIC "-//W3C//DTD SVG 1.0//EN" "http://www.w3.org/TR/2001/REC-SVG-20010904/DTD/svg10.dtd">
<svg version="1.0" id="Layer_1" xmlns="http://www.w3.org/2000/svg" xmlns:xlink="http://www.w3.org/1999/xlink" x="0px" y="0px"
	 viewBox="0 0 80 40" enable-background="new 0 0 80 40" xml:space="preserve">
<g>
	<g>
		<path fill="#F3885E" d="M10.9,4.6L10.7,5c-0.1,0.2-0.1,0.4-0.2,0.5c0,0.1-0.1,0.2-0.1,0.2c0,0,0,0,0,0c0,0.1-0.6,1.6-0.5,1.2
			C9.7,7.2,9.5,7.6,9.5,7.7C9.3,7.9,9.2,8.3,9.1,8.6c0,0.1,0,0.3-0.1,0.3C9,9,9,9.1,8.8,9.2c0,0.2-0.1,0.4-0.2,0.6
			c-0.1,0.2-0.1,0.4-0.2,0.6c-0.1,0.4-0.2,0.9-0.4,1.4c-0.1,0.2-0.3,0.6-0.3,0.7c0,0.1,0,0.1,0,0.2c-0.2,0.5-0.5,1-0.6,1.5
			c-0.2,0.5-0.4,0.9-0.6,1.4c-0.1,0.2-0.2,0.5-0.3,0.6c0,0,0,0.1,0,0.1c-0.1,0.2-0.1,0.3-0.2,0.5c0,0.1-0.1,0.2-0.2,0.3
			c-0.1,0.1-0.1,0.3-0.1,0.3c0,0.1-0.1,0-0.1,0.1c-0.1,0.2-0.6,1-0.7,1c0,0,0,0.1,0,0.1c-0.1,0.1-0.2,0.3-0.3,0.4
			c-0.1,0.2-0.3,0.4-0.5,0.5v0.1c-0.1,0,0,0-0.1,0l-0.1,0.1c0-0.7,0.1-1.4,0.2-1.9v0l0,0v-0.5c0,0,0,0.1,0,0.1c0,0,0,0,0,0.1
			c0-0.2,0-0.5,0-0.7c0-0.3,0.1-0.9,0-1.1c0-0.1,0-0.1,0-0.2c0-0.3,0-0.5,0-0.8c0-0.4,0-0.8,0-1.1l0-0.3c0-0.4,0-1.7,0-1.9
			c0-0.1,0-0.1,0-0.2C4,11,4,11,4,11c0-0.3,0-0.5,0-0.7c0-0.1,0-0.2,0-0.2c0-0.3,0.1-0.7,0.1-1c0-0.1,0-0.1,0-0.2c0-0.1,0-0.1,0-0.2
			c0,0,0,0,0,0v0h0c0,0,0-0.1,0-0.2c0-0.1,0-0.2,0-0.3c0,0,0,0,0-0.1c0-0.1,0-0.2,0-0.3c0,0-0.1-0.1-0.1-0.1c0-0.5,0-0.3,0-0.4V6.3
			C3.9,5.5,3.8,4.8,2.9,5c0,0-0.1,0.1-0.1,0.1C2.7,5.2,2.5,4.9,2.5,5.2c-0.1,0-0.1,0-0.2,0.1C2.1,5.4,1.9,5.6,1.8,5.6L1.6,5.7
			c0,0.1-0.1,0.1-0.2,0.1c0,0-0.1,0-0.1,0.1C1.2,6,1.1,6.1,1,6.1c0,0-0.1,0-0.1,0c0,0,0,0.1-0.1,0.1c0,0-0.1,0-0.1,0
			c0,0-0.1,0.1-0.1,0.1c0,0-0.1,0-0.1,0c0,0,0,0.1-0.1,0.1c0,0-0.1,0-0.1,0c0,0-0.1,0.1-0.1,0.1C0.1,6.7-0.1,6.7,0,6.9
			c0.1,0,0.2-0.1,0.4-0.2c0.2-0.1,0.3-0.2,0.5-0.3C0.9,6.4,1,6.3,1,6.3c0.1,0,0.1,0,0.2-0.1l0.1-0.1c0.1,0,0.2-0.1,0.3-0.2
			c0.1,0,0.1-0.1,0.1-0.1c0.1-0.1,0.1,0,0.2,0c0,0,0.1-0.1,0.1-0.1c0.2-0.1,0.2-0.1,0.4-0.2c0.2-0.1,0.2-0.1,0.3,0.1
			c0,0,0.1,0,0.1,0.1c0.1,0.2,0,0.4,0,0.6c0,0,0.1,0,0.1,0c0,0,0,0.1,0,0.1c0,0.1,0,0.2,0,0.4c0,0.1,0,0.1,0,0.1c0,0.1,0,0.1,0,0.2
			V8l0,0.3c0,0.1,0,0.2,0,0.3s0.1,0.1,0,0.1c0,0,0,0.1,0,0.1c0,0.4-0.1,0.7-0.1,1.1l0,0.8c0,0.2,0,0.2,0,0.3c0,0.2,0,0.4-0.1,0.5
			c0,0,0,0.1,0,0.1c0,0.2-0.1,0.4-0.1,0.5c0,0,0,0.8,0,0.8c0,0.2,0,0.3-0.1,0.4c0,0,0,0.1,0,0.1c0,0.2,0,0.4-0.1,0.5
			c0,0,0.1,0.1,0.1,0.1c0,0.2,0,0.3-0.1,0.4c0,0,0,0.1,0,0.1c0,0.3,0,0.6-0.1,0.8c0,0.3,0,0.5,0,0.7c0,1-0.1,2.1-0.1,3.1
			c0,0,0,0.1,0,0.1c0,0.4,0.2,1.2,0.7,1.3c0,0,0.1,0,0.1-0.1C3.6,20.1,3.6,20,3.6,20c0.1-0.1,0.2-0.1,0.2-0.2L4,19.7
			c0,0,0.1-0.1,0.1-0.1c0,0,0,0,0.1,0c0.1-0.1,0.2-0.3,0.3-0.4c0-0.1,0.1,0,0.1-0.1c0,0,0-0.1,0.1-0.1c0.1-0.2,0.3-0.4,0.3-0.4
			c0,0,0.5-0.7,0.5-0.7c0.1-0.1,0.2-0.4,0.3-0.5c0,0,0-0.2,0-0.2c0,0,0.1,0,0.1,0C5.9,17,6,16.8,6.1,16.7c0-0.1,0,0,0,0
			c0-0.1,0-0.2,0.1-0.3c0,0,0.1,0,0.1,0c0.1-0.2,0.1-0.4,0.2-0.5c0.1-0.1,0.1-0.4,0.2-0.4c0,0,0-0.1,0-0.1c0-0.1,0.1-0.1,0.1-0.1
			c0,0,0-0.1,0-0.1c0,0,0,0,0,0c0-0.1,0-0.1,0.1-0.1c0,0,0-0.1,0-0.1l0.1-0.3c0,0,0-0.1,0-0.1c0.1-0.3,0.3-0.7,0.4-1
			c0,0,0.1,0,0.1,0c0.1-0.2,0.1-0.3,0.2-0.5C7.8,12.6,8,12.3,8.1,12c0.1-0.3,0.3-0.9,0.4-1.1c0-0.1,0.1-0.2,0.1-0.2c0,0,0-0.1,0-0.1
			c0-0.1,0.1-0.1,0.1-0.1c0.1-0.2,0.1-0.3,0.2-0.4c0,0,0-0.2,0-0.2c0-0.2,0.1-0.2,0.2-0.3C9,9.4,9,9.4,9.1,9.4
			c0.1-0.1,0.2-0.4,0.2-0.6c0-0.1,0.1-0.1,0.1-0.2c0,0,0-0.1,0-0.1c0.1-0.3,0.2-0.5,0.3-0.8L10,7c0-0.1,0.1-0.1,0.1-0.1
			c0.1-0.3,0.7-1.5,0.7-1.6c0,0,0.1,0,0.1,0C10.9,5,11,4.9,11,4.7C11,4.6,10.9,4.6,10.9,4.6z M12.4,9.9c0.1-0.1,0-0.3-0.1-0.5
			c0.1-0.1,0.1-0.4,0.1-0.5c-0.1-0.1-0.1-0.1-0.4-0.1C11.7,9.2,11.9,9.9,12.4,9.9z M22.8,13.7c0.1,0,0.1-0.2,0.2-0.2
			c0,0,0.1,0,0.1,0c0,0,0.1-0.1,0.1-0.1c0,0,0.1,0,0.1,0c0,0,0-0.1,0.1-0.1c0.1-0.1,0.3-0.1,0.4-0.2c0.1-0.1,0.3-0.2,0.4-0.3
			c0.2-0.1,0.3-0.1,0.4-0.1c0.3-0.2,0.6-0.3,0.9-0.4c0.2,0,0.2-0.1,0.4-0.1l-0.1-0.1c0.2,0,0.6,0,0.6-0.2c-0.6,0-0.6,0.1-1.1,0.2
			c-0.1,0-0.2,0.1-0.3,0.1c0,0-0.1,0.1-0.2,0.1c-0.1,0,0,0-0.1,0c-0.1,0-0.2,0-0.3,0c0,0-0.1,0.1-0.1,0.1l-0.2,0l-0.9,0.5
			c-0.1,0.1-0.2,0.1-0.4,0.1c0,0-0.1,0.1-0.2,0.1c0,0-0.1,0-0.1,0c-0.1,0,0,0-0.1,0.1c-0.1,0.1-0.2,0.1-0.3,0.1c0,0-0.1,0-0.1,0
			c0,0-0.1,0.1-0.2,0.1c-0.4,0.2-0.9,0.3-1.3,0.5c0-0.6,0.1-1.3,0.1-1.7c0.1-0.3,0-0.5,0.1-0.5c0,0,0-0.1,0-0.1
			c0.1-0.2,0.1-0.3,0-0.5c-0.2-0.2-0.6-0.1-0.7,0.1c-0.1,0.1-0.1,0.1-0.2,0.2c-0.1,0.1-0.1,0.1-0.2,0.2c-0.1,0.1-0.5,0.3-0.5,0.4
			c0,0.1-0.3,0.4-0.3,0.4c-0.1,0.1-0.3,0.3-0.5,0.4c-0.1,0.1-0.3,0.1-0.4,0.2c0,0-0.1,0.1-0.1,0.1c-0.1,0-0.1,0.1-0.3,0.1
			c0.1-0.6,0.2-1.1,0.6-1.4c0.2,0,0.4,0,0.5,0c0.1,0,0.4,0.3,0.4,0c0-0.1-0.1-0.1-0.2-0.1c0,0-0.1-0.1-0.1-0.1c-0.2-0.1-0.5,0-0.5,0
			c-0.1,0-0.1,0-0.2,0c-0.2,0-0.3,0.1-0.3,0.1c-0.1,0-0.2,0-0.2,0.1c-0.1,0-0.1,0.1-0.2,0.1c-0.2,0.1-0.3,0.2-0.5,0.3l-0.2,0.2
			L16.3,13c0,0-0.1,0-0.1,0.1c-0.1,0.1-0.2,0.3-0.3,0.3c-0.1,0.1-0.1,0.1-0.2,0.1c0,0-0.2,0.2-0.3,0.2c-0.2,0.2-0.4,0.3-0.6,0.5
			c-0.1,0.1-0.2,0.2-0.3,0.3c-0.1,0.1-0.3,0.2-0.4,0.3c-0.2,0.2-0.5,0.4-0.7,0.5c-0.1,0-0.1,0.1-0.2,0.1c-0.2,0.2-0.4,0.2-0.8,0.1
			c0.1-0.1-0.1-0.4-0.1-0.5c0-0.3,0.1-0.3,0.1-0.5c0-0.1-0.1-0.1-0.1-0.1c0-0.1,0.1-0.1,0.1-0.2c0-0.1-0.1-0.1-0.1-0.1
			c0,0,0.1-0.1,0.1-0.1V14c0-0.5,0.1-1,0-1.4c0-0.3,0-0.6-0.4-0.6c0,0.1-0.1,0.1-0.2,0.1c0,0.3-0.1,0.5-0.2,0.8
			c-0.1,0.3-0.1,0.6-0.1,0.9c-0.1,0.6-0.2,1.2,0,1.8c0.2,0.2,0.5,0.2,0.8,0.3c0.1,0,0.2,0.1,0.4,0.1c0.1,0,0.1-0.1,0.3-0.1
			c0.1,0,0.2,0,0.3,0c0,0,0.1-0.1,0.1-0.1c0.1,0,0.1,0,0.2-0.1c0.1-0.1,0.2-0.2,0.3-0.3c0,0,0.1-0.1,0.1-0.1c0.1,0,0.1,0,0.2-0.1
			c0.1-0.1,0.2-0.2,0.3-0.3c0.1,0,0.2,0,0.2-0.1c0,0,0.1-0.1,0.1-0.1c0.3-0.3,0.6-0.6,0.9-0.8c0.2-0.2,0.5-0.4,0.7-0.6
			c0.1,0,0.3-0.2,0.3-0.3c0.1-0.1,0.2-0.1,0.3-0.2c0,0,0.1-0.1,0.1-0.1c0,0,0.1,0,0.3-0.2c0,0,0.1-0.1,0.1-0.1c0,0,0,0,0,0
			c-0.1,0.1-0.1,0.1-0.2,0.2c-0.1,0.1-0.1,0.2-0.2,0.2l-0.3,0.7c0,0.2-0.1,0.4,0,0.6c0.5,0.1,0.6,0.2,1.1,0.1
			c0.1-0.1,0.2-0.4,0.3-0.4c0,0,0.3-0.1,0.3-0.1c0.2,0,0.1-0.2,0.2-0.3c0-0.1,0.3,0,0.3-0.1c0-0.2,0.2-0.3,0.4-0.4
			c0.1-0.1,0.1-0.1,0.1-0.2c0.1-0.1,0.2-0.1,0.2-0.2c0.1,0,0-0.3,0.3-0.3c-0.2,0.6-0.3,1.5-0.1,2.3c0.3,0.2,0.6,0.3,0.9,0.3
			c0.1,0,0.2-0.1,0.3-0.2c0,0,0.1-0.1,0.1-0.1c0.1,0,0.1,0,0.2-0.1c0.1,0,0.2,0,0.3-0.1c0.1,0,0.2-0.1,0.3-0.1
			c0.1-0.1,0.3-0.1,0.4-0.2c0.1-0.1,0.2-0.1,0.3-0.2C22.7,13.7,22.8,13.7,22.8,13.7z M31.9,14.3c0.1,0.2,0.1,0.2,0.3,0.3
			c0.1,0,0,0.1,0.1,0.1c0,0,0.1,0.1,0.1,0.1c0.2,0,0.4-0.1,0.5-0.1c0.1,0,0.2-0.1,0.2-0.1c0.2,0,0.2-0.1,0.3-0.2
			c0.1-0.1,0.2-0.3,0.3-0.4c0,0,0.1-0.1,0.1-0.1c0,0,0-0.1,0.1-0.1l0.1-0.1c0.1-0.1,0.1-0.2,0.1-0.3c0,0,0.1,0,0.1-0.1
			c0-0.1,0-0.1,0.1-0.2c0.1-0.1,0.3-0.2,0.3-0.3c0-0.1,0.3-0.3,0.4-0.3c0,0,0-0.1,0-0.1c0.1-0.1,0.1-0.2,0.2-0.3
			c0.2-0.2,0.3-0.3,0.5-0.5c0.1-0.2,0.2-0.4,0.3-0.6c0.1-0.1,0.2-0.2,0.3-0.3c0,0,0.1-0.4,0.1-0.1c-0.1,0.5-0.1,0.9-0.2,1.4
			c-0.1,0.5-0.2,0.9-0.2,1.4c0,0.7-0.1,1.1-0.1,1.7c-0.1,1.1-0.2,2.3-0.1,3.5c0.2,0.1,0.4,0.3,0.7,0.3c0.2,0,0.2-0.2,0.4-0.3
			c0.1-0.1,0.2-0.2,0.3-0.3c0,0,0.1,0,0.1,0s0-0.1,0-0.1c0,0,0.1,0,0.1-0.1c0,0,0.1-0.1,0.1-0.1c0-0.1,0.2-0.2,0.2-0.3
			c0.1-0.1,0.2-0.1,0.2-0.2c0,0,0-0.1,0-0.1c0,0,0.1,0,0.1-0.1c0-0.1,0.2-0.3,0.2-0.4c0-0.1,0.1-0.2,0.1-0.3c0-0.1,0.1-0.1,0.1-0.2
			c0-0.1,0.1,0,0.1-0.1c0.1-0.1,0-0.2,0.1-0.2c0,0,0.1,0,0.1-0.1c0,0,0-0.1,0-0.1c0-0.1,0.2-0.1,0.2-0.2c0.1-0.1,0.1-0.2,0.1-0.3
			h0.1c0,0,0-0.1,0-0.1c0,0,0.1,0,0.1-0.1c0.1-0.1,0.3-0.4,0.4-0.5v0c0.1-0.1,0.2-0.2,0.2-0.3c0.2-0.2,0.3-0.2,0.4-0.4
			c0.1-0.1,0.3-0.1,0.3-0.2c0-0.1,0.4-0.3,0.4-0.3c0.2-0.1,0.5-0.5,0.7-0.5c0,0,0-0.1,0-0.1c0,0,0.1,0,0.1,0c0.1,0,0-0.1,0.1-0.1
			c0,0,0.1,0,0.1-0.1c0,0,0,0,0,0c0,0.1-0.1,0.3-0.1,0.3c-0.1,0.3-0.1,0.7-0.1,1L42,14.2c0.1,0.3,0.1,0.8,0.2,0.9c0,0,0,0.1,0,0.1
			c0,0,0.1,0.1,0.1,0.1c0.1,0.1,0,0.4,0.2,0.3c0,0.2,0.3,0.1,0.5,0.1c0.1,0,0.1,0,0.2,0.1c0.2,0.1,0.2,0,0.3,0
			c0.1-0.1,0.2,0.1,0.2,0.1c0.1,0,0.1-0.1,0.1-0.1c0.1,0,0.2,0,0.3,0c0.1,0,0.2,0,0.4-0.1c0,0,0.1-0.1,0.1-0.1
			c0.3-0.1,0.4-0.1,0.5-0.2c0,0,0.1,0,0.1,0s0-0.2,0.1-0.2c0,0,0.1,0,0.1,0c0.1-0.1,0.3-0.3,0.4-0.4c0,0,0.1,0,0.1,0l0.1-0.1
			c0.1-0.1,0-0.1,0.1-0.2c0.1-0.1,0.4-0.2,0.5-0.3l0.1-0.2c0,0,0.1,0,0.1-0.1c0,0,0-0.1,0.1-0.2c0.1-0.1,0.2-0.1,0.3-0.2
			c0.1-0.1,0-0.1,0.1-0.2c0.3,0,0.4-0.3,0.5-0.3c0.1,0,0,0,0.1-0.1c0.1-0.1,0.4-0.4,0.5-0.4c0.1,0,0.1,0,0.1-0.1
			c0,0,0.1-0.1,0.2-0.1c0,0.3-0.1,0.5-0.1,0.8c0,0.2,0.1,0.4,0.1,0.5c0,0.3,0,0.5,0,0.8c0,0.1,0.1,0.1,0.1,0.2c0,0.3,0,0.6,0,0.9
			h0.1c0,0,0,0.6,0,0.6c0.2,0.4,0.3,0.6,0.3,1.1c0.2,0,0.2,0.2,0.3,0.2c0.1,0,0.1,0.1,0.1,0.1c0.2,0.1,0.5,0,0.7,0
			c0.2-0.2,0.5-0.3,0.6-0.5c0.1-0.1,0.2-0.1,0.2-0.2c0.1-0.1,0.1-0.2,0.1-0.3c0,0,0.1,0,0.1-0.1l0,0c0.2-0.1,0.3-0.3,0.4-0.4
			c0,0,0,0,0.1-0.1c0,0,0.7-0.6,0.7-0.6c0,0,0.1,0,0.2-0.1c0.1-0.1,0.1-0.2,0.2-0.2c0,0,0.1-0.1,0.2-0.1c0,0,0.2-0.3,0.2-0.3
			c0-0.1,0.2-0.2,0.2-0.2c0,0,0.1-0.1,0.1-0.1c0-0.1,0.1,0,0.2-0.1c0.2-0.2,0.4-0.3,0.5-0.5c0.1-0.1,0.3-0.1,0.3-0.2
			c0-0.1,0.4-0.3,0.4-0.3c0.2-0.1,0.7-0.6,0.9-0.7c0,0,0-0.1,0-0.2c0,0,0.1,0.1,0.1,0c0.1,0,0-0.1,0.1-0.1c0.3,0.1,0.8-0.6,0.6-0.5
			c-0.1,0.1-0.2,0-0.3,0.1c-0.3,0.1-0.5,0.3-0.7,0.4c0,0,0,0,0,0.1c0,0-0.1,0-0.1,0c-0.1,0.1-0.5,0.5-0.7,0.6
			c-0.1,0.1-0.3,0.1-0.4,0.2c-0.2,0.1-0.4,0.3-0.5,0.4c0,0,0,0.1,0,0.1c-0.1,0.1-0.2,0-0.2,0.1c-0.1,0.1-0.3,0.3-0.4,0.4
			c-0.1,0.1-0.4,0.3-0.4,0.4c-0.1,0-0.1,0.1-0.1,0.1c0,0-0.1,0-0.1,0.1c-0.1,0.1-0.2,0.1-0.2,0.2c0,0.1,0,0-0.1,0
			c-0.1,0.1-0.2,0.3-0.3,0.3c-0.1,0.1-0.8,0.8-1.1,1l-0.1,0c0,0.1,0,0-0.1,0.1c-0.1,0.2-0.2,0.2-0.4,0.4c-0.2,0.2-0.3,0.4-0.6,0.4
			c-0.1-0.3-0.1-0.6-0.1-1c0-0.4-0.1-0.7-0.1-1.1c0-0.1,0-0.1,0-0.2c0-0.2,0-0.2,0-0.4c-0.1-0.5,0-0.9,0-1.3c0-0.1-0.1-0.2-0.1-0.3
			c0-0.3,0.1-0.3,0-0.3v-0.1c-0.1-0.9,0.1-2,0.1-2.6c0-0.3,0-0.6,0-0.8c0,0,0.1,0,0.1-0.1c0,0,0-0.1,0-0.1c0.1-0.1,0.2-0.2,0.3-0.4
			c0.1-0.1,0.2-0.2,0.3-0.3c0-0.1,0.1-0.2,0.1-0.3c0-0.2,0.2-0.4,0.3-0.5c0,0,0-0.1,0-0.1C50.9,7,51.1,6.7,51,6.4
			C51,6.3,51,6.1,50.9,6c-0.1-0.1-0.3-0.3-0.4-0.3c0,0-0.1,0.1-0.1,0.1c-0.2,0.1-0.2,0-0.3,0.1c0,0-0.1,0-0.1,0
			c-0.2,0.1-0.2,0.4-0.4,0.6c0,0-0.1,0.1-0.1,0.2c0,0-0.1,0.1-0.1,0.1c-0.2,0.6-0.3,1.3-0.4,1.8C49,9,48.9,9,48.9,9.5
			c-0.2,0.6-0.2,0.8-0.2,0.9c-0.1,0.6-0.1,1.3-0.1,1.9c-0.1,0.1-0.2,0.1-0.3,0.2l-0.2,0.1c-0.1,0.1-0.1,0.1-0.2,0.2
			c0,0-0.2,0.1-0.2,0.1c-0.1,0-0.1,0.2-0.1,0.2c-0.1,0-0.1,0-0.2,0.1c-0.1,0-0.1,0-0.1,0.1c-0.1,0.1-0.2,0.2-0.3,0.3
			c-0.1,0.1-0.2,0.2-0.3,0.3c-0.1,0.1-0.1,0.2-0.3,0.3c-0.1,0.1-0.1,0.1-0.2,0.1c-0.2,0.1-0.2,0.3-0.3,0.3c-0.1,0.1-0.2,0.3-0.3,0.3
			c-0.2,0-0.4,0.3-0.5,0.3c-0.1,0,0,0-0.1,0.1c-0.2,0.1-0.4,0.2-0.5,0.2c-0.3,0.1-0.7,0.1-1-0.1c-0.2-0.4-0.2-0.7-0.2-1.1
			c0-0.1,0-0.1-0.1-0.2c-0.1-0.2,0-0.5,0-0.8c0.1-0.1,0.3-0.3,0.4-0.4c0.1-0.1,0.1-0.2,0.2-0.3c0-0.1,0.1,0,0.1-0.1
			c0-0.1,0-0.2,0-0.4c-0.4-0.1-0.7-0.1-0.9,0l-0.2,0.1c-0.4,0.2-0.9,0.5-1,0.6c0,0,0,0.1,0,0.1c0,0-0.1,0-0.1,0.1
			c-0.1,0.1-0.3,0.3-0.5,0.4s-0.3,0.1-0.4,0.2c-0.2,0.1-0.4,0.3-0.5,0.4c0,0,0,0.1,0,0.1c-0.1,0-0.2,0.2-0.3,0.3l-0.1,0.1l-0.3,0.4
			c-0.1,0.1-0.2,0.2-0.3,0.3c0,0,0,0.1,0,0.1l-0.1,0.1l-0.2,0.2c-0.1,0.1-0.2,0.2-0.2,0.3c0,0.1,0,0-0.1,0c-0.1,0.1-0.1,0.2-0.2,0.3
			c0,0-0.1,0.1-0.2,0.1c0,0.1,0,0.2-0.1,0.3c0,0-0.1,0.1-0.1,0.1c0,0,0,0.1,0,0.1c0,0-0.1,0.1-0.1,0.1c-0.2,0.3-0.4,0.5-0.6,0.7
			c0,0,0,0.1,0,0.1c0,0-0.1,0-0.1,0c0,0,0,0.1-0.1,0.1C37.1,17.9,37,18,36.8,18c0-0.8,0-1.5,0.1-2.3c0-0.1,0-0.2,0.1-0.3
			c0-0.3,0-0.6,0-1c0-0.1,0.1-0.3,0.1-0.4c0-0.2,0-0.5,0-0.7c0-0.4,0.2-0.8,0.2-1.1c0-0.3,0-0.5,0-0.8c0-0.3,0.1-0.9,0.2-1.1
			c0.1-0.2,0-0.3,0.1-0.4c0-0.2,0-0.4,0.1-0.5c0,0,0.1,0,0.1,0c0,0,0.1-0.3,0.1-0.3c0.1-0.3,0.1-0.5,0.1-0.7c0-0.1,0.1-0.2,0.1-0.2
			c0-0.1,0.1-0.1,0.1-0.1c0-0.2,0-0.3,0.1-0.4c0,0,0-0.2,0-0.2c0-0.1,0.1,0,0.1-0.1c0.1-0.2,0.1-0.4,0.1-0.7c-0.4,0-0.5,0-0.6,0.1
			c0,0.1,0,0.2-0.1,0.2c-0.1,0.2-0.3,0.5-0.3,0.6c-0.1,0.2-0.1,0.4-0.1,0.5c0,0.1-0.1,0.2-0.1,0.3c0,0.1-0.1,0.1-0.1,0.2L36.8,9
			c0,0.1-0.1,0.1-0.1,0.2c0,0.1-0.1,0.1-0.1,0.2c0,0.2-0.1,0.2-0.1,0.2c-0.1,0.1-0.1,0.2-0.2,0.4c0,0-0.1,0.1-0.1,0.1
			c0,0-0.1,0.1-0.1,0.1c0,0.1,0,0.1-0.1,0.2c0,0-0.1,0.1-0.1,0.1c0,0-0.1,0.1-0.1,0.1c0,0.1,0,0-0.1,0.1l-0.3,0.5
			c-0.1,0.2-0.2,0.3-0.4,0.5c-0.1,0.1-0.2,0.2-0.4,0.3c-0.3-0.2-0.5-0.6-0.9-0.5c0,0-0.1,0.1-0.1,0.1c-0.1,0-0.2,0-0.3,0
			c0,0-0.1,0.1-0.1,0.1c-0.1,0.1-0.2,0.1-0.4,0.2c-0.1,0.1-0.3,0.2-0.3,0.3c0,0.1-0.1,0.1-0.1,0.2c0,0.1,0,0-0.1,0.1
			C32.1,13,31.8,13.7,31.9,14.3C31.9,14.2,31.9,14.3,31.9,14.3z M49.9,7.8c0-0.1-0.1-0.1-0.1-0.1c0-0.1,0-0.1,0.1-0.2
			c0-0.2,0-0.4,0.1-0.6L50,6.5c0,0,0.1,0,0.1-0.1c0-0.1,0-0.2,0-0.2c0.1-0.1,0.2-0.1,0.2-0.2c0.1,0.1,0.3,0.1,0.3,0.2
			c0.1,0.5-0.1,1-0.3,1.5c0,0,0,0.1,0,0.1c0,0-0.1,0-0.1,0c0,0,0,0.1,0,0.1c0,0-0.1,0-0.1,0c0,0,0,0.1,0,0.1c0,0-0.1,0-0.1,0.1
			C50,8.3,50,8.5,49.8,8.5c0-0.1,0.1-0.3,0.1-0.5C49.9,7.9,49.9,7.8,49.9,7.8z M43.3,12.1c0.1,0,0.1,0.1,0.2,0.1v0.2
			c-0.2,0.1-0.2,0.5-0.5,0.5C42.9,12.5,43,12.2,43.3,12.1z M33,13.3c0-0.2,0.1-0.4,0.2-0.5c0-0.1,0-0.2,0.1-0.3c0,0,0.1,0,0.1-0.1
			c0-0.1,0.4-0.4,0.5-0.4c0.3,0,0.3,0.1,0.6,0.3c0,0.1-0.1,0.1-0.1,0.2c-0.4,0.4-0.8,0.8-1.1,1.3c-0.1,0.1-0.2,0-0.2,0.1
			C32.9,13.8,33,13.5,33,13.3z M19.9,29.7c-0.2,0.4-0.5,0.7-0.7,1c-0.1,0.1-0.2,0.3-0.2,0.4c0,0.1-0.1,0-0.1,0.1
			c-0.1,0.2-0.2,0.3-0.3,0.4c0,0-0.2,0.3-0.2,0.3c-0.1,0.1-0.3,0.3-0.3,0.5c0,0.1-0.1,0.1-0.1,0.1c-0.1,0.2-0.6,0.6-0.7,0.7
			c-0.1,0.1-0.3,0.3-0.5,0.5c-0.2,0.2-0.4,0.3-0.6,0.5c-0.1,0.1-0.3,0.2-0.3,0.2c-0.1,0-0.1,0.1-0.1,0.1c-0.2,0.1-0.2,0.2-0.3,0.2
			C15.3,34.9,15,35,14.9,35c-0.1,0-0.1,0-0.2,0c-0.2,0-0.5-0.2-0.7-0.4c-0.1-0.1-0.1-0.3-0.2-0.4c0,0,0-0.1,0-0.2
			c-0.2-0.8-0.1-2.1-0.1-3.1c0.1-1.4,0.1-2.7,0.2-4c0.1-0.8,0-1.4,0-2c0-0.3,0-0.6,0-1c0-0.1,0.1-0.1,0.1-0.3c0-0.1-0.1-0.1-0.1-0.1
			c0-0.3,0-0.4,0.1-0.5c0.1,0,0-0.4,0-0.4l0.1-0.9c0-0.3,0-0.4,0.1-0.5c0,0,0-0.1,0-0.1c0.1-0.5,0.1-1.6,0.4-1.9c0,0,0-0.1,0-0.2
			c0.1-0.2,0.2-0.2,0.2-0.4c0-0.1,0.1,0,0.1-0.1c0.1-0.1,0.1-0.4,0.1-0.4c0,0,0.2-0.1,0.2-0.1c0.1-0.1,0-0.2,0.1-0.2
			c0.1-0.1,0.2-0.2,0.3-0.3c0.2-0.2,0.4-0.4,0.6-0.6c0.9-0.9,2.2-1.6,3.2-0.3c0.2,0.4,0.2,0.5,0.5,0.9c0.3,0.1-0.1,0.9,0.4,0.8
			c0.3-0.1,0.1-0.4,0-0.5c0-0.1,0-0.1-0.1-0.2l-0.1-0.2c0-0.1,0-0.1,0-0.2c0,0-0.1-0.1-0.1-0.1c-0.1-0.1-0.1-0.2-0.2-0.2
			c0,0,0-0.1,0-0.2c-0.1-0.2-0.3-0.5-0.5-0.6c-0.2-0.1-0.4-0.3-0.7-0.4c-0.1,0-0.3,0-0.4,0c0,0-0.1-0.1-0.1-0.1
			c-0.4-0.1-0.6,0.1-0.8,0.1c-0.1,0-0.1,0.1-0.1,0.1c-0.2,0.1-0.4,0.1-0.4,0.2c0,0-0.1,0-0.1,0c-0.1,0.1-0.2,0.2-0.3,0.2
			c-0.1,0,0,0.1-0.1,0.1c-0.1,0.1-0.3,0.1-0.3,0.2c-0.1,0.1-0.2,0.2-0.3,0.3c-0.1,0.1-0.1,0.2-0.2,0.2c-0.1,0.1-0.3,0.1-0.3,0.1
			c0,0.1-0.1,0.1-0.1,0.2c-0.1,0.2-0.3,0.3-0.4,0.5C14.5,18,14,18.4,14,18.5c0,0.2-0.2,0.2-0.3,0.3c0,0,0,0.1,0,0.2
			c0,0-0.1,0.1-0.2,0.2c-0.1,0.1-0.1,0.3-0.2,0.4c-0.5,1.3-0.9,3.2-1,4.8c-0.1,0.6-0.1,1.1-0.1,1.6c-0.1,0.8,0,1.8-0.1,2.5
			c0,0.1-0.1,0.1-0.1,0.1c0,0.1,0.1,0.1,0.1,0.1c0,0.5-0.1,1.1-0.1,1.7c0.1,1.3,0.1,2.6,0.3,3.5c0,0.1,0.1,0.3,0.1,0.4l0.2,0.1
			c0.1,0.1,0.1,0.2,0.1,0.2c0.1,0.2,0.2,0.2,0.3,0.4c0.3,0.1,0.5,0.2,0.8,0.3c0.4,0.1,1.1,0.2,1.3,0.1c0.3-0.2,0.8-0.5,1.2-0.8
			l0.5-0.5c0.2-0.2,0.4-0.3,0.5-0.5c0.2-0.2,0.2-0.3,0.3-0.4c0,0,0.2-0.2,0.2-0.2c0,0,0.1-0.1,0.2-0.1c0.1,0,0.2-0.3,0.2-0.3
			c0.1-0.1,0.2-0.3,0.2-0.4c0-0.1,0.2-0.3,0.2-0.3c0.1-0.1,0.2-0.2,0.3-0.2c0-0.1,0-0.1,0-0.2c0-0.1,0.2-0.1,0.2-0.2
			c0-0.1,0.1-0.1,0.1-0.1c0.1-0.2,0.2-0.4,0.4-0.6c0,0,0-0.1,0-0.2c0,0,0.1-0.1,0.2-0.1c0,0,0-0.1,0-0.2c0.1-0.1,0.2-0.1,0.2-0.2
			c0-0.1,0.1,0,0.1-0.1c0.1-0.2,0.1-0.3,0.2-0.3c0,0,0-0.1,0-0.2c0,0,0.1,0,0.1-0.1c0-0.1,0.1-0.3,0.1-0.4c0-0.1,0.1-0.1,0.1-0.2
			c0.1-0.2-0.1-0.3-0.1-0.4C20.4,28.7,20.1,29.3,19.9,29.7z M57.4,25.6c0,0-0.1,0-0.2,0c-0.1,0-0.1,0.1-0.2,0.1
			c-0.2,0.1-0.5,0.1-0.6,0.1c-0.1,0-0.1,0.1-0.2,0.1L55.9,26c0,0,0,0.1,0,0.1c0,0-0.1,0-0.2,0c-0.1,0-0.2,0.1-0.2,0.1
			c-0.1,0-0.1-0.1-0.2,0c0,0-0.2,0.1-0.2,0.1l-0.1,0c-0.1,0.1-0.2,0-0.2,0c-0.4,0.1-0.4,0.1-0.8,0.2c-0.1,0-0.2,0-0.2,0
			c-0.1,0-0.1,0-0.2,0c0,0-0.2-0.1-0.2-0.1c0,0-0.3,0-0.3,0c-0.1,0-0.1-0.1-0.1-0.1c-0.3,0.1-0.8,0-1.2-0.2c-0.1,0-1-0.4-0.8-0.5
			c-0.2,0-0.5-0.5-0.6-0.5c-0.1,0,0-0.1-0.1-0.1c-0.3-0.1-0.5-0.4-0.6-0.2c-0.1,0.1-0.6-0.1-0.5,0.2c0,0.3,0.3,0.4,0.5,0.5
			c0.1,0.1,0.3,0,0.4,0.1c0.1,0,0.2,0.3,0.2,0.3c0.1,0.1,0,0.5-0.1,0.8c0,0-0.1,0.1-0.1,0.1L50,26.9c-0.1,0.3-0.1,0.4-0.2,0.5
			c-0.1,0.2-0.2,0.3-0.3,0.4c0,0.1-0.1,0.1-0.2,0.2c-0.1,0.1-0.2,0.3-0.2,0.4c-0.1,0.1-0.3,0.2-0.4,0.3c-0.2,0.2-0.5,0.5-0.8,0.4
			c0-0.7-0.2-1.4-0.1-2c0-0.1,0.1-0.3,0.2-0.4c0,0,0-0.1,0-0.2c0.1-0.4,0.3-0.7,0.4-1c0.1,0,0.1-0.1,0.2-0.1c0-0.1,0.1-0.2-0.1-0.2
			c-0.1-0.2-0.4,0-0.5,0c0,0-0.1,0-0.1,0.1c-0.1-0.1-0.3,0-0.5,0.2c0,0,0,0,0,0c0,0,0,0,0,0c-0.1,0.1-0.1,0.1-0.2,0.1
			c0,0-0.2,0.1-0.2,0.1c0,0-0.1,0-0.1-0.1c0,0-0.3,0.3-0.3,0.3c-0.1,0.1-0.2-0.1-0.2,0.1c-0.1,0.1-0.1,0.3-0.3,0.3l0-0.1
			c-0.5,0.3-1.3,0.9-1.9,1.3c-0.1,0,0,0.1-0.1,0c-0.1,0-0.2,0.2-0.3,0.3c-0.1,0.1-0.3,0.1-0.4,0.2c0,0.1-0.1,0.1-0.2,0.1
			c0,0-0.6,0.5-1.1,0.8l-0.1-0.5c-0.2-0.4-0.2-1.6-0.2-1.8c-0.1-0.2,0-0.4,0-0.6c0-0.3,0.1-0.6,0-0.9c0.1,0,0.1-0.1,0.1-0.2
			c0,0,0.1,0,0.2,0c0.1-0.1,0.1-0.3,0.2-0.4l0.2-0.3c0.1-0.1,0.1-0.3,0.2-0.4c0,0,0-0.1,0-0.1c0,0,0-0.2,0.1-0.2c0.1,0,0-0.2,0-0.3
			c-0.3-0.1-0.5-0.1-0.8,0c-0.9,0.2-1.2,1.5-1.3,2.5c0,0,0,0,0,0c-0.2,0.1-0.2,0.2-0.3,0.2c0,0-0.1,0-0.2,0c-0.1,0-0.2,0.2-0.2,0.2
			c-0.1,0.1-0.1,0.2-0.2,0.2c-0.1,0.1-0.3,0.1-0.4,0.1c0,0,0,0.1-0.1,0.1c-0.1,0.1-0.3,0.1-0.4,0.2l-0.4,0.3
			c-0.1,0.1-0.2,0.1-0.2,0.1c-0.1,0-0.1,0.1-0.2,0.2c-0.1,0.1-0.3,0.2-0.4,0.2c0,0,0,0.2-0.1,0.2c-0.1,0.1-0.3,0.1-0.4,0.2
			c-0.1,0.1-0.1,0.1-0.2,0.2c0,0-0.1,0-0.2,0c0,0-0.1,0.3-0.2,0.3c-0.1,0.1-0.6,0.4-0.7,0.5c-0.3,0.2-0.5,0.5-0.8,0.6
			c-0.1,0.1-0.2-0.2-0.3-0.3c0-0.7,0-1.5-0.1-2c0-0.2,0-0.4,0-0.6c0-0.1-0.2-0.3-0.2-0.3c0-0.1-0.1-0.3-0.1-0.3
			c-0.1-0.3-0.1-0.4-0.2-0.5c0,0,0-0.1,0-0.2c0,0-0.1,0-0.1,0c0,0,0-0.1,0-0.1c-0.1-0.1-0.2-0.2-0.2-0.3c-0.2-0.2-0.2-0.4-0.4-0.5
			c0-0.2,0.1-0.6-0.1-0.7c-0.2,0-0.3-0.1-0.5-0.2c-0.1,0.2-0.2,0.1-0.3,0.2C33,24.3,33,24.5,33,24.7c0,0.3,0.4,0.5,0.3,0.8l0,0
			c0,0-0.1,0-0.1,0c0,0,0,0.1,0,0.1c0,0-0.1,0-0.2,0c-0.1,0-0.1,0.1-0.2,0.1c-0.2,0.1-0.5,0.1-0.6,0.1c-0.1,0-0.1,0.1-0.2,0.1
			L31.8,26c0,0,0,0.1,0,0.1c0,0-0.1,0-0.2,0c-0.1,0-0.2,0.1-0.2,0.1c-0.1,0-0.1-0.1-0.2,0c0,0-0.2,0.1-0.2,0.1l-0.1,0
			c-0.1,0.1-0.2,0-0.2,0c-0.4,0.1-0.4,0.1-0.8,0.2c-0.1,0-0.2,0-0.2,0c-0.1,0-0.1,0-0.2,0c0,0-0.2-0.1-0.2-0.1c0,0-0.3,0-0.3,0
			c-0.1,0-0.1-0.1-0.1-0.1c-0.3,0.1-0.8,0-1.2-0.2c-0.1,0-1-0.4-0.8-0.5c-0.2,0-0.5-0.5-0.6-0.5c-0.1,0,0-0.1-0.1-0.1
			c-0.3-0.1-0.5-0.4-0.6-0.2C25.5,24.9,25,24.7,25,25c0,0.3,0.3,0.4,0.5,0.5c0.1,0.1,0.3,0,0.4,0.1c0.1,0,0.2,0.3,0.2,0.3
			c0.1,0.1,0,0.5-0.1,0.8c0,0-0.1,0.1-0.1,0.1l-0.1,0.2c-0.1,0.3-0.1,0.4-0.2,0.5c-0.1,0.2-0.2,0.3-0.3,0.4c0,0.1-0.1,0.1-0.2,0.2
			c-0.1,0.1-0.2,0.3-0.2,0.4c-0.1,0.1-0.3,0.2-0.4,0.3c-0.2,0.2-0.5,0.5-0.8,0.4c0-0.7-0.2-1.4-0.1-2c0-0.1,0.1-0.3,0.2-0.4
			c0,0,0-0.1,0-0.2c0.1-0.4,0.3-0.7,0.4-1c0.1,0,0.1-0.1,0.2-0.1c0-0.1,0.1-0.2-0.1-0.2c-0.1-0.2-0.4,0-0.5,0
			c-0.2,0.1-0.4,0.2-0.5,0.2c0,0-0.1,0-0.2,0c0,0.1,0,0.2-0.1,0.2l-0.4,0.6c-0.2,0.4-0.5,1.3-0.4,2c0,0.1,0.1,0.4,0.2,0.4
			c0.1,0.1,0,0.3,0.1,0.4c0,0,0.1,0,0.2,0c0,0,0,0.1,0,0.2c0.1,0.1,0.3,0.2,0.5,0.2c0,0,0.1,0.1,0.1,0.1c0.1,0,0.1,0.1,0.2,0.1
			c0.5,0.2,0.6-0.1,0.9-0.4c0.2-0.2,0.4-0.3,0.6-0.5c0.1-0.1,0.2-0.3,0.2-0.4c0.1-0.1,0.2-0.2,0.3-0.3c0.1-0.1,0.1-0.3,0.2-0.4
			c0.1-0.1,0-0.2,0.1-0.2c0.1-0.1,0.2-0.1,0.2-0.3c0.2-0.1-0.1-0.3,0.1-0.5c0.1-0.2,0.2-0.2,0.2-0.4c0.1-0.1,0-0.5,0.2-0.5
			c0.2,0,0.4,0.3,0.7,0.3c0.2,0,0.5,0.3,0.6,0.2c0.2,0,0.5,0.1,0.6,0.2c0.1,0,0.1,0,0.1-0.1c0.1,0,0.2,0.1,0.3,0.1
			c0.2,0,0.4,0.1,0.5,0.1c0,0,0.1,0.1,0.2,0c0.1,0,0.5-0.2,0.4-0.1c0,0,0.1,0,0.1,0c0,0,0-0.1,0-0.1c0,0,0.1,0,0.2,0l0.4,0
			c0.2-0.2,0.3,0,0.5-0.1c0.1-0.1,0.3-0.2,0.4-0.2c0.1-0.1,0.2,0,0.2,0c0.1,0,0.1,0,0.2,0l0.5-0.2c0.1,0,0.1-0.1,0.2-0.1
			c0.1,0,0.2,0,0.3,0c0.1,0,0.1-0.1,0.2-0.1c0.1,0,0.2,0.1,0.3,0l0-0.2l0.2,0.2c0.1,0.2,0.2,0.4,0.2,0.7c0.1,0.1,0,0.3,0,0.5
			c0.1,0.3,0.1,0.3,0,0.4c0,0,0,0.3,0,0.4c0,0.6,0,1.4-0.1,1.7c-0.1,0.5,0.1,0.9,0.1,1.4h1c0.3-0.2,0.2,0,0.5-0.2
			c0.2-0.1,0.4-0.3,0.5-0.4c0,0,0.2,0,0.2,0c0,0,0-0.1,0-0.2c0.1-0.1,0.1-0.1,0.2-0.1c0.1-0.2,0.5-0.5,0.6-0.5l0.2-0.3
			c0.1,0,0.2-0.1,0.2-0.1c0,0,0-0.1,0.1-0.2c0,0,0.2,0,0.2,0c0.1-0.1,0.2-0.3,0.3-0.3c0,0,0.1,0,0.1-0.1l0.1-0.1
			c0.1-0.1,0.3-0.2,0.4-0.3c0.1,0,0.1-0.1,0.2-0.2c0.1,0,0.2-0.1,0.3-0.2c0.1-0.1,0.1-0.2,0.2-0.2c0.1,0,0.2,0,0.3-0.1
			c0.1,0,0.1-0.1,0.2-0.2c0,0,0.2,0,0.2,0c0,0,0-0.1,0.1-0.2c0.1-0.1,0.3-0.1,0.4-0.2c0.3-0.1,0.5-0.3,0.7-0.5l0,0.3
			c0.1,0.9,0.1,1.9,0.3,2.9c0,0.1,0,0.3,0,0.4c0,0-0.1,0.1-0.1,0.1c-0.1,0.1-0.1,0.1-0.3,0.2c-0.1,0-0.3,0.1-0.3,0.1
			c-0.1,0-0.1,0.1-0.1,0.2c-0.2,0.2-0.5,0.5-0.7,0.8c-0.1,0.1-0.1,0.1-0.2,0.2l0,0.1c0,0.2-0.1,0.2-0.1,0.3c0,0,0,0,0,0.1
			c0,0.1-0.1,0.2-0.1,0.3c0,0.1,0,0.2,0,0.2c0,0,0,0,0,0.1l0.1,0.4V33c0,0.1,0.1,0.1,0.1,0.2l0.1,0.1c0,0.1,0,0.1,0.1,0.1l0,0
			c0,0,0,0,0,0.1c0,0,0.1,0.1,0.1,0.1c0.1,0.2,0.3,0.2,0.3,0.3c0.2,0.1,0.5,0.2,0.6,0.2c0.2,0,0.3,0.1,0.5,0c0.1,0,0.4-0.1,0.5-0.2
			c0.2-0.1,0.2-0.2,0.3-0.2c0.1-0.1,0.1-0.3,0.2-0.4c0-0.1,0.1-0.1,0.1-0.2c0.1-0.1,0-0.1,0.1-0.2c0-0.1,0.1-0.2,0.1-0.2
			c0-0.1,0.1-0.2,0.1-0.2c0.2-0.7,0.1-2.3-0.1-3v0c0.5-0.3,1-0.7,1-0.7l0,0c0.1-0.1,0.2-0.2,0.2-0.3c0.1-0.1,0.2-0.1,0.3-0.2
			c0.2-0.1,0.5-0.2,0.5-0.4c0.2,0,0.4-0.2,0.6-0.3c0.1,0,0.1-0.1,0.2-0.1c0.1,0,0.4-0.4,0.4-0.4c0.1,0,0.2-0.1,0.1-0.1
			c0.1-0.1,0.1,0,0.2,0c0.3-0.2,0.8-0.5,1.1-0.7l0.2-0.1L47,26.5c-0.2,0.4-0.5,1.3-0.4,2c0,0.1,0.1,0.4,0.2,0.4
			c0.1,0.1,0,0.3,0.1,0.4c0,0,0.1,0,0.2,0c0,0,0,0.1,0,0.2c0.1,0.1,0.3,0.2,0.5,0.2c0,0,0.1,0.1,0.1,0.1c0.1,0,0.1,0.1,0.2,0.1
			c0.5,0.2,0.6-0.1,0.9-0.4c0.2-0.2,0.4-0.3,0.6-0.5c0.1-0.1,0.2-0.3,0.2-0.4c0.1-0.1,0.2-0.2,0.3-0.3c0.1-0.1,0.1-0.3,0.2-0.4
			c0.1-0.1,0-0.2,0.1-0.2c0.1-0.1,0.2-0.1,0.2-0.3c0.2-0.1-0.1-0.3,0.1-0.5c0.1-0.2,0.2-0.2,0.2-0.4c0.1-0.1,0-0.5,0.2-0.5
			c0.2,0,0.4,0.3,0.7,0.3c0.2,0,0.5,0.3,0.6,0.2c0.2,0,0.5,0.1,0.6,0.2c0.1,0,0.1,0,0.1-0.1c0.1,0,0.2,0.1,0.3,0.1
			c0.2,0,0.4,0.1,0.5,0.1c0,0,0.1,0.1,0.2,0c0.1,0,0.5-0.2,0.4-0.1c0,0,0.1,0,0.1,0c0,0,0-0.1,0-0.1c0,0,0.1,0,0.2,0l0.4,0
			c0.2-0.2,0.3,0,0.5-0.1c0.1-0.1,0.3-0.2,0.4-0.2c0.1-0.1,0.2,0,0.2,0c0.1,0,0.1,0,0.2,0l0.5-0.2c0.1,0,0.1-0.1,0.2-0.1
			c0.1,0,0.2,0,0.3,0c0.1,0,0.1-0.1,0.2-0.1c0.1,0,0.2,0.1,0.3,0l0.1-0.3C57.6,25.5,57.4,25.5,57.4,25.6
			C57.4,25.5,57.4,25.6,57.4,25.6z M42.1,24c0.2,0,0.2-0.4,0.4-0.3c0.5,0-0.3,0.9-0.4,1.2C42,24.8,42.3,24.2,42.1,24z M41.3,33.2
			c0,0.2-0.1,0.5-0.2,0.6c-0.3,0-0.6,0-0.8-0.1c-0.1,0-0.1-0.2-0.2-0.2c-0.1-0.1-0.2-0.3-0.3-0.4c0,0,0,0,0,0l-0.1-0.2
			c-0.1-0.3-0.1-0.7,0-1.1c0-0.1,0-0.1,0-0.1c0.1-0.1,0.2-0.1,0.2-0.2v-0.1h0c0.1,0,0.1-0.1,0.2-0.2l0-0.1h0c0,0,0,0,0,0
			c0.2-0.1,0.3-0.1,0.4-0.3l-0.1,0c0.1-0.1,0.3-0.1,0.3-0.2c0,0,0-0.1,0-0.1c0,0,0.1,0,0.2,0c0.1-0.1,0.2-0.1,0.3-0.2c0,0,0,0,0,0
			C41.2,31.3,41.4,32.5,41.3,33.2z M66.7,12.9c0-0.3-0.1-0.7-0.3-0.8c-0.3-0.2-0.5-0.5-0.9-0.6c-0.3,0-0.5,0-0.7,0
			c-0.3,0-0.4-0.2-0.6-0.1c-0.1,0-0.2,0.1-0.2,0.1c-0.2,0-0.1,0.1-0.1,0.1c-0.1,0.1-0.3,0-0.4,0c-0.1,0.1-0.1,0.2-0.2,0.2
			c-0.1,0-0.3,0.2-0.4,0.3c-0.4,0.3-0.8,1-1.2,1.3c-0.1,0,0,0.2,0,0.2c0,0-0.2,0.1-0.3,0.1c-0.1,0.1-0.1,0.3-0.1,0.5
			c-0.1,0.4-0.3,0.9-0.3,1.3c-0.1,0.7-0.1,1.9,0.2,2.1c0.1,0,0,0.2,0,0.2c0.1,0.3,0.2,0.6,0.2,0.8c0.1,0.2,0.2,0.3,0.3,0.5
			c0.1,0.3,0.2,0.7,0.3,1c0.2,0.4,0.4,0.8,0.4,1.1c0,0.2-0.1,0.3-0.1,0.4c0,0.1-0.1,0.1-0.1,0.1c0,0.1,0,0.9-0.2,1.5
			c-0.3,0.8-0.6,2-0.9,2.6C61,25.7,61,25.8,61,26c0,0.1-0.1,0.1-0.1,0.1c-0.2,0.5-0.4,1.2-0.6,1.5c-0.1,0.1-0.1,0.2-0.1,0.4
			c-0.1,0.2-0.2,0.4-0.3,0.6c-0.1,0.4-0.3,0.7-0.4,0.9c-0.1,0.1-0.1,0.2-0.1,0.4c-0.1,0.1-0.1,0.6-0.1,0.7c-0.2,0.3,0.1,0.4,0,0.6
			c0,0.1-0.1,0.2-0.1,0.3c0,0.2,0,0.4,0.1,0.7c0,0.4,0.1,0.6,0.1,0.8c0,0.1,0.1,0.2,0.1,0.4c0.1,0.3,0.3,0.3,0.7,0.3
			c0.4,0.4,1,0.2,1.2,0.2s1.3-0.6,1.4-0.6c0.1-0.1,0.3,0,0.4-0.1c0.2-0.2,0.5-0.4,0.7-0.7c0.2-0.2,0.4-0.4,0.5-0.6
			c0.2-0.3,0.3-0.3,0.5-0.5c0-0.1-0.1-0.2,0-0.3c0.2-0.3,0.4-0.3,0.5-0.7c0-0.1,0.1-0.1,0.1-0.1c0.1-0.3,0.2-0.6,0.3-0.7
			c0,0,0-0.2,0-0.2c0.1-0.3,0.2-0.5,0.2-0.7s0.2-0.5,0.3-0.7s0.1-0.5,0.1-0.7c0.1-1.1-0.2-2.1-0.3-2.8c0-0.1-0.1-0.1-0.1-0.1
			c-0.1-0.6-0.2-1.1-0.3-1.6c0-0.1-0.1-0.1-0.1-0.1c-0.3-1.1-0.6-1.9-0.9-2.8c0.1-0.1,0.1-0.1,0.1-0.3c0-0.1,0.1-0.1,0.1-0.1
			c0.3-0.5,0.4-1,0.6-1.5c0.1-0.2,0.1-0.2,0.1-0.4c0-0.1,0.1-0.1,0.1-0.1c0-0.2,0-0.3,0-0.5c0-0.1,0.1-0.1,0.1-0.1
			c0.1-0.3,0.1-0.5,0.2-0.6c0,0,0-0.2,0-0.2c0-0.2,0-0.3,0.1-0.4c0.1,0,0-0.2,0-0.3c0.1-0.1,0.2-0.1,0.3-0.2
			C66.4,14.9,66.7,13.2,66.7,12.9z M63.9,29.7c-0.2,0.4,0.1,0.7-0.1,0.9c-0.1,0.1,0,0.4-0.1,0.5c0,0.1,0,0.2,0,0.3h-0.1
			c0,0,0,0.2,0,0.2c0,0-0.1,0-0.1,0c-0.1,0,0,0.2,0,0.2c0,0-0.1,0-0.1,0c-0.1,0,0,0.2,0,0.2c-0.1,0.1-0.3,0.2-0.4,0.4
			c-0.1,0.1-0.1,0.2-0.2,0.2l-0.7,0.6c-0.2,0.2-0.8-0.1-1,0.2c-0.1,0.1-0.6-0.3-0.8-0.4c0-0.1,0-0.2,0-0.2c-0.5-0.4-0.3-1.2-0.1-1.9
			c0.1-0.5,0.1-1.1,0.3-1.6h0.1c0.1,0,0-0.2,0-0.2c0,0,0.1,0,0.1,0c0,0,0-0.2,0-0.2c0.1-0.3,0.3-0.4,0.3-0.5c0,0,0-0.2,0-0.2
			c0.1-0.3,0.3-0.4,0.3-0.6c0-0.1,0.1-0.1,0.1-0.1c0.2-0.4,0.3-0.9,0.5-1.1c0,0,0-0.2,0-0.2h0.1c0,0,0-0.2,0-0.2c0,0,0.1,0,0.1,0
			c0,0,0-0.2,0-0.2c0,0,0.1,0,0.1,0c0.1-0.1,0-0.2,0-0.3c0,0,0.1,0,0.1,0c0.1,0,0-0.2,0-0.2c0,0,0.1,0,0.1,0c0.1-0.1,0-0.2,0-0.3
			c0,0,0.1,0,0.1,0c0,0,0-0.2,0-0.2c0,0,0.1,0,0.1,0c0,0,0-0.2,0-0.2h0.1c0,0,0-0.2,0-0.3c0.1-0.2,0.2-0.6,0.5-0.6
			c0.3,1.2,0.6,2.6,0.7,3.7c0,0.2,0,0.5,0,0.7c0.1,0.5,0.3,0.9,0,1.1c-0.1,0.1,0.1,0.3,0.1,0.4C64,29.5,63.9,29.6,63.9,29.7z
			 M66.1,13c0,0-0.1,0-0.2,0.1c0,0,0,0.1,0,0.1c0,0.2,0,0.4-0.1,0.7c0,0-0.1,0-0.1,0.1v0.1l-0.5,1.4l-0.6,1.6c0,0.1-0.1,0-0.1,0.1
			c0,0.3-0.1,0.4-0.1,0.6l-0.4,0.9c-0.2-0.1-0.1-0.2,0-0.2c-0.1-0.1-0.1,0-0.2-0.1c-0.1-0.1-0.1-0.3-0.1-0.3
			c-0.2-0.6-0.4-1.4-0.6-2.1c-0.1-0.4-0.3-2-0.1-2.7c0-0.1,0.1,0,0.1-0.2c0-0.2,0.1-0.3,0.3-0.6c0.1-0.1,0.3-0.3,0.3-0.4
			c0-0.1,0.2-0.2,0.3-0.3c0,0,0.1-0.1,0.1-0.1c0.2-0.1,0.7,0,1,0c0.4,0.1,0.7,0.3,1,0.6C66.1,12.6,66.2,12.5,66.1,13z M79.2,24.3
			c-0.1-0.6-0.2-1.1-0.3-1.6c0-0.1-0.1-0.1-0.1-0.1c-0.3-1.1-0.6-1.9-0.9-2.8c0.1-0.1,0.1-0.1,0.1-0.3c0-0.1,0.1-0.1,0.1-0.1
			c0.3-0.5,0.4-1,0.6-1.5c0.1-0.2,0.1-0.2,0.1-0.4c0-0.1,0.1-0.1,0.1-0.1c0-0.2,0-0.3,0-0.5c0-0.1,0.1-0.1,0.1-0.1
			c0.1-0.3,0.1-0.5,0.2-0.6c0,0,0-0.2,0-0.2c0-0.2,0-0.3,0.1-0.4c0.1,0,0-0.2,0-0.3c0.1-0.1,0.2-0.1,0.3-0.2
			c0.2-0.4,0.6-2.1,0.5-2.5c0-0.3-0.1-0.7-0.3-0.8c-0.3-0.2-0.5-0.5-0.9-0.6c-0.3,0-0.5,0-0.7,0c-0.3,0-0.4-0.2-0.6-0.1
			c-0.1,0-0.2,0.1-0.2,0.1c-0.2,0-0.1,0.1-0.1,0.1c-0.1,0.1-0.3,0-0.4,0c-0.1,0.1-0.1,0.2-0.2,0.2c-0.1,0-0.3,0.2-0.4,0.3
			c-0.4,0.3-0.8,1-1.2,1.3c-0.1,0,0,0.2,0,0.2c0,0-0.2,0.1-0.3,0.1c-0.1,0.1-0.1,0.3-0.1,0.5c-0.1,0.4-0.3,0.9-0.3,1.3
			c-0.1,0.7-0.1,1.9,0.2,2.1c0.1,0,0,0.2,0,0.2c0.1,0.3,0.2,0.6,0.2,0.8c0.1,0.2,0.2,0.3,0.3,0.5c0.1,0.3,0.2,0.7,0.3,1
			c0.2,0.4,0.4,0.8,0.4,1.1c0,0.2-0.1,0.3-0.1,0.4c0,0.1-0.1,0.1-0.1,0.1c0,0.1,0,0.9-0.2,1.5c-0.3,0.8-0.6,2-0.9,2.6
			c-0.1,0.1-0.1,0.2-0.2,0.4c0,0.1-0.1,0.1-0.1,0.1c-0.2,0.5-0.4,1.2-0.6,1.5c-0.1,0.1-0.1,0.2-0.1,0.4c-0.1,0.2-0.2,0.4-0.3,0.6
			c-0.1,0.4-0.3,0.7-0.4,0.9c-0.1,0.1-0.1,0.2-0.1,0.4c-0.1,0.1-0.1,0.6-0.1,0.7c-0.2,0.3,0.1,0.4,0,0.6c0,0.1-0.1,0.2-0.1,0.3
			c0,0.2,0,0.4,0.1,0.7c0,0.4,0.1,0.6,0.1,0.8c0,0.1,0.1,0.2,0.1,0.4c0,0.3,0.3,0.3,0.7,0.3c0.4,0.4,1,0.2,1.2,0.2
			c0.2,0,1.3-0.6,1.4-0.6c0.1-0.1,0.3,0,0.4-0.1c0.2-0.2,0.5-0.4,0.7-0.7c0.2-0.2,0.4-0.4,0.5-0.6c0.2-0.3,0.3-0.3,0.5-0.5
			c0-0.1-0.1-0.2,0-0.3c0.2-0.3,0.4-0.3,0.5-0.7c0-0.1,0.1-0.1,0.1-0.1c0.1-0.3,0.2-0.6,0.3-0.7c0,0,0-0.2,0-0.2
			c0.1-0.3,0.2-0.5,0.2-0.7s0.2-0.5,0.3-0.7c0-0.3,0.1-0.5,0.1-0.7c0.1-1.1-0.2-2.1-0.3-2.8C79.3,24.3,79.2,24.3,79.2,24.3z
			 M77.2,29.7c-0.2,0.4,0.1,0.7-0.1,0.9c-0.1,0.1,0,0.4-0.1,0.5c0,0.1,0,0.2,0,0.3h-0.1c0,0,0,0.2,0,0.2c0,0-0.1,0-0.1,0
			c-0.1,0,0,0.2,0,0.2c0,0-0.1,0-0.1,0c0,0,0,0.2,0,0.2c-0.1,0.1-0.3,0.2-0.4,0.4c-0.1,0.1-0.1,0.2-0.2,0.2l-0.7,0.6
			c-0.2,0.2-0.8-0.1-1,0.2c-0.1,0.1-0.6-0.3-0.8-0.4c0-0.1,0-0.2,0-0.2c-0.5-0.4-0.3-1.2-0.1-1.9c0.1-0.5,0.1-1.1,0.3-1.6h0.1
			c0.1,0,0-0.2,0-0.2c0,0,0.1,0,0.1,0c0,0,0-0.2,0-0.2c0.1-0.3,0.3-0.4,0.3-0.5c0.1,0,0-0.2,0-0.2c0.1-0.3,0.3-0.4,0.3-0.6
			c0-0.1,0.1-0.1,0.1-0.1c0.2-0.4,0.3-0.9,0.5-1.1c0,0,0-0.2,0-0.2h0.1c0,0,0-0.2,0-0.2c0,0,0.1,0,0.1,0c0,0,0-0.2,0-0.2
			c0,0,0.1,0,0.1,0c0.1-0.1,0-0.2,0-0.3c0,0,0.1,0,0.1,0c0.1,0,0-0.2,0-0.2c0,0,0.1,0,0.1,0c0.1-0.1,0-0.2,0-0.3c0,0,0.1,0,0.1,0
			c0,0,0-0.2,0-0.2c0,0,0.1,0,0.1,0c0,0,0-0.2,0-0.2h0.1c0,0,0-0.2,0-0.3c0.1-0.2,0.2-0.6,0.5-0.6c0.3,1.2,0.6,2.6,0.7,3.7
			c0,0.2,0,0.5,0,0.7c0,0.5,0.3,0.9,0,1.1c-0.1,0.1,0.1,0.3,0.1,0.4C77.3,29.5,77.2,29.6,77.2,29.7z M77.4,18.8
			c-0.2-0.1-0.1-0.2,0-0.2c-0.1-0.1-0.1,0-0.2-0.1c-0.1-0.1-0.1-0.3-0.1-0.3c-0.2-0.6-0.4-1.4-0.6-2.1c-0.1-0.4-0.3-2-0.1-2.7
			c0-0.1,0.1,0,0.1-0.2c0-0.2,0.1-0.3,0.3-0.6c0.1-0.1,0.3-0.3,0.3-0.4c0-0.1,0.2-0.2,0.3-0.3c0,0,0.1-0.1,0.1-0.1
			c0.2-0.1,0.7,0,1,0c0.4,0.1,0.7,0.3,1,0.6c0,0.2,0.1,0.1,0,0.6c0,0-0.1,0-0.2,0.1c0,0,0,0.1,0,0.1c0,0.2,0,0.4-0.1,0.7
			c0,0-0.1,0-0.1,0.1v0.1l-0.5,1.4L78,17.2c0,0.1-0.1,0-0.1,0.1c0,0.3,0,0.4-0.1,0.6L77.4,18.8z"/>
	</g>
</g>
</svg>
