<?xml version="1.0" encoding="utf-8"?>
<!-- Generator: Adobe Illustrator 18.0.0, SVG Export Plug-In . SVG Version: 6.00 Build 0)  -->
<!DOCTYPE svg PUBLIC "-//W3C//DTD SVG 1.0//EN" "http://www.w3.org/TR/2001/REC-SVG-20010904/DTD/svg10.dtd">
<svg version="1.0" id="Layer_1" xmlns="http://www.w3.org/2000/svg" xmlns:xlink="http://www.w3.org/1999/xlink" x="0px" y="0px"
	 viewBox="0 0 113 41" enable-background="new 0 0 113 41" xml:space="preserve">
<g>
	<polyline fill="#FFFFFF" points="82.3,10 93.1,10 93.1,39.7 93.2,40.1 101.5,40.1 101.5,10 112.3,10 112.3,1.6 82.3,1.6 82.3,10 	
		"/>
</g>
<g>
	<g>
		<path fill="#FFFFFF" d="M66.3,19.6c0.3-0.4,0.5-0.9,0.7-1.3l0.3-0.6c0.5-1.3,0.8-2.7,0.8-4.2c0-3-1.2-6-3.4-8.2
			c-2.3-2.2-5.2-3.4-8.3-3.4H40.4v38.4h18.3c3,0,5.9-1.2,8.2-3.4c2.2-2.3,3.4-5.2,3.4-8.2c0-3-1.1-5.8-3-7.9
			C67,20.2,66.6,19.9,66.3,19.6 M62.1,28.2c-0.1,1.1-0.5,2.1-1.2,2.8c-0.6,0.6-1.4,1-2.3,1.2l-9.9,0v-7.9h9.4c1.1,0,2,0.4,2.8,1.1
			C61.7,26.1,62.1,27.1,62.1,28.2z M48.7,17.1V9.3h7.1c1,0,2,0.4,2.7,1.1c0.7,0.7,1.1,1.6,1.2,2.7l-0.1,0.4c0,0.2-0.1,0.5-0.1,0.7
			l-0.1,0.2c-0.1,0.2-0.1,0.4-0.2,0.5c-0.7,1.3-1.8,2-3.1,2.1H48.7z"/>
		<path fill="#FFFFFF" d="M20.1,9.2c4.1,0,8,2.2,10.1,5.8l6.4-5.4c-3.8-5.4-9.9-8.7-16.5-8.7C9,0.9,0,9.9,0,20.9C0,32,9,41,20.1,41
			c6.6,0,12.8-3.2,16.5-8.7l-6.4-5.4c-2.1,3.6-5.9,5.8-10.1,5.8c-6.5,0-11.8-5.3-11.8-11.8C8.3,14.4,13.6,9.2,20.1,9.2"/>
	</g>
</g>
</svg>
