<?xml version="1.0" encoding="utf-8"?>
<!-- Generator: Adobe Illustrator 18.0.0, SVG Export Plug-In . SVG Version: 6.00 Build 0)  -->
<!DOCTYPE svg PUBLIC "-//W3C//DTD SVG 1.0//EN" "http://www.w3.org/TR/2001/REC-SVG-20010904/DTD/svg10.dtd">
<svg version="1.0" id="Layer_1" xmlns="http://www.w3.org/2000/svg" xmlns:xlink="http://www.w3.org/1999/xlink" x="0px" y="0px"
	 viewBox="0 0 794 758" enable-background="new 0 0 794 758" xml:space="preserve">
<g>
	<g>
		<path fill="#FFFFFF" d="M282.6,374.5c-2.5,4.9-6.3,10-9,14.1c-1.4,1.9-3.2,3.9-3.2,5.6c0,1.2-0.7,0.2-1.4,0.9
			c-1.4,2.5-2.5,4.4-4.2,5.6c-0.5,0.2-2.1,3.9-2.5,4.6c-1.4,1.9-4.4,4.6-4.4,6.5c-0.2,1.4-0.7,0.7-1.2,1.2c-1.9,2.5-7.6,8.1-9.3,10
			c-1.4,1.9-4.4,4.4-6.7,6.7c-2.5,2.3-5.3,4.4-7.9,6.5c-1.4,1.2-3.9,3.2-4.4,3.2c-1.6,0-0.7,0.9-1.4,0.9c-2.5,1.4-3,2.1-4.2,3.2
			c-1.4,1.2-5.8,1.9-6.9,2.3c-0.7,0.2-1.6,0-2.1,0c-2.3-0.2-6.7-2.3-9.3-5.6c-1.2-1.6-1.2-4.4-2.1-5.3c-0.2-0.2,0.2-1.9,0-2.1
			c-3.2-10.4-1.6-28.7-0.9-41.5c0.7-19,1.2-37.1,2.1-54.2c0.7-10.7,0.5-19,0-27.3c-0.2-3.7,0-8.3,0-13c0-1.9,1.2-1.9,0.9-3.5
			c0-0.7-0.9-1.2-0.9-1.2c-0.2-3.5,0-5.6,0.9-6.3c0.7-0.5,0-4.9,0-5.6l1.4-12.3c0.2-3.7-0.5-5.1,1.2-6.5c0.2,0,0-1.6,0-1.9
			c0.9-7.4,1.9-22.3,5.6-25c0.2-0.2,0-1.9,0-2.3c0.7-3,2.1-2.1,2.1-5.6c0.2-0.9,0.9-0.5,1.2-0.9c0.7-1.4,0.7-4.9,1.2-5.3
			c0.2-0.5,2.1-0.9,2.3-1.2c0.7-0.9,0.2-2.3,0.9-3.2c1.2-1.6,3.2-2.8,4.6-4.4c2.5-3,5.1-6,7.9-8.6c12-12.1,29.9-21.1,43.8-4.4
			c2.1,4.9,3.2,7,6.7,12.7c3.5,1.9-0.9,12.5,5.6,11.1c3.7-1.2,0.9-4.9,0-6.5c-0.2-1.9-0.2-1.9-0.9-3.2l-1.2-3.2
			c-0.5-1.2,0.2-1.4,0-2.3c0,0-0.9-1.2-1.2-1.2c-1.2-1.2-0.9-2.1-2.3-3c-0.2-0.2,0-1.9,0-2.5c-0.9-3-4.6-6.7-6.7-8.6
			c-2.1-1.6-5.3-4.4-10-5.3c-1.9-0.2-3.9,0.2-5.8,0c-0.2-0.2-1.4-1.2-1.2-1.2c-5.6-0.7-8.6,0.9-11.1,1.2c-1.2,0-0.7,0.9-1.2,1.2
			c-2.8,0.9-4.9,1.2-5.8,2.1c0,0.5-1.6-0.5-1.9,0c-1.9,1.2-2.8,3-4.6,3.2c-1.4,0-0.5,0.7-0.9,0.9c-1.4,0.9-3.7,1.6-4.6,2.3
			c-1.6,1.2-2.1,2.3-3.7,3.5c-0.9,0.7-1.9,2.3-3,3.2c-1.4,0.9-3.5,0.9-4.6,1.9c-0.5,0.7-0.7,1.9-1.2,2.3c-1.9,3-3.5,4.4-5.6,6.7
			c-1.9,1.9-7.9,7.2-7.9,8.6c-0.2,2.3-2.1,3.2-3.5,4.2c-0.2,0.5,0.2,1.9,0,2.3c-0.2,0.5-1.6,1.4-2.3,2.1c-0.7,1.4-1.6,3.7-2.1,5.6
			c-7.4,17.8-12,43.3-13.4,65.4c-0.7,8.3-0.9,14.4-1.2,21.6c-0.7,11.1,0.2,24.6-1.2,34.1c0,0.7-1.2,0.9-1.2,0.9
			c-0.2,0.9,1.2,1.2,1.2,1.2c-0.5,7.4-1.4,14.8-1.2,22.9c0.7,17.8,1.2,34.5,4.6,46.8c0.5,1.6,0.7,4.4,0.9,5.3l2.3,1.2
			c0.7,0.7,0.7,2.5,1.2,3.2c0.9,2.1,2.8,3.2,3.5,5.3c3.5,0.7,6.9,3.2,11.1,4.4c6,1.6,14.4,2.5,17.8,1.2c3.7-3.2,10.4-6.3,16-10.9
			l6.7-6.5c2.3-2.3,4.9-4.4,6.7-6.7c2.1-2.3,2.8-4.2,4.4-5.3c0.5-0.2,3-3,3.2-3c0.5-0.5,1.9-1.2,2.1-1.4c0.7-0.5,2.8-4.4,3-4.6
			c1.4-1.6,2.3-4.6,3.2-5.6c0.5-0.9,2.8-3.7,3.2-4.6c1.2-0.9,2.8-2.1,3.7-3c0-0.7-0.5-1.9,0-2.1c0-1.2,2.1-1.2,2.1-2.3
			c0.2-1.4,0.9-0.7,1.2-1.2c1.9-3.2,3.2-5.8,5.6-7.9c0.5,0-0.2-1.4,0-2.1c0,0,1.9-0.7,2.3-0.9c0.2-0.2-0.5-1.9,0-2.3
			c0.7-0.7,2.3-0.7,2.3-2.1c0-1.2,0.7-0.5,0.9-0.9c1.2-2.1,1.6-3.9,2.3-4.6c0.5-0.2-0.5-1.6,0-2.1c0.5-0.2,0.9-0.2,1.2-0.9
			c0.5-1.6,0.9-3.7,1.2-5.6c0-0.9,0.9-1.2,0.9-2.1c0.9-3-0.7-4.2-0.9-5.1C290,360.1,286.1,368.2,282.6,374.5z M387.8,325.1l0.5,0.5
			C388.5,325.6,388.2,325.4,387.8,325.1z M790.2,317.2c0,0,0,0.9-0.2,0.9c-0.2,0.2-1.6-0.5-2.1-0.5c-0.7,0.2-1.6,1.4-2.5,1.6
			c-2.5,0.7-6.3,0.9-7.9,1.6c-0.7,0.2-1.6,1.4-2.5,1.6l-5.3,1.6c-0.2,0-0.2,0.9-0.2,0.9c0,0.2-1.6-0.5-2.1-0.5c-0.7,0-2.3,0.7-3,1.2
			c-1.4,0.5-1.2-0.7-2.3,0c-0.5,0.2-2.5,0.7-2.8,0.9l-1.4,0.2c-0.9,0.7-2.1,0-3.2,0.5c-5.6,1.9-5.6,0.9-10.9,2.1
			c-1.2,0.5-2.1-0.2-3.2-0.2c-0.7,0-1.6,0.5-2.3,0.5c-0.5,0.5-2.1-0.7-2.5-0.7c-0.5,0.2-4.4,0-4.4,0c-0.9,0-0.7-0.7-0.9-0.7
			c-4.6,0.9-10.7,0-16-2.8c-0.7-0.2-13.4-6-10.9-6.5c-2.8-0.5-6.5-7.4-8.1-7.4c-1.2,0-0.5-0.9-0.9-1.2c-4.2-1.9-6.7-5.1-8.6-3
			c-1.4,1.2-8.1-1.9-7.4,3c0.5,3.9,3.9,5.1,6.3,6.5c1.9,0.9,4.2,0.2,5.3,1.2c1.2,0.5,3,3.5,3.2,4.2c0.7,1.9,0.2,6.7-0.9,10.7
			c0-0.2-1.2,0.9-1.4,1.2l-0.9,2.1c-1.6,4.4-1.4,5.3-3,7.4c-1.9,2.1-2.3,3.7-3.5,5.3c-0.2,0.7-1.4,1.6-2.1,2.3
			c-1.4,1.6-2.1,3.9-3,5.1c-1.6,1.9-4.2,3.2-5.3,4.4c-3.2,2.3-7.4,6.5-10.9,5.3c-0.5-9-2.1-18.3-1.2-26.7c0.2-1.6,1.6-4.6,2.3-5.3
			c0.2-0.2-0.2-1.9,0-2.1c1.6-4.9,4.2-9.3,5.3-13c1.4,0,1.6-1.2,3.2-0.9c0.2-1.4,1.6-2.3-1.2-2.3c-1.6-2.5-4.9-0.5-6.5,0
			c-0.6,0.2-1.2,0.4-1.9,0.7c-1.4-1.5-4.3,0.7-6.5,2.5c-0.1,0-0.1,0-0.2,0.1c0,0,0,0.1-0.1,0.2c-1,0.8-1.8,1.5-2.3,1.7
			c0,0-2.1,1.4-2.1,1.9c0,0-0.7-0.2-1.2-0.7c-0.2,0.5-3.9,4.4-4.2,4.6c-0.9,0.7-2.1-0.7-2.8,0.7c-1.2,1.6-1.9,4.6-3.7,3.5l-0.2-0.7
			c-7.2,3.9-17.6,11.8-25.2,16.9c-0.9,0.2-0.5,0.7-1.4,0.5c-1.2-0.2-2.8,2.1-4.4,3.5c-1.9,0.9-3.9,1.4-5.3,2.3
			c-0.5,0.7-1.6,1.6-2.1,1.9c-0.2,0.5-8.6,6.5-14.6,10.7l-1.2-6.7c-2.1-5.8-2.1-21.6-2.1-24.3c-0.7-2.5,0-5.6-0.2-8.3
			c-0.2-4.4,1.4-8.3,0.2-11.8c1.6,0.2,0.7-1.4,1.2-2.1c0.2-0.2,1.9,0.2,2.1,0c0.7-1.4,1.4-3.7,2.3-5.1l2.5-3.7
			c1.2-1.6,1.6-3.7,2.3-6c0.2,0,0.2-1.6,0.5-1.9c0,0,0.5-2.5,0.7-2.5c0.7-0.5-0.5-3-0.2-3.7c-3.9-1.4-6.7-1.9-10.4-0.5
			c-11.5,3.3-16.3,20-17.3,34.3c-0.2,0.1-0.4,0.2-0.6,0.3c-2.1,1.2-2.5,2.1-3.7,3.2c0,0.5-1.9,0-2.1,0.2c-1.2,0.5-2.1,2.1-3,2.5
			c-0.7,0.7-1.2,2.3-2.3,2.8c-1.4,0.9-3.7,0.9-4.9,1.4c-0.2,0.2-0.5,1.9-0.7,1.9c-1.6,0.9-3.9,1.6-5.6,2.8l-6,4.6
			c-0.9,0.7-2.1,0.9-2.8,1.4c-0.9,0.5-0.9,1.9-2.1,2.5c-1.6,0.9-3.9,2.5-5.1,2.8c-0.5,0.2-0.5,2.1-0.7,2.1c-1.9,1.2-3.9,1.4-5.6,2.3
			c-1.2,0.9-1.2,1.9-2.3,2.8c-0.2,0.2-1.9,0-2.3,0c-0.5,0.2-1.9,3.5-2.3,3.7c-1.6,0.9-8.6,6-9.7,7.2c-3.9,3.2-6.9,6.5-10.7,8.6
			c-1.4,0.7-2.3-2.1-4.2-4.2c0.5-10-0.5-19.9-0.9-26.7c-0.5-2.5,0-5.6,0-7.6c-0.5-1.6-2.3-3.7-2.3-4.2c-0.5-1.6-0.7-3.5-1.2-4.2
			c-0.9-3.7-0.9-5.3-2.1-6.5c-0.5-0.2,0.2-1.6,0-2.3c0,0-0.9,0.2-1.2,0c-0.2,0,0.2-1.6,0-1.9c-0.7-1.4-2.3-2.1-3-3.5
			c-2.1-2.8-3.2-5.1-5.3-7.4c-0.5-3.2,0.7-7.6-1.4-9.5c-2.1-0.2-4.2-1.4-6.3-2.1c-1.2,2.1-3.2,1.6-4.2,3c-1.2,1.9-1.2,4.2-1.2,6.5
			c0.2,4.2,5.8,6.5,4.2,10.7l0.4,0.3c-0.5,0-1,0-1.3,0.1c0,0,0,0.9-0.2,0.9c-0.2,0.2-1.6-0.5-2.1-0.5c-0.7,0.2-1.6,1.4-2.5,1.6
			c-2.5,0.7-6.3,0.9-7.9,1.6c-0.7,0.2-1.6,1.4-2.5,1.6l-5.3,1.6c-0.2,0-0.2,0.9-0.2,0.9c0,0.2-1.6-0.5-2.1-0.5c-0.7,0-2.3,0.7-3,1.2
			c-1.4,0.5-1.2-0.7-2.3,0c-0.5,0.2-2.5,0.7-2.8,0.9l-1.4,0.2c-0.9,0.7-2.1,0-3.2,0.5c-5.6,1.9-5.6,0.9-10.9,2.1
			c-1.2,0.5-2.1-0.2-3.2-0.2c-0.7,0-1.6,0.5-2.3,0.5c-0.5,0.5-2.1-0.7-2.5-0.7c-0.5,0.2-4.4,0-4.4,0c-0.9,0-0.7-0.7-0.9-0.7
			c-4.6,0.9-10.7,0-16-2.8c-0.7-0.2-13.4-6-10.9-6.5c-2.8-0.5-6.5-7.4-8.1-7.4c-1.2,0-0.5-0.9-0.9-1.2c-4.2-1.9-6.7-5.1-8.6-3
			c-1.4,1.2-8.1-1.9-7.4,3c0.5,3.9,3.9,5.1,6.3,6.5c1.9,0.9,4.2,0.2,5.3,1.2c1.2,0.5,3,3.5,3.2,4.2c0.7,1.9,0.2,6.7-0.9,10.7
			c0-0.2-1.2,0.9-1.4,1.2l-0.9,2.1c-1.6,4.4-1.4,5.3-3,7.4c-1.9,2.1-2.3,3.7-3.5,5.3c-0.2,0.7-1.4,1.6-2.1,2.3
			c-1.4,1.6-2.1,3.9-3,5.1c-1.6,1.9-4.2,3.2-5.3,4.4c-3.2,2.3-7.4,6.5-10.9,5.3c-0.5-9-2.1-18.3-1.2-26.7c0.2-1.6,1.6-4.6,2.3-5.3
			c0.2-0.2-0.2-1.9,0-2.1c1.6-4.9,4.2-9.3,5.3-13c1.4,0,1.6-1.2,3.2-0.9c0.2-1.4,1.6-2.3-1.2-2.3c-1.6-2.5-4.9-0.5-6.5,0
			c-2.3,0.7-5.1,2.1-6.3,3.2c-0.5,0.2-1.9-0.2-2.3,0c-0.5,0.9-0.2,2.5-1.2,3.2l-5.1,8.6c-3,6-6.5,17.4-5.3,26.7
			c0.2,1.6,1.4,4.9,2.1,5.3c0.9,0.9,0.5,4.4,0.9,5.3c0.2,0.2,1.9-0.2,2.3,0c0.2,0.2-0.5,1.9,0,2.1c1.4,1.2,4.2,2.1,6.3,3.2
			c0.5,0,0.7,0.7,1.2,1.2c0.7,0.2,1.4,0.9,2.3,0.9c6.3,2.5,8.1-1.2,11.6-5.3c2.3-3,6-3.9,8.6-6.5c1.2-1.2,2.1-3.5,3.2-5.1
			c1.2-1.6,3.2-2.8,4.4-4.4c0.9-1.6,1.9-3.7,3-5.3c0.7-1.2,0.5-2.1,0.9-3c0.7-0.9,3-1.2,2.3-3.5c2.1-1.4-0.9-3.7,1.2-6.3
			c0.9-2.1,2.5-3.2,3.2-5.3c1.2-1.9,0-6.3,2.1-7.4c3-0.5,6,3.7,9.5,3.7c2.5,0,7.4,4.2,8.6,2.8c2.5,0,6.3,1.6,8.6,2.1
			c0.9,0.5,0.7-0.5,1.2-0.7c1.6,0,2.1,0.9,3.9,0.7c2.5-0.2,5.6,1.9,6.9,0.9c0.5-0.2,1.9,0.7,2.3,0.5c0.7-0.5,6.3-2.3,5.6-1.6
			c0.2-0.5,1.9,0.5,1.9,0.2c0.2,0,0.2-1.2,0.2-1.4c0.5-0.2,1.6,0.5,2.1,0.5l5.1,0.5c3.2-2.3,3.7-0.5,6.5-1.9
			c1.6-0.9,3.7-2.1,5.3-2.3c1.2-0.7,2.3,0,3.2-0.5c0.7-0.2,1.6,0.2,2.5-0.2l6.7-2.1c0.7,0,1.9-1.4,2.5-1.6c1.4-0.2,2.8,0,3.5-0.2
			c0.7-0.2,1.6-1.6,2.5-1.6c1.4-0.2,3.2,1.2,4.2-0.2l0.6-2.3l2.5,2.3c1.6,2.5,2.5,5.6,3,8.8c0.7,1.6,0,3.9,0,6.3
			c0.7,3.5,1.9,4.2,0,5.3c-0.2,0.5,0.2,4.6,0,5.6c0,8.1-0.2,18.3-0.9,23.2c-0.9,7.4,0.7,12.5,0.9,18.3h13c3.5-3,2.8,0,6.3-2.5
			c3-1.9,5.1-4.2,6.9-6c0.5-0.5,2.1-0.5,2.3-0.5c0.5-0.2,0.2-1.9,0.5-2.1c0.7-0.7,1.9-0.7,2.5-1.6c1.9-2.1,6.7-6.5,8.1-7.4l3.2-3.7
			c0.7-0.2,2.1-0.7,2.8-1.2c0.5-0.5,0.5-1.6,0.7-2.1c0.2-0.2,2.1,0.2,2.5-0.2c0.9-0.7,2.8-3.5,3.7-3.9c0-0.2,0.7-0.2,1.2-0.7
			l1.6-1.4c1.9-1.2,4.2-3,5.6-4.2c1.2-0.5,1.4-1.9,2.1-2.5c1.2-0.5,3-1.6,3.9-2.3c1.2-0.7,1.2-2.1,2.1-2.8c0.9-0.5,3,0,3.9-0.9
			c0.9-0.5,1.2-1.9,2.1-2.3c0.5-0.5,2.1-0.2,2.5-0.2c0.2-0.2,0.2-1.9,0.7-2.1c1.4-0.9,3.9-1.4,5.6-2.5c3.6-1.9,6.7-4.5,9.8-6.5
			l-0.3,4.4c1.4,12.3,1.4,25.7,3.7,39.2c0.2,1.4-0.5,3.5-0.2,5.3c-0.5,0.5-0.9,0.9-0.9,1.2c-0.7,0.7-1.9,1.9-3.5,2.3
			c-0.7,0-3.5,1.4-3.7,1.9c-0.7,0.2-1.2,1.9-1.6,2.1c-2.5,2.3-6.9,7.4-10,11.1c-1.2,0.9-1.6,1.9-2.1,2.8l-0.5,0.7
			c-0.5,2.1-1.6,3.2-1.4,3.9c0,0.2-0.2,0.5-0.2,0.7c-0.5,1.2-0.7,2.8-0.9,4.2c-0.2,1.2-0.5,2.3-0.5,3.2c0,0.2,0.2,0.5,0.2,0.9
			l1.2,5.6v0.9c0.2,1.2,0.9,1.9,1.2,2.3l0.9,1.2c0.5,0.7,0.5,1.4,0.7,1.6l0.2-0.2c0,0.2-0.2,0.5-0.2,0.7c0.2,0.5,1.2,1.2,1.6,1.9
			c1.6,2.8,4.2,2.8,4.4,4.6c3.2,0.7,6.3,2.3,8.6,2.5c3.2,0.2,4.2,0.9,6.9,0.2c1.6-0.2,5.3-1.9,6.7-3.2c2.3-1.4,3-2.3,3.9-3.2
			c0.9-1.6,1.6-3.5,3-5.6c0.2-0.7,1.2-1.6,1.6-2.3c1.2-1.6,0.5-1.9,0.7-2.8c0-1.4,0.7-2.3,0.7-3.2c0.5-1.4,0.9-2.3,0.9-3.2
			c2.1-10,0.7-30.8-0.9-40.1v-0.2c6.3-4.4,13.9-9.7,13.9-9.5l0.5-0.5c1.4-1.2,2.3-2.8,3.2-3.7c1.6-0.9,2.8-1.2,3.9-2.1
			c2.3-1.4,6.5-2.1,7.4-5.6c3.2-0.2,5.3-2.1,7.9-3.9c0.9-0.2,1.9-0.7,2.5-1.4c0.7,0,5.1-4.9,5.6-5.3c0.7,0,2.3-0.7,1.9-1.2
			c1.2-0.9,0.9,0,2.1-0.5c3.9-2.1,11.1-7,15.1-9.3l2.2-1.6l-3.3,5.6c-3,6-6.5,17.4-5.3,26.7c0.2,1.6,1.4,4.9,2.1,5.3
			c0.9,0.9,0.5,4.4,0.9,5.3c0.2,0.2,1.9-0.2,2.3,0c0.2,0.2-0.5,1.9,0,2.1c1.4,1.2,4.2,2.1,6.3,3.2c0.5,0,0.7,0.7,1.2,1.2
			c0.7,0.2,1.4,0.9,2.3,0.9c6.3,2.5,8.1-1.2,11.6-5.3c2.3-3,6-3.9,8.6-6.5c1.2-1.2,2.1-3.5,3.2-5.1c1.2-1.6,3.2-2.8,4.4-4.4
			c0.9-1.6,1.9-3.7,3-5.3c0.7-1.2,0.5-2.1,0.9-3c0.7-0.9,3-1.2,2.3-3.5c2.1-1.4-0.9-3.7,1.2-6.3c0.9-2.1,2.5-3.2,3.2-5.3
			c1.2-1.9,0-6.3,2.1-7.4c3-0.5,6,3.7,9.5,3.7c2.5,0,7.4,4.2,8.6,2.8c2.5,0,6.3,1.6,8.6,2.1c0.9,0.5,0.7-0.5,1.2-0.7
			c1.6,0,2.1,0.9,3.9,0.7c2.5-0.2,5.6,1.9,6.9,0.9c0.5-0.2,1.9,0.7,2.3,0.5c0.7-0.5,6.3-2.3,5.6-1.6c0.2-0.5,1.9,0.5,1.9,0.2
			c0.2,0,0.2-1.2,0.2-1.4c0.5-0.2,1.6,0.5,2.1,0.5l5.1,0.5c3.2-2.3,3.7-0.5,6.5-1.9c1.6-0.9,3.7-2.1,5.3-2.3c1.2-0.7,2.3,0,3.2-0.5
			c0.7-0.2,1.6,0.2,2.5-0.2l6.7-2.1c0.7,0,1.9-1.4,2.5-1.6c1.4-0.2,2.8,0,3.5-0.2c0.7-0.2,1.6-1.6,2.5-1.6c1.4-0.2,3.2,1.2,4.2-0.2
			l0.9-3.9C792.5,317.2,790.9,317,790.2,317.2z M584,296.6c2.1,0,2.5-5.3,5.6-4.4c6.7,0.5-4.4,12.3-4.9,16.2
			C582.1,307.5,585.6,300.1,584,296.6z M572.4,421.3c-0.5,2.5-1.4,6.3-3.2,8.1c-3.9-0.5-8.6-0.5-11.4-1.2c-0.9-0.2-1.4-2.8-3.2-2.1
			c-0.7-1.4-2.8-3.5-3.5-5.8c0-0.2,0-0.2-0.2-0.2l-0.9-2.8c-0.9-3.9-1.4-9.5-0.5-14.8c0-0.7,0-0.9,0.5-1.6c0.9-0.7,2.3-1.6,3.2-2.8
			V397h0.5c1.9-0.5,1.9-1.9,2.3-2.8l0.5-0.9h-0.2c0.2,0,0.5-0.2,0.5-0.5c2.1-1.4,3.9-1.9,4.9-4.4l-0.9-0.2c1.9-0.7,3.7-1.9,3.7-2.1
			c-0.2,0.2-0.5-0.7-0.2-0.7c0.2-0.2,1.9,0,2.1-0.5c0.7-1.2,2.1-1.6,3.5-2.8c0,0,0.2,0,0.2-0.2C571.5,395.8,573.6,411.8,572.4,421.3
			z M713.7,325.1l0.5,0.5C714.4,325.6,714.2,325.4,713.7,325.1z M141.2,0.5l-2.6,5.3c-1.1,2.3-1.9,4.5-2.8,6.4
			c-0.6,0.9-1.1,2.7-1.5,3.2c0,0.2-0.6,0-0.6,0c0,0.9-7.6,20.6-6.4,15.7c-1.3,2.7-3.4,7.8-4.4,9.1c-2.1,3.4-3.2,8.3-4.9,11.7
			c-0.6,0.9-0.2,3.4-0.9,4.4c-0.8,0.9-0.8,2.7-2.3,3.2c0.6,2.8-1.9,5.3-2.8,8c-0.8,2.8-1.9,5.5-2.6,8.3c-1.7,5.7-3.2,11.7-5.5,17.8
			c-1.1,3-3.4,7.4-4.4,9.1c-0.6,0.8-0.6,1.9-0.6,2.7c-2.8,7-5.9,13.1-8.3,19.1c-2.1,5.9-4.9,12.1-7.6,18.2c-0.9,2.5-2.8,7-4,7.8
			c-0.4,0-0.4,1.1-0.6,1.3c-1.1,2.1-1.9,4.4-2.8,6.2c-0.6,1.3-1.5,2.1-2.1,3.4c-0.9,1.1-1.7,3.6-1.9,4.4c0,0.8-0.8,0.6-0.8,0.8
			c-1.5,2.1-7.6,12.9-9.5,13.4c-0.2,0-0.4,1.3-0.6,1.5c-1.3,1.7-2.8,3.6-4.2,4.7c-1.7,2.5-4.4,5.7-6.2,6.2v1.1
			c-0.8,0.4-0.6-0.6-1.1-0.4l-0.9,0.9c0.6-8.7,1.5-17.6,2.1-25.2v-0.4l0.6-0.6v-6.4c-0.2,0.2,0,1.1-0.2,1.3
			c-0.3,0.1-0.3,0.3-0.4,0.5c0-2.9,0.6-5.7,0.6-8.4c0.2-4.4,0.9-11.6,0.6-14c-0.2-0.8,0.4-1.3,0.4-2.1c-0.2-3.4,0.2-6.2,0.4-9.8
			c0.2-4.7-0.4-10-0.2-14.2l0.6-3.4c0.2-5.3,0-21.4-0.2-25.2c0-0.8,0.2-1.5,0.4-2.3c0-0.4-0.6-0.8-0.6-0.8c-0.2-4,0.4-6.6,0.6-9.7
			c0-1.1-0.6-2.3-0.4-2.8c0.2-4.4,0.9-8.9,0.9-13.4c0-0.8-0.4-1.3-0.2-2.7c-0.2-0.8,0.2-1.3,0.2-2.3c0-0.4-0.6-0.6-0.6-0.6v-0.6h0.6
			c-0.2-0.4-0.4-0.9-0.2-2.1c0.2-1.3,0.6-2.8,0.6-4.4c0,0.2-0.6-0.4-0.6-0.8c-0.4-1.5,0.4-3.2,0.6-4.2c0-0.6-0.8-0.8-0.8-0.8
			c0-6.2,0.4-3.4-0.2-4.9V23.1C51,11.9,49.8,2.8,38.3,5.8c-0.4,0-0.9,1.5-1.1,1.5c-1.3,0.8-4-3.4-4.2,1.5C32,9.4,31.1,9.4,30,10
			c-1.7,1.3-5.3,3.4-6.1,3.8l-3,1.5c-0.6,0.8-1.3,0.9-2.5,1.3c-0.6,0.6-0.9,0.6-1.7,0.8c-0.9,0.6-1.9,2.1-2.6,2.5
			c-0.6,0.4-1.3-0.4-1.7-0.2c-0.2,0-0.6,1.7-1.1,1.7C11,21.5,10.1,21,9.7,21c-0.4,0.2-0.8,1.7-1.1,1.7c-0.4,0.4-1.1-0.4-1.7,0
			c-0.2,0-0.6,1.3-1.1,1.5c0,0.4-0.9-0.2-1.5-0.2c-0.4,0-0.8,1.7-0.9,1.9C1.8,27-0.3,27.2,1,30.1c1.9,0.4,3.2-0.9,4.5-2.1
			c2.3-1.7,4.4-2.8,6.2-3.8c0.8-0.2,1.1-1.3,1.7-1.5c0.9-0.4,1.7-0.2,2.6-0.8l1.9-1.5c1.1-0.6,2.8-0.9,4.4-2.1
			c0.8-0.4,1.1-1.1,1.9-1.5c0.8-0.8,1.7-0.2,2.6-0.6c0.6-0.6,0.9-1.3,1.7-1.7c2.1-0.9,3.2-1.3,4.5-2.1c2.8-1.9,2.8-0.8,4,1.7
			c0.2,0,1.1,0.4,1.3,1.1c1.1,2.8-0.2,4.9,0,7.4c0,0,0.8,0,0.8,0.2c0.4,0.2-0.4,1.7-0.2,1.9c0.4,1.7,0.2,2.7,0.2,4.5
			c-0.2,0.8,0.6,0.9,0.6,1.3c0.2,0.8-0.2,1.7-0.2,2.7v10.6l-0.4,4c0,1.1-0.4,2.3-0.4,3.4s0.8,0.8-0.2,1.5c-0.6,0.2,0.6,0.8,0.6,0.8
			c-0.2,4.5-0.9,9.1-1.1,13.8l-0.6,9.8c-0.2,2.3,0.2,2.8,0.2,3.6c0,2.5-0.6,4.5-0.8,6.2c-0.2,0.6,0.4,0.8,0.6,0.8
			c-0.2,2.5-0.8,4.5-0.8,6.2c-0.2,0.4,0.6,10.4,0.6,10.4c0,2.1-0.6,4.4-0.8,5.5c0,0.6,0.6,1.1,0.6,0.9c0,2.5-0.6,4.5-0.9,6.2
			c0.2,0.6,0.8,0.8,0.8,0.8c-0.2,2.3-0.6,4.2-0.8,5.5c-0.2,0.6,0.6,0.8,0.6,0.8c0,3.8-0.6,7.4-0.8,10.6c0,3.6,0.2,6.2,0.2,9.7
			c-0.2,13.3-0.9,27.6-1.7,40.1c0,0.6,0.6,0.8,0.6,0.8c-0.6,5.3,2.6,15.9,9.1,16.7c0.4-0.4,1.3-0.6,1.7-0.8c0.8-0.8,0.9-1.5,1.5-1.9
			c1.1-1.1,2.1-1.7,3-2.5l1.9-0.8c0.6-0.6,0.9-1.3,1.3-1.7c0.2-0.2,0.6-0.2,0.9-0.6c1.1-0.9,2.6-4,3.6-5.3c0.6-0.8,1.3-0.4,1.7-0.8
			c0.4-0.4,0.6-1.3,0.8-1.9c1.1-2.1,3.4-4.9,4.4-5.1c0.2,0,5.9-9.1,6.1-9.1c1.3-1.7,2.1-5.3,3.6-6.1c0.2,0,0.4-2.3,0.6-2.5
			c0.2-0.6,0.8-0.4,0.9-0.6c0.9-2.3,2.3-4.2,2.8-5.7c0-0.8,0.6-0.4,0.6-0.6c0.6-0.9,0.4-2.3,0.9-3.6c0.2-0.4,0.8-0.4,0.8-0.4
			c1.1-2.5,1.7-5.5,3-6.4c1.5-1.5,0.9-4.5,2.5-5.1c0.4-0.2,0.6-1.1,0.6-1.3c0.2-0.9,0.9-1.5,0.9-1.9c0.4-0.6-0.2-0.9-0.2-1.5
			c0,0,0.6-0.2,0.6-0.4c0.6-0.9,0.6-0.9,1.1-1.5c0.2,0,0.2-1.1,0.4-1.1l1.5-4.2c0.4-0.4,0.4-1.1,0.6-1.9c1.9-4,4.4-9.1,5.1-12.5
			c0.2-0.6,0.8-0.4,0.9-0.4c1.3-2.3,1.1-4,2.1-6.8c1.5-4,3.6-8,4.7-11c1.9-4.2,4.2-11,5.5-14c0.4-0.8,0.8-2.3,0.9-3.2
			c0-0.6-0.6-0.8-0.6-0.8c0-0.8,0.9-0.9,0.9-1.9c0.8-2.1,0.9-4.2,2.1-4.7c0.4,0-0.4-2.1-0.2-2.3c0-2.1,1.5-3,2.3-4.4
			c0.9-2.1,0.8-2.5,1.7-3.2c1.3-1.5,2.3-5.5,3.2-7.8c0.6-1.1,0.8-1.7,0.9-2.5c0.2-0.4,0.4-0.9,0.4-1.1c1.3-3.6,3-7,4.2-10.2l3.4-9.1
			c0.6-1.1,0.9-1.1,1.3-1.9c1.3-3.6,9.5-19.5,8.9-21c0.4-0.4,0.9-0.4,0.9-0.6c0.9-1.9,1.7-3.6,1.5-5.9C142.6,1.1,142,0.9,141.2,0.5z
			 M160.7,69.5c1.9-1.5-0.2-4-0.9-6.1c1.5-1.5,1.3-4.5,1.7-6.8c-1.9-1.9-1.7-1.3-5.1-0.9C151.8,60,154.3,69.3,160.7,69.5z
			 M330.9,100.3c2.8-0.6,3.2-1.3,4.7-1.3l-0.8-0.9c3-0.6,8.3,0,8.3-3.2c-8.1,0-7.9,1.1-14.8,3c-1.1,0.4-2.1,1.1-3.6,1.5
			c-0.6,0.2-0.9,1.5-2.1,1.5c-0.8-0.2-0.4,0.4-0.8,0.6c-1.5,0.6-2.5-0.2-3.8,0.4c-0.4,0.2-0.8,1.3-0.9,1.7l-2.1,0.4l-11.5,6.1
			c-1.5,0.8-3,1.1-4.7,1.9c-0.6,0.4-1.3,1.1-2.1,1.5c-0.2,0.2-1.5,0.6-1.9,0.6c-0.9,0-0.2,0.4-0.9,0.8c-1.9,0.9-2.6,0.9-3.8,1.9
			c-0.2,0.2-1.5-0.4-1.7-0.2c-0.6,0.2-1.3,1.1-2.1,1.5c-4.5,2.5-12.1,4.4-17.4,6.2c0-7.6,0.8-17.2,1.9-21.8c0.8-3.6,0.6-6.1,1.7-7
			c0.2-0.2-0.2-1.5,0-1.7c0.9-2.3,1.7-3.8,0-6.1c-2.1-2.3-7.8-1.9-9.7,0.8c-0.8,1.1-1.5,1.5-2.6,2.7c-0.8,0.8-1.5,1.7-2.6,2.7
			c-1.7,1.5-5.9,3.6-6.1,5.3c0,1.3-3.8,4.5-4.4,5.1c-1.9,1.9-4,3.6-6.2,5.3c-1.3,0.9-3.6,1.7-5.1,2.5c-0.6,0.6-0.9,1.5-1.7,1.7
			c-1.1,0.6-1.7,1.3-3.6,1.1c0.8-8.1,3-14.6,7.9-18.6c2.5,0.4,4.7-0.2,7,0c1.5,0.4,4.7,3.8,4.5,0c-0.6-1.3-1.5-1.3-2.8-1.7
			c-0.6,0-0.8-0.8-0.9-0.8c-3-1.1-5.9-0.2-6.8,0c-0.9,0-1.9-0.2-2.8,0c-2.1,0.4-3.3,0.8-4.3,1.4c-1.3,0.2-2.4,0.6-2.9,0.9
			c-0.8,0.6-1.7,0.8-2.8,1.3c-2.6,1.7-4.4,2.7-6.2,4.2l-2.6,2.8l-6.1,4.5c-0.6,0.4-1.1,0.6-1.9,0.8c-1.5,0.9-2.8,3.4-3.4,3.8
			c-1.7,1.1-1.9,0.8-2.6,1.7c-0.2,0.4-2.6,2.1-3.4,2.8c-2.8,2.3-4.7,3.8-7.2,6.1c-1.3,1.1-2.5,3-4.4,4.2c-1.5,1.3-3.4,2.3-5.1,3.6
			c-2.8,2.1-6.1,4.9-9.5,7c-1.1,0.6-1.7,1.1-2.8,1.7c-3,2.3-5.7,2.5-10.4,0.9c0.9-1.7-0.8-4.7-0.9-6.1c-0.2-3.4,0.9-4.2,0.9-6.1
			c0-0.8-0.9-0.9-0.9-1.1c-0.2-1.1,0.9-1.9,0.9-2.5c0-0.9-0.9-1.1-0.9-1.7c0.2,0,0.9-0.8,0.9-0.9v-1.7c0.2-6.1,0.8-12.7,0-18.4
			c-0.6-3.4,0.2-8.1-5.3-7.8c-0.2,0.8-1.3,0.8-2.6,0.8c-0.6,3.4-1.7,6.8-2.5,10.6c-0.9,3.8-1.3,8.1-1.9,12.1
			c-0.9,8.3-2.1,15.9,0,22.7c2.5,3,6.2,3,10.4,3.4c1.9,0.4,3,0.9,4.5,0.9c0.9,0,1.7-0.8,3.4-0.9c1.3-0.2,3,0.4,4.4,0
			c0.4,0,1.3-1.5,1.7-1.7c1.1-0.6,1.9-0.4,2.6-0.9c1.5-0.8,2.3-2.5,3.6-3.4c0.6-0.6,0.9-1.3,1.7-1.9c0.8-0.4,1.9-0.2,2.6-0.8
			c1.5-1.3,2.1-3,3.4-4.4c0.8-0.6,2.1-0.4,2.6-0.9c0.6-0.4,1.1-1.1,1.9-1.5c4-3.6,7.6-7.6,11.4-10.6c2.8-2.3,5.9-5.3,8.7-7.4
			c0.8-0.6,3.4-3,4.4-3.4c1.9-1.3,2.5-1.5,3.6-2.7c0-0.2,1.3-0.9,1.5-1.1c0.6-0.4,1.1-0.2,3.4-2.7c0.6-0.2,1.1-1.3,1.9-1.7
			c0.1,0,0.3,0,0.4,0.1c-0.8,0.8-1.5,1.6-2.3,2.6c-0.8,0.9-1.5,2.1-2.3,2.7l-4,9.1c-0.4,2.5-1.5,5.5,0.2,7.4c5.9,1.1,7.9,2.5,14,0.9
			c1.7-1.3,2.5-4.5,3.4-5.3c0.6-0.2,3.6-0.8,3.6-0.8c2.1-0.2,1.7-2.7,2.6-3.6c0.6-0.9,3.6,0,4.2-0.9c-0.2-3,3-3.6,4.5-5.1
			c0.8-0.8,0.9-1.9,1.5-2.7c0.9-0.8,2.3-1.1,2.8-2.7c1.7-0.6,0.2-4.4,3.4-3.4c-2.1,8-3.8,19.9-1.7,29.5c3.4,2.1,7.2,4.2,11.4,3.6
			c1.7-0.4,2.6-1.3,4.4-2.7c0.6-0.4,0.9-1.5,1.7-1.7c0.9-0.6,1.9-0.6,2.6-0.9c1.1-0.6,2.3-0.6,3.4-0.8c1.7-0.4,2.3-1.1,3.6-1.9
			c1.9-0.8,4.4-1.5,5.5-2.3c1.9-0.9,3-1.9,4.2-3c0.2,0,1.1,0.6,1.7,0.6c0.8-0.6,1.1-2.1,2.1-2.5c0.4-0.2,1.1,0.4,1.7,0.4
			c0.2-0.2,0.8-1.5,1.1-1.5c0.4-0.4,1.3,0.2,1.9,0c0.2,0,0.6-1.3,0.9-1.5c1.7-0.8,4-1.5,5.7-2.5c1.9-1.1,3.4-2.8,4.9-3.6
			c2.1-1.1,4-0.8,5.7-1.7C323.3,103.5,326.7,101.5,330.9,100.3z M413,125.9c1.5,2.3,1.5,2.8,3.4,3.4c1.1,0.2,0.4,0.8,0.9,0.9
			c0.6,0.4,1.1,1.3,1.7,1.7c2.3,0.4,5.5-1.5,6.1-1.7c1.3-0.2,2.1-0.8,2.6-0.9c2.3-0.6,2.6-0.8,4.4-2.5c1.7-1.7,2.8-4.2,3.6-5.3
			c0.4-0.6,1.3-1.3,1.7-1.9c0.6-0.4,0.6-1.1,0.8-1.7l1.9-1.5c0.9-1.3,0.9-2.5,1.7-3.6c0.4-0.4,1.5-0.4,1.7-0.9
			c0.6-0.8,0.4-1.9,0.9-2.5c1.1-1.3,3.4-2.3,3.4-3.6c0.2-1.9,3.6-3.8,4.5-4.4c0.2-0.2-0.4-1.5,0-1.7c0.8-1.3,1.7-2.5,2.5-3.6
			c2.1-2.5,4.4-3.8,6.2-6.1c1.7-2.5,2.6-5.5,4.2-7.8c1.1-1.5,3-3,3.8-3.6c0.6-0.4,0.8-4.7,1.5-1.7c-1.3,6.1-1.5,12.1-2.5,18.4
			c-0.9,6.1-2.3,11.9-2.8,18.2c-0.4,8.9-0.8,14.6-1.5,21.8c-1.5,14.2-3,29.9-0.9,45.4c3,0.9,5.3,3.8,8.5,3.6
			c2.5-0.4,2.5-2.1,5.5-4.4c1.9-1.5,3.2-2.3,4.4-3.6c0.2-0.2,1.5,0.2,1.7,0c0.2-0.2-0.2-1.3,0-1.7c0-0.2,1.5-0.6,1.9-0.8
			c0-0.4,0.8-1.5,0.8-1.9c0-1.1,2.1-2.7,2.5-3.4c0.9-1.1,2.3-1.9,2.8-2.7c0.2-0.4-0.4-1.3,0-1.9c0.2-0.6,1.7-0.6,1.7-1.5
			c0-1.5,2.5-3.4,2.5-4.5c0.2-1.5,1.9-2.1,1.9-3.4c0-1.1,1.7-1.9,1.7-3s0.8-0.4,0.9-0.9c0.8-1.1,0.6-2.3,1.3-3.2
			c0.2-0.2,1.5-0.6,1.7-0.8c0.4-0.2-0.2-1.5,0.4-1.7c0.6-0.9,2.1-1.7,2.5-2.3c0.9-1.3,0.8-2.8,1.5-3.6h0.8c0.2,0,0-1.3,0-1.7
			c0.4-0.4,1.5-0.2,1.9-0.8c1.7-1.9,3.4-5.7,5.7-6.4V130c0.9-0.8,2.8-3,3.2-3.8c2.1-2.3,4-3,5.1-5.5c1.1-0.9,3.4-1.7,3.8-2.8
			c0.4-1.5,4.9-3.4,5.7-4c2.5-1.7,6.8-5.9,8.7-6.6c0.4-0.2,0.2-1.5,0.6-1.5c0.2-0.4,1.1,0.6,1.7,0.4c0.8-0.4,0.2-0.8,1.3-1.5
			c0.3-0.2,0.9-0.6,1.6-1c0,0.1,0,0.1,0,0.2c-0.2,1.1-1.5,3.4-1.9,4.4c-0.9,4.2-1.3,8.5-1.5,12.3l-0.9,4.4c0.9,3.8,0.9,10,2.5,11.4
			c0.4,0.2,0,1.3,0,1.7c0.4,0.4,1.5,1.1,1.9,1.7c0.8,1.5,0.2,4.9,2.6,4.4c0.4,2.8,4,1.5,6.1,1.9c0.9,0.2,1.5,0.6,2.5,0.8
			c2.8,0.8,3,0.6,3.6,0c0.8-0.8,2.5,0.8,2.5,0.8c0.8,0.4,0.8-0.8,0.9-0.8c1.3,0,3,0.4,4.4,0c1.3-0.4,3.2-0.4,5.1-0.8
			c0.6-0.2,1.1-0.8,0.9-0.8c4-0.9,4.9-1.1,6.2-2.8c0.2-0.2,1.3,0.4,1.7,0c0.4-0.4,0.4-2.1,0.9-2.7c0.2-0.2,1.5,0.4,1.5,0
			c1.7-1.3,4.2-3.6,5.7-5.1c0.4-0.4,1.3,0.2,1.7,0l0.9-1.7c0.8-0.8,0.6-1.9,1.5-2.8c1.9-1.7,4.5-2.7,6.1-4.4l1.7-2.3
			c0.4-0.2,1.3-0.4,1.9-0.8c0.6-0.6,0.2-1.7,0.8-2.5c0.9-1.5,2.6-1.5,3.4-2.8c1.3-1.5,0.6-1.7,1.9-2.8c3.6,0.6,4.9-4.2,6.1-4.4
			c0.9,0,0.4-0.6,0.9-0.8c1.5-1.1,5.5-5.1,6.2-5.1c1.7-0.2,0.9-0.4,1.5-0.9c0.1-0.4,1.8-1,2.5-1.2c-0.3,3.5-1,6.6-1,10.3
			c0.2,2.5,0.8,4.7,0.8,7c0.2,3.6-0.4,7-0.4,10.6c0.2,1.1,0.8,1.7,1.1,2.5c0.6,4.4-0.4,8.3,0.4,11.4h0.8c0.2,0-0.4,8.3-0.4,8.3
			c2.1,5.7,4.2,7.8,4.4,14.6c2.1,0.2,3,2.7,4.4,2.7c0.8,0,0.8,0.8,0.8,0.8c2.5,0.9,6.1-0.2,9.3,0.4c3-2.5,6.1-4.4,8.1-6.8
			c0.8-0.9,2.1-1.7,2.6-2.7c1.1-1.5,1.1-2.7,1.9-4.4c0.2-0.2,1.5-0.2,1.7-0.8l0.4-0.4c2.5-1.7,3.8-3.6,5.1-5.3
			c0-0.4,0.6-0.6,0.9-0.9c0.2-0.6,9.1-7.2,9.7-8c0.4,0,1.9-0.6,2.1-0.9c0.9-0.8,0.9-2.3,2.1-2.8c0.4-0.4,1.5-0.9,2.1-1.5
			c0.2,0,3.2-3.4,3.2-3.6c0.6-1.3,2.3-2.1,2.8-3c0.2-0.2,1.1-0.9,1.3-1.3c0.4-1.1,1.9-0.6,2.6-1.1c2.1-2.5,5.7-4,6.6-6.6
			c1.1-0.8,3.4-1.3,4-2.5c0.6-1.7,4.9-3.4,5.7-4c2.6-1.5,9.5-8,11.5-8.9c0.2,0,0.2-1.7,0.4-2.1c0.4-0.2,1.3,0.9,1.7,0.6
			c0.8-0.2,0.2-1.5,1.3-1.5c4.4,1.3,10.4-7.6,7.4-6.1c-1.7,1.1-2.5-0.4-4,0.8c-3.4,1.3-6.6,4.2-8.9,5.7c0,0.2,0,0.6-0.4,0.9
			c-0.2,0-1.1-0.4-1.3-0.2c-1.9,0.8-7,6.8-8.7,8c-1.7,1.1-3.6,1.9-5.3,2.8c-2.5,1.1-4.7,4-6.6,4.7c-0.4,0.2,0,1.5-0.4,1.5
			c-0.8,0.8-2.3,0.2-3.2,0.9c-1.5,1.3-4.4,4.2-5.1,4.9c-1.5,1.5-4.5,4-5.7,5.1c-0.8,0.6-1.1,1.5-1.9,1.9c0,0.4-0.8,0.6-0.8,0.8
			c-1.3,0.9-2.5,1.5-2.8,2.3c-0.4,0.9-0.6,0.4-0.9,0.6c-1.5,1.1-3,3.4-4.2,4.2c-1.9,1.1-10.2,10.4-14,12.9l-0.9,0.6
			c-0.2,0.9-0.6,0.4-0.9,0.8c-1.5,2.8-2.5,3.2-4.5,5.3c-2.5,2.1-4.2,5.3-7.9,4.7c-1.1-3.6-1.1-8.3-1.5-13.1
			c-0.2-4.5-1.3-8.9-1.5-13.8c0-0.9,0-1.9,0.2-2.8c0.6-3,0.6-2.3,0.2-5.1c-0.8-6.2,0.4-11.2,0.4-17.4c0-1.7-0.8-2.7-0.8-3.6
			c-0.2-3.4,1.3-3.4,0-4.2v-1.9c-0.9-11.4,0.9-25.4,1.9-33.9c0.4-3.6-0.4-7.4,0.2-10.4c0,0,0.8-0.4,0.9-0.9c0-0.6-0.2-1.3,0-1.9
			c0.8-1.9,2.1-3.2,3.8-4.9c1.1-1.7,2.8-2.8,3.4-3.6c0.6-0.8,0.8-2.3,0.9-3.4c0.6-2.3,3.2-5.5,3.6-6.8c0.2-0.6-0.2-1.1,0.2-1.9
			c1.3-4,3.2-8,2.6-11.2c0-1.1-1.1-4-2.5-5.3c-1.1-1.5-3.8-3.4-4.9-3.6c0.2,0.2-0.9,0.8-1.1,0.8c-3,0.9-2.3,0.2-3.6,1.9
			c-0.2,0-1.1-0.4-1.7,0c-2.8,1.9-3,4.7-4.5,7.2c0,0-0.8,1.9-0.8,2.1c-0.4,0.6-1.5,1.3-1.5,1.7c-3,7.8-3.8,16.7-5.1,23.5
			c-0.8,4.9-1.7,5.5-1.9,11c-2.6,8.1-2.5,10.2-2.1,11.6c-1.6,8-1,16.3-1.4,24c-1.5,0.9-2.9,1.8-4.3,2.7l-2.5,1.7
			c-1.7,0.9-1.7,1.7-2.6,2.7c-0.4,0.4-2.6,1.3-3,1.5c-0.8,0.6-0.9,2.1-1.7,2.7c-0.8,0.6-1.7,0.2-2.6,0.9c-0.8,0.4-1.1,0.6-1.7,1.1
			c-1.7,1.5-2.6,2.7-4.4,4.4c-1.3,1.3-3.2,2.8-4.4,4.4c-1.3,1.7-1.9,2.5-3.6,4c-0.8,0.8-1.7,1.1-2.5,1.7c-2.1,1.7-2.5,3.4-4.2,4.4
			c-1.5,1.3-3.2,3.6-4.4,3.6c-2.1,0-4.9,4.4-6.4,4.4c-0.9,0.2-0.4,0.6-0.9,0.8c-2.5,1.7-4.7,2.3-6.8,2.7c-3.6,0.8-9.5,1.3-12.3-1.7
			c-2.1-5.3-2.3-9.1-3-14.4c-0.2-1.1-0.6-1.5-0.8-2.8c-0.8-3.2,0.2-6.8,0.2-10.8c1.3-1.9,3.4-3.8,4.5-5.1c1.3-1.5,1.5-3.2,2.5-4.4
			c0.6-0.8,1.3-0.6,1.9-1.7c0.6-1.7,0.2-3,0-5.3c-4.9-1.5-9.7-0.9-11.5,0l-2.2,1.7c-4.7,2.5-11.1,6.2-12.5,7.2c-0.2,0,0,0.8-0.2,0.8
			c-0.2,0.2-1.5,0.6-1.5,0.8c-1.7,0.9-4.4,3.4-6.1,4.5c-1.7,1.1-3.6,1.9-5.3,3c-2.3,1.3-4.7,4-6.4,4.9c-0.4,0.2,0,1.3-0.4,1.7
			c-0.8,0.4-3,2.8-4,3.6l-1.3,0.9l-3.6,4.9c-0.9,1.5-2.5,2.8-3.8,3.8c-0.2,0,0.2,1.3,0,1.7l-1.9,1.5l-2.1,2.5c-0.9,1.3-2.6,3-3,4.2
			c0,0.9-0.6,0.4-0.8,0.6c-1.1,1.9-1.3,2.8-2.1,4.4c-0.4,0.4-1.9,1.1-2.3,1.5c-0.6,1.1-0.2,2.5-0.8,3.4c-0.2,0.4-1.7,0.8-1.7,0.9
			c-0.4,0.2,0,1.3,0,1.9c-0.4,0.4-1.3,0.9-1.7,1.5c-2.5,3.4-4.9,7-7.2,8.9c-0.2,0.2,0.6,1.3,0,1.7c-0.2,0.2-1.3-0.2-1.7,0
			c-0.2,0-0.6,1.5-0.8,1.7c-1.9,1.5-3,3.4-5.3,3.6c0.6-10,0.4-19.7,0.9-29.7c0-1.3,0.6-3.2,0.8-4.4c0.6-4.2-0.2-8.1,0-12.3
			c0.2-1.7,0.8-3.6,0.9-5.1c0.2-3-0.4-5.9,0-8.9c0.4-4.7,2.1-9.8,2.6-14.6c0.2-3.4-0.2-6.6,0-9.8c0.2-4.4,1.9-11.4,2.5-13.8
			c0.8-2.7,0.6-3.6,1.1-5.3c0.2-2.3,0.2-4.9,0.8-6.8c0-0.2,0.8,0,0.9,0c0-0.2,0.8-3.6,0.8-3.6c1.1-3.6,1.1-6.1,1.7-8.7
			c0.2-0.9,0.9-2.1,0.9-2.7c0-0.8,0.9-0.8,0.9-0.8c0.6-3-0.6-4.4,0.8-5.3c0.2-0.2,0-2.3,0-2.7c0.2-0.8,0.9-0.6,0.9-0.9
			c0.8-2.7,1.5-5.7,1.7-8.5c-4.7-0.4-6.4,0-7.8,1.5c-0.6,0.8-0.4,2.1-0.9,2.7c-1.9,2.3-4,6.2-4.4,8c-0.8,3-0.8,4.5-1.9,6.8
			c-0.4,1.5-1.3,2.8-1.7,3.6c-0.2,0.9-0.8,1.7-0.8,2.7l-0.9,2.7c-0.2,1.1-0.8,1.7-0.8,2.5c-0.4,1.1-0.8,1.9-0.9,2.8
			c-0.6,2.1-0.9,2.3-1.7,3.2c-1.3,1.7-1.7,3.2-2.6,4.5c-0.6,0.6-1.3,0.9-1.7,1.7c-0.6,0.6-1.5,1.1-1.9,1.7c-0.4,1.1-0.2,1.9-0.9,2.7
			c-0.2,0.6-1.1,0.9-1.5,1.7c-0.2,0.4-0.9,1.5-0.9,1.7c0,1.1-0.6,0.4-0.9,1.1l-4.4,6.1c-1.9,2.3-3.2,4-5.1,6.1
			c-1.5,1.3-2.8,2.7-4.5,3.4c-3.8-2.7-6.6-7.2-11.4-6.1c-0.4,0.2-0.8,0.8-0.8,0.8c-1.3,0.4-3-0.4-4.4,0c-0.4,0.2-1.3,1.5-1.7,1.9
			c-1.9,1.1-3.2,1.5-4.5,2.5c-1.1,1.1-3.4,2.3-3.4,3.6c0,1.1-1.9,1.5-1.9,2.5c0,1.1-0.6,0.6-0.8,1.1c-3.8,5.5-7.2,14.6-7,21.8
			C413,124.7,412.7,125.5,413,125.9z M644.9,41.4c-0.2-0.8-0.8-0.9-0.8-1.7c-0.2-1.5,0.6-1.7,0.8-2.8c0.6-2.3,0.6-5.1,1.3-7.8
			l0.8-4.4c0.4-0.4,1.5-0.6,1.9-0.8c0.4-0.8-0.4-2.1,0-2.5c0.9-1.3,2.8-1.3,2.6-2.8c1.3,0.9,3.8,1.3,4.4,2.8
			c1.7,6.1-1.3,13.3-4,19.1c-0.2,0.2,0.4,1.5-0.2,1.5c0,0.2-0.8,0-0.8,0c-0.2,0.6,0.2,1.7,0,1.9c-0.2,0-0.8-0.2-0.9,0
			c0,0.4,0.4,1.5,0,1.7c-0.2,0.2-1.5,0.6-1.7,0.8c-1.5,1.9-1.9,4.7-4.4,4.4c0.6-1.5,0.8-4,0.9-6.1C644.9,43.7,645.1,42.2,644.9,41.4
			z M559.9,97.1c1.7-0.4,1.1,1.7,2.5,1.7v2.7c-2.8,1.9-3,6.2-6.8,6.8C554.8,102.8,555.6,98.2,559.9,97.1z M427,112.8
			c0.6-2.7,1.5-4.7,2.6-7c0.6-1.5,0.2-3,0.8-4.4c0.2-0.4,0.8,0,0.9-0.9c0-1.5,4.5-5.1,6.8-5.1c3.6,0,4.4,1.3,7.2,4.4
			c0.2,1.3-0.9,1.5-0.9,2.5c-5.3,5.5-10.8,10.8-14.8,17.4c-0.8,0.9-2.5,0.6-2.6,1.9C425.2,119.6,426.3,115.7,427,112.8z
			 M502.3,523.4c2.9-5.4,7-26.7,6-31.1c0-3.8-1.6-8.3-3.8-10.2c-4.1-2.2-6.3-6.7-10.8-7c-3.2-0.3-6,0-8.9,0
			c-3.5-0.3-5.1-1.9-7.3-1.6c-1.3,0.3-1.9,1.6-2.9,1.6c-1.9,0-1,1.3-1.6,1.3c-1.3,0.6-3.2-0.3-4.4,0c-1,0.6-1,2.9-2.9,2.9
			c-1.3,0-3.5,2.2-4.4,3.2c-5.4,4.1-10.5,12.4-14.6,16.2c-0.6,0.3,0.3,1.9,0,2.9c-0.3,0.3-2.2,0.6-3.2,1.3c-1,1.6-1,4.1-1.3,6
			c-1.3,4.4-4.1,10.8-4.1,15.9c-1.3,8.9-1,23.8,2.5,26.7c0.6,0,0,2.2,0,2.5c1.3,3.8,1.9,7.3,2.9,10.5c1,2.2,2.2,3.8,3.2,5.7
			c1.6,4.1,2.9,8.9,4.1,13c1.9,5.1,4.8,9.8,4.8,13.3c0,1.9-1.6,3.2-1.6,4.4c-0.3,1.3-1.3,1-1.6,1.3c-0.3,1.3-0.3,10.8-2.9,19
			c-3.8,9.8-7.3,25.4-11.4,32.4c-1.3,1.6-1.3,2.2-1.9,4.4c0,1.3-1,1-1.3,1.3c-2.5,6.3-4.8,15.2-7.3,19c-1,1.3-1,2.5-1.6,4.4
			c-0.6,2.9-1.9,4.8-3.2,7.3c-1.6,4.4-3.8,8.9-5.4,11.7c-1,1.3-0.6,2.5-1.6,4.4c-0.6,0.6-0.6,7.9-1,8.9c-2.2,3.8,1,4.8,0.3,7.9
			c0,1-1.3,2.9-1.3,3.8c0,1.9,0.3,5.1,1,9.2c0,4.4,1,7.9,1,9.5c0,1.6,1,2.9,1.6,4.8c0.6,3.2,3.8,4.1,8.9,4.1
			c5.4,5.1,12.7,2.2,15.5,1.9c2.9-0.3,16.8-7,17.8-7.9c1.3-1,3.5-0.3,4.4-1.6c2.5-1.9,6-5.4,8.9-8.6c2.2-2.5,4.8-5.4,5.7-7.3
			c2.2-3.2,3.8-4.1,6-5.7c0.3-0.6-0.6-2.5,0-3.2c2.9-3.2,5.4-3.8,5.7-8.6c0-1.6,1.3-1,1.6-1.6c1.3-3.5,1.9-7.9,3.2-8.9
			c0-0.3-0.3-2.2,0-2.9c1-3.2,1.9-5.7,2.5-8.6c0.6-2.9,2.5-5.7,3.2-8.9c0.6-3.2,1.3-6.3,1.3-8.9c1.3-13.7-2.2-26-3.2-34.9
			c0-1.3-1.3-1.3-1.3-1.6c-1.6-7.3-2.5-13.7-4.1-20.3c-0.3-0.6-1.3-0.6-1.6-1.6c-3.5-14.3-7-24.4-11.7-34.9c1.6-0.6,1.3-1.3,1.6-3.2
			c0-1.6,1-0.6,1.3-1.6c3.2-5.7,5.4-12.4,7.3-18.7c0.6-1.9,1.6-2.2,1.6-4.4c0-1.3,1.3-1.3,1.6-1.3c0.3-1.9-0.3-4.1,0-6
			c0-1.6,1.3-1,1.6-1.6c1-3.8,1-5.7,2.5-7.3c0.3-0.3,0-2.2,0-2.9c0.3-2.5,0-3.2,1.3-4.4c1-0.3,0-2.2,0-3.2
			C500,525.3,501.6,524.3,502.3,523.4z M474.7,703c0-0.3-1.6,1-1.6,1.9c-1.9,5.4,1,8.9-1.6,11.4c-1.6,1.3,0.3,4.4-1.6,5.7
			c0,0.6,0.3,2.5,0,3.2c0,0-1.3,2.2-1.3,2.9c0,0-1.3,2.2-1.3,2.9c-0.3,0.3-1.3,2.2-1.6,2.9c-1,1.6-3.5,2.9-4.4,4.4
			c-1.3,1.3-1.6,1.9-2.9,2.9l-8.2,7c-1.9,2.5-9.8-0.6-13,1.9c-1,0.6-7-3.5-10.2-4.4c0-1.3-0.3-2.5-0.3-2.5
			c-5.7-4.8-3.8-15.2-1.6-24.1c1-6,0.6-14,4.1-20.3c0,0,1-2.2,1.3-2.9c0,0,1.3-2.2,1.6-2.9c1-3.2,3.2-4.8,4.1-5.7
			c0.6-0.3,0-2.5,0-2.9c1-3.5,3.2-5.4,3.2-7.3c0-1.6,1-1,1.3-1.6c2.2-4.8,3.8-11.1,6-13.3c0.3-0.3-0.3-2.2,0-2.9
			c0,0,1.3-2.2,1.6-2.9c0-0.3,1.3-2.2,1.3-2.9c0-0.3,1.3-2.5,1.3-3.2c0.3,0,1.3-2.5,1.6-2.5c0-0.3,1.3-2.5,1.6-3.2
			c0-0.3,1.3-2.2,1.6-2.9c0-0.3,1-2.5,1.3-2.9c0,0,1.3-2.5,1.6-3.2c1.3-2.5,2.5-7.9,5.7-7c3.2,15.2,7,32.4,8.9,46.7
			c0.3,2.5-0.3,6,0,8.9c0.6,5.7,3.5,11.1,0,14.3C471.8,699.9,474.7,702.7,474.7,703z M501,494.2c-0.3,0-1.6,0-1.9,1.3
			c0,0.3,0.3,1.3,0,1.3c-0.3,1.9,0,4.8-1.3,8.9c0,0.3-1.3,0-1.3,1.6v1.6l-6,17.1l-7.3,20.6c-0.3,1-1.3,0-1.3,1.6
			c-0.3,3.2-0.6,4.4-1.6,7.3l-4.4,11.7c-1.9-0.6-1.3-2.9,0-2.9c-1-1.6-1.6,0.3-2.9-1.6c-1-1.3-1-3.2-1.6-4.1
			c-2.9-7-5.1-17.1-7.3-26.4c-1.3-5.1-3.2-25.7-1.6-33.7c0-0.6,1.6-0.3,1.6-1.9c0.3-2.5,1.3-4.1,3.2-7.3c1-1.3,4.1-3.2,4.1-5.4
			c0.3-1.6,1.9-2.5,3.2-3.2c0.3-0.3,1.3-1.6,1.3-1.6c2.9-1,9.2-0.3,13,0c4.4,0.6,8.6,4.1,12.1,7.3
			C501.3,488.8,501.9,487.8,501,494.2z M671.4,523.4c2.9-5.4,7-26.7,6-31.1c0-3.8-1.6-8.3-3.8-10.2c-4.1-2.2-6.3-6.7-10.8-7
			c-3.2-0.3-6,0-8.9,0c-3.5-0.3-5.1-1.9-7.3-1.6c-1.3,0.3-1.9,1.6-2.9,1.6c-1.9,0-1,1.3-1.6,1.3c-1.3,0.6-3.2-0.3-4.4,0
			c-1,0.6-1,2.9-2.9,2.9c-1.3,0-3.5,2.2-4.4,3.2c-5.4,4.1-10.5,12.4-14.6,16.2c-0.6,0.3,0.3,1.9,0,2.9c-0.3,0.3-2.2,0.6-3.2,1.3
			c-1,1.6-1,4.1-1.3,6c-1.3,4.4-4.1,10.8-4.1,15.9c-1.3,8.9-1,23.8,2.5,26.7c0.6,0,0,2.2,0,2.5c1.3,3.8,1.9,7.3,2.9,10.5
			c1,2.2,2.2,3.8,3.2,5.7c1.6,4.1,2.9,8.9,4.1,13c1.9,5.1,4.8,9.8,4.8,13.3c0,1.9-1.6,3.2-1.6,4.4c-0.3,1.3-1.3,1-1.6,1.3
			c-0.3,1.3-0.3,10.8-2.9,19c-3.8,9.8-7.3,25.4-11.4,32.4c-1.3,1.6-1.3,2.2-1.9,4.4c0,1.3-1,1-1.3,1.3c-2.5,6.3-4.8,15.2-7.3,19
			c-1,1.3-1,2.5-1.6,4.4c-0.6,2.9-1.9,4.8-3.2,7.3c-1.6,4.4-3.8,8.9-5.4,11.7c-1,1.3-0.6,2.5-1.6,4.4c-0.6,0.6-0.6,7.9-1,8.9
			c-2.2,3.8,1,4.8,0.3,7.9c0,1-1.3,2.9-1.3,3.8c0,1.9,0.3,5.1,1,9.2c0,4.4,1,7.9,1,9.5c0,1.6,1,2.9,1.6,4.8c0.6,3.2,3.8,4.1,8.9,4.1
			c5.4,5.1,12.7,2.2,15.5,1.9s16.8-7,17.8-7.9c1.3-1,3.5-0.3,4.4-1.6c2.5-1.9,6-5.4,8.9-8.6c2.2-2.5,4.8-5.4,5.7-7.3
			c2.2-3.2,3.8-4.1,6-5.7c0.3-0.6-0.6-2.5,0-3.2c2.9-3.2,5.4-3.8,5.7-8.6c0-1.6,1.3-1,1.6-1.6c1.3-3.5,1.9-7.9,3.2-8.9
			c0-0.3-0.3-2.2,0-2.9c1-3.2,1.9-5.7,2.5-8.6c0.6-2.9,2.5-5.7,3.2-8.9c0.6-3.2,1.3-6.3,1.3-8.9c1.3-13.7-2.2-26-3.2-34.9
			c0-1.3-1.3-1.3-1.3-1.6c-1.6-7.3-2.5-13.7-4.1-20.3c-0.3-0.6-1.3-0.6-1.6-1.6c-3.5-14.3-7-24.4-11.7-34.9c1.6-0.6,1.3-1.3,1.6-3.2
			c0-1.6,1-0.6,1.3-1.6c3.2-5.7,5.4-12.4,7.3-18.7c0.6-1.9,1.6-2.2,1.6-4.4c0-1.3,1.3-1.3,1.6-1.3c0.3-1.9-0.3-4.1,0-6
			c0-1.6,1.3-1,1.6-1.6c1-3.8,1-5.7,2.5-7.3c0.3-0.3,0-2.2,0-2.9c0.3-2.5,0-3.2,1.3-4.4c1-0.3,0-2.2,0-3.2
			C669.2,525.3,670.8,524.3,671.4,523.4z M643.8,703c0-0.3-1.6,1-1.6,1.9c-1.9,5.4,1,8.9-1.6,11.4c-1.6,1.3,0.3,4.4-1.6,5.7
			c0,0.6,0.3,2.5,0,3.2c0,0-1.3,2.2-1.3,2.9c0,0-1.3,2.2-1.3,2.9c-0.3,0.3-1.3,2.2-1.6,2.9c-1,1.6-3.5,2.9-4.4,4.4
			c-1.3,1.3-1.6,1.9-2.9,2.9l-8.2,7c-1.9,2.5-9.8-0.6-13,1.9c-1,0.6-7-3.5-10.2-4.4c0-1.3-0.3-2.5-0.3-2.5
			c-5.7-4.8-3.8-15.2-1.6-24.1c1-6,0.6-14,4.1-20.3c0,0,1-2.2,1.3-2.9c0,0,1.3-2.2,1.6-2.9c1-3.2,3.2-4.8,4.1-5.7
			c0.6-0.3,0-2.5,0-2.9c1-3.5,3.2-5.4,3.2-7.3c0-1.6,1-1,1.3-1.6c2.2-4.8,3.8-11.1,6-13.3c0.3-0.3-0.3-2.2,0-2.9
			c0,0,1.3-2.2,1.6-2.9c0-0.3,1.3-2.2,1.3-2.9c0-0.3,1.3-2.5,1.3-3.2c0.3,0,1.3-2.5,1.6-2.5c0-0.3,1.3-2.5,1.6-3.2
			c0-0.3,1.3-2.2,1.6-2.9c0-0.3,1-2.5,1.3-2.9c0,0,1.3-2.5,1.6-3.2c1.3-2.5,2.5-7.9,5.7-7c3.2,15.2,7,32.4,8.9,46.7
			c0.3,2.5-0.3,6,0,8.9c0.6,5.7,3.5,11.1,0,14.3C640.9,699.9,643.8,702.7,643.8,703z M670.1,494.2c-0.3,0-1.6,0-1.9,1.3
			c0,0.3,0.3,1.3,0,1.3c-0.3,1.9,0,4.8-1.3,8.9c0,0.3-1.3,0-1.3,1.6v1.6l-6,17.1l-7.3,20.6c-0.3,1-1.3,0-1.3,1.6
			c-0.3,3.2-0.6,4.4-1.6,7.3l-4.4,11.7c-1.9-0.6-1.3-2.9,0-2.9c-1-1.6-1.6,0.3-2.9-1.6c-1-1.3-1-3.2-1.6-4.1
			c-2.9-7-5.1-17.1-7.3-26.4c-1.3-5.1-3.2-25.7-1.6-33.7c0-0.6,1.6-0.3,1.6-1.9c0.3-2.5,1.3-4.1,3.2-7.3c1-1.3,4.1-3.2,4.1-5.4
			c0.3-1.6,1.9-2.5,3.2-3.2c0.3-0.3,1.3-1.6,1.3-1.6c2.9-1,9.2-0.3,13,0c4.4,0.6,8.6,4.1,12.1,7.3
			C670.5,488.8,671.1,487.8,670.1,494.2z"/>
	</g>
</g>
</svg>
