<?xml version="1.0" encoding="utf-8"?>
<!-- Generator: Adobe Illustrator 18.0.0, SVG Export Plug-In . SVG Version: 6.00 Build 0)  -->
<!DOCTYPE svg PUBLIC "-//W3C//DTD SVG 1.0//EN" "http://www.w3.org/TR/2001/REC-SVG-20010904/DTD/svg10.dtd">
<svg version="1.0" id="Layer_1" xmlns="http://www.w3.org/2000/svg" xmlns:xlink="http://www.w3.org/1999/xlink" x="0px" y="0px"
	 viewBox="0 12.9 40 14.2" enable-background="new 0 12.9 40 14.2" xml:space="preserve">
<g>
	<polyline points="29,16.1 32.9,16.1 32.9,26.6 32.9,26.7 35.8,26.7 35.8,16.1 39.7,16.1 39.7,13.1 29,13.1 29,16.1 	"/>
</g>
<g>
	<g>
		<path d="M23.4,19.5c0.1-0.1,0.2-0.3,0.2-0.5l0.1-0.2c0.2-0.5,0.3-1,0.3-1.5c0-1.1-0.4-2.1-1.2-2.9c-0.8-0.8-1.8-1.2-2.9-1.2h-5.7
			v13.6h6.5c1.1,0,2.1-0.4,2.9-1.2c0.8-0.8,1.2-1.8,1.2-2.9s-0.4-2.1-1.1-2.8C23.6,19.7,23.5,19.6,23.4,19.5 M21.9,22.5
			c0,0.4-0.2,0.7-0.4,1c-0.2,0.2-0.5,0.4-0.8,0.4h-3.5v-2.8h3.3c0.4,0,0.7,0.1,1,0.4C21.7,21.8,21.9,22.1,21.9,22.5z M17.1,18.6
			v-2.8h2.5c0.4,0,0.7,0.1,1,0.4c0.2,0.2,0.4,0.6,0.4,1v0.1c0,0.1,0,0.2,0,0.2v0.1c0,0.1,0,0.1-0.1,0.2c-0.2,0.5-0.6,0.7-1.1,0.7
			L17.1,18.6L17.1,18.6z"/>
		<path d="M7,15.8c1.5,0,2.8,0.8,3.6,2.1l2.3-1.9c-1.3-1.9-3.5-3.1-5.8-3.1C3.2,12.9,0,16.1,0,20s3.2,7.1,7.1,7.1
			c2.3,0,4.5-1.1,5.8-3.1l-2.3-1.9c-0.7,1.3-2.1,2.1-3.6,2.1c-2.3,0-4.2-1.9-4.2-4.2C2.8,17.6,4.7,15.8,7,15.8"/>
	</g>
</g>
</svg>
