<?xml version="1.0" encoding="utf-8"?>
<!-- Generator: Adobe Illustrator 18.0.0, SVG Export Plug-In . SVG Version: 6.00 Build 0)  -->
<!DOCTYPE svg PUBLIC "-//W3C//DTD SVG 1.0//EN" "http://www.w3.org/TR/2001/REC-SVG-20010904/DTD/svg10.dtd">
<svg version="1.0" id="Layer_1" xmlns="http://www.w3.org/2000/svg" xmlns:xlink="http://www.w3.org/1999/xlink" x="0px" y="0px"
	 viewBox="-40 -61 120 162" enable-background="new -40 -61 120 162" xml:space="preserve">
<g>
	<g>
		<path fill="#FFFFFF" d="M47-1c0,14.9-12.1,27-27,27S-7,13.9-7-1S5.1-28,20-28C34.9-28.3,47-16.2,47-1z"/>
		<path fill="#FFFFFF" d="M20-42.3C42.7-42.3,61.3-24,61.3-1S43,40.3,20,40.3S-21.3,22-21.3-1C-21.3-24-3-42.3,20-42.3z M20,99.8
			C20,99.8,80,32,80-1c0-33.3-27-60-60-60S-40-34.3-40-1C-40,32,20,99.8,20,99.8z"/>
	</g>
</g>
</svg>
