<?xml version="1.0" encoding="utf-8"?>
<!-- Generator: Adobe Illustrator 18.0.0, SVG Export Plug-In . SVG Version: 6.00 Build 0)  -->
<!DOCTYPE svg PUBLIC "-//W3C//DTD SVG 1.0//EN" "http://www.w3.org/TR/2001/REC-SVG-20010904/DTD/svg10.dtd">
<svg version="1.0" id="Layer_1" xmlns="http://www.w3.org/2000/svg" xmlns:xlink="http://www.w3.org/1999/xlink" x="0px" y="0px"
	 viewBox="0 0 42 60" enable-background="new 0 0 42 60" xml:space="preserve">
<g>
	<g>
		<path fill="#54478D" d="M30.4,22.9c0,5.2-4.2,9.4-9.4,9.4c-5.2,0-9.4-4.2-9.4-9.4c0-5.2,4.2-9.4,9.4-9.4
			C26.2,13.4,30.4,17.6,30.4,22.9z"/>
		<path fill="#54478D" d="M21,8.5c7.9,0,14.4,6.4,14.4,14.4c0,8-6.4,14.4-14.4,14.4c-8,0-14.4-6.4-14.4-14.4C6.6,14.9,13,8.5,21,8.5
			z M21,58c0,0,20.9-23.6,20.9-35.1C41.9,11.3,32.5,2,21,2C9.5,2,0.1,11.3,0.1,22.9C0.1,34.4,21,58,21,58z"/>
	</g>
</g>
</svg>
